<svg xmlns="http://www.w3.org/2000/svg" viewBox="0 0 435.4 435.4"><defs><style>.cls-1{isolation:isolate;}.cls-2{fill:#fea621;}.cls-3{fill:#7c3843;}.cls-4{fill:#e5e5e5;}.cls-5{fill:#f75e8a;}.cls-6{fill:#f2f2f2;}.cls-7{fill:#ff4000;}.cls-8{fill:#1a9539;}.cls-9{opacity:0.67;}.cls-10{fill:#f2f2a0;}.cls-11{fill:#999;opacity:0.46;mix-blend-mode:multiply;}</style></defs><g class="cls-1"><g id="Capa_1" data-name="Capa 1"><circle class="cls-2" cx="217.7" cy="217.7" r="215.48"/><path class="cls-3" d="M314.74,177a36,36,0,0,0-36-36.05H159.18A36.06,36.06,0,0,0,123.13,177V314.1a36,36,0,0,0,36.05,36H278.7a36,36,0,0,0,36-36Z"/><path class="cls-4" d="M303.21,137.61c4.23-5.89,13.91-5.45,20.29-5,9,.67,18.35,2.9,26.25,7.39,6.73,3.82,9.06,10.53,1.69,15.35-7.84,5.14-17.85.89-25-3.3-8.21-4.8-15.61-10.94-23.59-16.11a10.79,10.79,0,0,0-7.14-1.45c-1,.13-4.26,1.28-2.17,2.63,17.81,11.56,35.73,28.72,58.83,24.09,5.89-1.19,12.89-4.35,14.39-10.79.94-4-2.44-7.68-5.28-10-9.78-7.89-24.39-10.65-36.55-11.86-9.29-.93-25.47-1.84-31.78,6.91-1.73,2.41,8.3,4.55,10.08,2.09Z"/><path class="cls-4" d="M302.46,139.68c5.6-10.77,11.28-22.49,20.07-31.06,3.66-3.56,8.75-5.17,13.66-6.06a29,29,0,0,1,7.95-.29,18.06,18.06,0,0,1,2.1.37c2.73,1,2,.34-2.11-2.16,1.2,1.35,1.52,3.57,1.55,5.26.27,10.83-16.74,16.52-25.13,18.2-5.13,1-10.27,2-15.33,3.32-3.64,1-9.64,2.31-11.33,6.18-.73,1.67,8.39,6.65,8.57,6.24,1.83-4.2,8.57-5.45,12.48-6.48,6.07-1.62,12.31-2.49,18.43-3.93,9.55-2.23,28.21-13.42,18-24.73-8.72-9.63-21.2-10.73-32.62-5.48-6.14,2.83-10.28,9.46-13.84,14.9-4.07,6.24-7.55,12.87-11,19.48-.76,1.44,8.26,6.84,8.57,6.24Z"/><path class="cls-5" d="M308.13,155.07c-2.78-3.89-7.22-2.78-10.55,0-7.22-10-10-1.12-17.22,0-5.55,1.11-10.55-3.89-16.11-5-8.32-1.11-11.65,5.55-18.87,7.22-8.33,1.67-12.78-5-20-7.22a31.16,31.16,0,0,0-20,1.66c-3.89,1.67-6.11,6.12-11.67,5-3.88-1.11-6.1-5.55-10.55-6.66-10.55-2.78-12.77,5-20,6.66-7.78,1.67-11.11-7.21-17.77-9.44-1.67,3.33-13.33,7.78-15.55,3.33a1.85,1.85,0,0,1-.15-1.1c.24-.25.48-.49.73-.72,1.56-3.74,8.5-9.42,9.41-12.61,1.79-6.82-1.74-12-4-17.43l0,0a17.82,17.82,0,0,1,15.67-26.27H283.72a17.81,17.81,0,0,1,16.58,24.29v0c-.89,6.38-3.28,9.52-3.28,17.2,0,6.72,6.92,12.28,9.82,17v0l.49.53A5.34,5.34,0,0,1,308.13,155.07Z"/><path class="cls-6" d="M300,137.8a1.06,1.06,0,0,1-1.05,1.06H139a1.06,1.06,0,0,1-1-1.06V127.49a1.05,1.05,0,0,1,1-1.06h160a1.05,1.05,0,0,1,1.05,1.06Z"/><path class="cls-4" d="M297.89,296.79a1.06,1.06,0,0,1-1.06,1.06H141.05a1.05,1.05,0,0,1-1.05-1.06v-98a1.06,1.06,0,0,1,1.05-1.07H296.83a1.07,1.07,0,0,1,1.06,1.07Z"/><path class="cls-7" d="M191.4,277.3a16.22,16.22,0,0,1-.44,4.16,7.37,7.37,0,0,1-1.33,2.69,5.78,5.78,0,0,1-2.25,1.64,8.26,8.26,0,0,1-3.16.55,9.4,9.4,0,0,1-1.72-.14,4.92,4.92,0,0,1-1-.28,1,1,0,0,1-.43-.36,1.23,1.23,0,0,1-.17-.51,5.13,5.13,0,0,1-.08-.63q0-.36,0-.93c0-.45,0-.83,0-1.14a2.91,2.91,0,0,1,.15-.72,1,1,0,0,1,.21-.39.47.47,0,0,1,.32-.12,4,4,0,0,1,.51.06,5.17,5.17,0,0,0,.82.06,2.67,2.67,0,0,0,1.1-.2,1.54,1.54,0,0,0,.76-.62,2.85,2.85,0,0,0,.44-1.1,10.87,10.87,0,0,0,.15-2.14V254.76a.7.7,0,0,1,.15-.43,1.06,1.06,0,0,1,.48-.32,4.14,4.14,0,0,1,.94-.21,15.89,15.89,0,0,1,3,0,4.12,4.12,0,0,1,.95.21,1.14,1.14,0,0,1,.5.32.64.64,0,0,1,.15.43Zm.46-30a3.52,3.52,0,0,1-.74,2.57,4.2,4.2,0,0,1-2.83.71,4.26,4.26,0,0,1-2.8-.68,3.37,3.37,0,0,1-.74-2.48,3.47,3.47,0,0,1,.77-2.58,5.88,5.88,0,0,1,5.62,0A3.37,3.37,0,0,1,191.86,247.31Z"/><path class="cls-7" d="M216.19,276.64a.68.68,0,0,1-.24.54,1.83,1.83,0,0,1-.77.28,12,12,0,0,1-1.56.08,11.83,11.83,0,0,1-1.6-.08,1.49,1.49,0,0,1-.71-.28.73.73,0,0,1-.21-.54V274.9a10.14,10.14,0,0,1-3.07,2.25,9,9,0,0,1-3.85.8,10.74,10.74,0,0,1-3.19-.44,7.27,7.27,0,0,1-2.52-1.35,6.12,6.12,0,0,1-1.66-2.22,7.57,7.57,0,0,1-.58-3.09,7,7,0,0,1,.74-3.32,6.18,6.18,0,0,1,2.23-2.32,11,11,0,0,1,3.69-1.36,25.75,25.75,0,0,1,5.11-.45h2.14v-1.32a7,7,0,0,0-.2-1.8,3,3,0,0,0-.69-1.29,2.87,2.87,0,0,0-1.27-.75,6.63,6.63,0,0,0-2-.25,9.73,9.73,0,0,0-2.76.35,14.74,14.74,0,0,0-2.14.75c-.62.28-1.13.54-1.55.77a2.36,2.36,0,0,1-1,.33.7.7,0,0,1-.47-.17,1.22,1.22,0,0,1-.34-.49,3.76,3.76,0,0,1-.21-.78,6.45,6.45,0,0,1-.07-1,4.32,4.32,0,0,1,.13-1.21,1.78,1.78,0,0,1,.45-.8,5.06,5.06,0,0,1,1.2-.78,14.06,14.06,0,0,1,2-.79,18.61,18.61,0,0,1,2.52-.61,17.19,17.19,0,0,1,2.81-.23,17,17,0,0,1,4.39.5,7.36,7.36,0,0,1,3,1.55,5.8,5.8,0,0,1,1.71,2.68,12.47,12.47,0,0,1,.54,3.89Zm-6.05-9.37h-2.35a12.41,12.41,0,0,0-2.55.23,4.63,4.63,0,0,0-1.71.66,2.67,2.67,0,0,0-1,1.06,3.18,3.18,0,0,0-.32,1.44,2.72,2.72,0,0,0,.88,2.15,3.48,3.48,0,0,0,2.41.78,4.46,4.46,0,0,0,2.38-.65,10.06,10.06,0,0,0,2.22-1.94Z"/><path class="cls-7" d="M257.11,276.57a.59.59,0,0,1-.15.42.93.93,0,0,1-.48.31,4.35,4.35,0,0,1-.94.18c-.39,0-.89.06-1.49.06s-1.13,0-1.53-.06a4.37,4.37,0,0,1-.93-.18.88.88,0,0,1-.49-.31.68.68,0,0,1-.14-.42v-13a9,9,0,0,0-.21-2,4.54,4.54,0,0,0-.63-1.55,3,3,0,0,0-1.08-1,3.18,3.18,0,0,0-1.56-.35,3.72,3.72,0,0,0-2.23.85,16.23,16.23,0,0,0-2.45,2.5v14.54a.63.63,0,0,1-.14.42,1,1,0,0,1-.51.31,4.35,4.35,0,0,1-.94.18q-.59.06-1.47.06c-.6,0-1.1,0-1.49-.06a4.59,4.59,0,0,1-.95-.18,1,1,0,0,1-.5-.31.58.58,0,0,1-.14-.42v-13a8.42,8.42,0,0,0-.22-2,5,5,0,0,0-.61-1.55,2.93,2.93,0,0,0-1.09-1,3.17,3.17,0,0,0-1.53-.35,3.71,3.71,0,0,0-2.26.85,15,15,0,0,0-2.44,2.5v14.54a.63.63,0,0,1-.14.42,1,1,0,0,1-.5.31,4.48,4.48,0,0,1-.94.18c-.4,0-.89.06-1.5.06s-1.11,0-1.49-.06a4.59,4.59,0,0,1-.95-.18.92.92,0,0,1-.49-.31.59.59,0,0,1-.15-.42V254.71a.75.75,0,0,1,.11-.43,1,1,0,0,1,.45-.31,3.48,3.48,0,0,1,.82-.18,10.94,10.94,0,0,1,1.26-.06,11.46,11.46,0,0,1,1.3.06,3.08,3.08,0,0,1,.8.18.82.82,0,0,1,.4.31.75.75,0,0,1,.13.43v2.52a14.56,14.56,0,0,1,3.6-2.94,7.85,7.85,0,0,1,3.77-1,9.52,9.52,0,0,1,2.42.28,6.94,6.94,0,0,1,1.92.81,6.43,6.43,0,0,1,1.47,1.26,7.84,7.84,0,0,1,1,1.64,17.66,17.66,0,0,1,1.92-1.81,10.93,10.93,0,0,1,1.86-1.24,9.07,9.07,0,0,1,1.83-.71,8,8,0,0,1,1.88-.23,8.16,8.16,0,0,1,3.68.74,6.65,6.65,0,0,1,2.42,2,8.24,8.24,0,0,1,1.3,2.95,16,16,0,0,1,.39,3.58Z"/><path class="cls-7" d="M217.78,209.84c-4.08-1.26-11.33-1.06-15.61,0-4.79,1.19-7.57,8.75-6.73,12.27,1.83,7.31,7.39,12.18,12.6,17.4,3.52,3.37,6,3.51,10.69,2.81a16.4,16.4,0,0,1,5.21-.43c2,.43,2.82,1,4.92,0,4.64-2.1,9.71-7.17,11.26-11.95,1.26-3.94,3.09-9.15,2.25-13.37a10.78,10.78,0,0,0-8.72-8.72c-5.21-1.13-11.22.31-15.87,2Z"/><path class="cls-8" d="M224.18,214.17a3.62,3.62,0,0,1-3.56.08c-1-.66-1.17-1.09-2.13-1.76-.62-.45-.88-.45-1.76.38a8.14,8.14,0,0,1-2,1.59,4.6,4.6,0,0,1-4.6-.21c2.34.09,4.89-2.51,4.56-3.85-.13-.33-2.51-1.08-3-1.29-1.75-1.09-1.8-1-3.6-3.35,2.18,1.3,6.79,3.77,8.2,1.68a13.25,13.25,0,0,0,.67-3.6,24.05,24.05,0,0,0,0-3.89,11.26,11.26,0,0,1,1.42,3.14,24.68,24.68,0,0,0,1.2,3.8,9.89,9.89,0,0,0,4.28-6.9c.13,3-.29,8.74-3.47,10.41C222,212.83,222.33,214,224.18,214.17Z"/><g class="cls-9"><path class="cls-10" d="M198.5,222.33a13.57,13.57,0,0,0,2.34,2.83c1.43,1.25,3.53-.83,2.09-2.09a11.18,11.18,0,0,1-1.88-2.23c-1.06-1.58-3.62-.09-2.55,1.49Z"/></g><g class="cls-9"><path class="cls-10" d="M205,221.21a14,14,0,0,0,1,1.82,1.48,1.48,0,0,0,2.55-1.49,12.77,12.77,0,0,1-1-1.82c-.84-1.72-3.39-.22-2.57,1.49Z"/></g><g class="cls-9"><path class="cls-10" d="M211.58,221.07c.26.59.59,1.16.84,1.75a1.51,1.51,0,0,0,1.81,1,1.46,1.46,0,0,0,1-1.81c-.34-.84-.77-1.63-1.12-2.47a1.49,1.49,0,0,0-2-.53,1.52,1.52,0,0,0-.54,2Z"/></g><g class="cls-9"><path class="cls-10" d="M217.63,220.43c.14.42.27.85.42,1.27.6,1.79,3.45,1,2.85-.79l-.43-1.26c-.59-1.8-3.45-1-2.84.78Z"/></g><g class="cls-9"><path class="cls-10" d="M224.47,219.06a4.43,4.43,0,0,1-.09,1.15,1.47,1.47,0,0,0,2.84.78,7,7,0,0,0,.2-1.93,1.48,1.48,0,0,0-2.95,0Z"/></g><g class="cls-9"><path class="cls-10" d="M232.4,218.52c-.14.38-.29.75-.43,1.13-.64,1.8,2.22,2.56,2.86.78.12-.38.28-.74.41-1.13a1.46,1.46,0,0,0-1-1.81,1.49,1.49,0,0,0-1.81,1Z"/></g><g class="cls-9"><path class="cls-10" d="M238.39,220.46c.07-.12.08-.14,0-.06-1.28,1.42.81,3.51,2.08,2.09a3,3,0,0,0,.86-2c.14-1.9-2.82-1.89-3,0Z"/></g><g class="cls-9"><path class="cls-10" d="M204.12,228a3.92,3.92,0,0,0,.43,1.2c.82,1.73,3.37.22,2.55-1.48a1.09,1.09,0,0,1-.13-.5,1.48,1.48,0,0,0-1.82-1,1.51,1.51,0,0,0-1,1.81Z"/></g><g class="cls-9"><path class="cls-10" d="M209.55,226.93a4.37,4.37,0,0,0,.77,2.15c1,1.58,3.6.11,2.55-1.48a1.75,1.75,0,0,1-.36-.67c-.15-1.88-3.11-1.9-3,0Z"/></g><g class="cls-9"><path class="cls-10" d="M216.5,225.83a2.82,2.82,0,0,0,.81,2.85,1.51,1.51,0,0,0,2.08,0,1.48,1.48,0,0,0,0-2.09c-.4-.33-.07.2,0,0a1.47,1.47,0,1,0-2.84-.79Z"/></g><g class="cls-9"><path class="cls-10" d="M221.66,227.13a2,2,0,0,0,.2.21c-.14-.21-.25-.43-.38-.65a1.89,1.89,0,0,0,.09.21,1.51,1.51,0,0,0,1.81,1,1.49,1.49,0,0,0,1-1.82,3,3,0,0,0-.66-1.07c-1.29-1.41-3.38.68-2.09,2.08Z"/></g><g class="cls-9"><path class="cls-10" d="M228.18,225a14,14,0,0,0-.19,2.5,1.48,1.48,0,0,0,2.95,0,11,11,0,0,1,.08-1.72,1.47,1.47,0,0,0-2.84-.78Z"/></g><g class="cls-9"><path class="cls-10" d="M234.77,225.51a15.91,15.91,0,0,0-2.56,1.64,1.49,1.49,0,0,0,0,2.09,1.51,1.51,0,0,0,2.09,0,13.31,13.31,0,0,1,1.95-1.18c1.71-.86.2-3.4-1.48-2.55Z"/></g><g class="cls-9"><path class="cls-10" d="M206.51,232.88c.27.42.46.86.71,1.27,1,1.62,3.55.14,2.55-1.49-.25-.42-.45-.86-.69-1.27-1-1.63-3.55-.14-2.57,1.49Z"/></g><g class="cls-9"><path class="cls-10" d="M211.82,234c.14.17.27.38.41.56a1.51,1.51,0,0,0,2.11,0,1.55,1.55,0,0,0,0-2.09c-.16-.18-.29-.38-.43-.56a1.46,1.46,0,0,0-2.09,0,1.5,1.5,0,0,0,0,2.09Z"/></g><g class="cls-9"><path class="cls-10" d="M217.77,232.67c.13.42.28.85.42,1.26.6,1.81,3.45,1,2.85-.78-.14-.42-.28-.84-.43-1.26-.6-1.81-3.44-1-2.84.78Z"/></g><g class="cls-9"><path class="cls-10" d="M224.75,231.57a10.26,10.26,0,0,0,.19,2.08c.38,1.87,3.24,1.08,2.84-.78a7,7,0,0,1-.08-1.3,1.48,1.48,0,0,0-2.95,0Z"/></g><g class="cls-9"><path class="cls-10" d="M229.45,232.1c-.16.19-.16.25,0,.17-1.55,1.07-.08,3.64,1.49,2.55a3.15,3.15,0,0,0,1.09-1.23c.88-1.7-1.68-3.19-2.55-1.49Z"/></g><g class="cls-9"><path class="cls-10" d="M212,239.37a5.35,5.35,0,0,0,1.78,1.08,1.47,1.47,0,0,0,1.81-1,1.51,1.51,0,0,0-1-1.81,1.73,1.73,0,0,1-.47-.33c-1.41-1.28-3.51.81-2.09,2.09Z"/></g><g class="cls-9"><path class="cls-10" d="M216.46,238.81a3,3,0,0,1,.47.54c1,1.62,3.55.14,2.56-1.49a6.41,6.41,0,0,0-.94-1.14c-1.34-1.36-3.43.73-2.09,2.09Z"/></g><g class="cls-9"><path class="cls-10" d="M222.5,237.91a1.06,1.06,0,0,1,.06-.19c-.93,1.66,1.62,3.16,2.55,1.5a2.63,2.63,0,0,0,.33-1.31c.06-1.91-2.89-1.91-2.94,0Z"/></g><g class="cls-9"><path class="cls-10" d="M226.87,238a3.7,3.7,0,0,0-.28.28,1.48,1.48,0,0,0,2.09,2.09,3.7,3.7,0,0,1,.28-.28,1.48,1.48,0,0,0-2.09-2.09Z"/></g><g class="cls-9"><path class="cls-10" d="M202.11,214.21A4.07,4.07,0,0,0,201,216.8c-.13,1.9,2.83,1.9,3,0a.8.8,0,0,1,.27-.5c1.27-1.41-.81-3.5-2.09-2.09Z"/></g><g class="cls-9"><path class="cls-10" d="M228.13,213.85c0,.56.12,1.12.13,1.69.07,1.9,3,1.9,3,0,0-.57-.12-1.13-.13-1.69-.08-1.9-3-1.91-3,0Z"/></g><g class="cls-9"><path class="cls-10" d="M234.62,214.85a2.71,2.71,0,0,1,1,1.29,1.47,1.47,0,0,0,2,.53,1.5,1.5,0,0,0,.53-2,5.46,5.46,0,0,0-2.08-2.36c-1.59-1-3.06,1.51-1.49,2.56Z"/></g><path class="cls-11" d="M299.69,343.39,210.1,433C100,429.2,10.85,342.73,2.81,233.74L138.9,97.66a17.69,17.69,0,0,0-3.06,21v0c1.09,2.58,2.39,5.07,3.35,7.71h-.25a1,1,0,0,0-1,1v10.3a.9.9,0,0,0,.52.86c-2.35,3.2-6.75,7.27-7.95,10.15-.23.24-.52.47-.77.71a1.78,1.78,0,0,0,.2,1.11,3.47,3.47,0,0,0,3,1.77A35.61,35.61,0,0,0,123.15,177V314.09a36,36,0,0,0,36,36.06H278.72A35.52,35.52,0,0,0,299.69,343.39Z"/></g></g></svg>