<svg xmlns="http://www.w3.org/2000/svg" viewBox="0 0 435.4 435.4"><defs><style>.cls-1{isolation:isolate;}.cls-2{fill:#fc4d2a;}.cls-3{fill:#015e5f;}.cls-4{fill:#fee1b8;}.cls-5{opacity:0.61;}.cls-6{fill:#fff;}.cls-10,.cls-7{fill:#999;mix-blend-mode:multiply;}.cls-7{opacity:0.36;}.cls-8{fill:#82c965;}.cls-9{fill:#835fab;}.cls-10{opacity:0.46;}</style></defs><g class="cls-1"><g id="Capa_1" data-name="Capa 1"><circle class="cls-2" cx="217.7" cy="217.7" r="215.48"/><path class="cls-3" d="M263.47,216.78a7.56,7.56,0,0,1,.07,1V370.69c0,4-3.54,7.26-8,7.26H179.83c-4.39,0-8-3.26-8-7.26V217.77a7.42,7.42,0,0,1,.09-1v0c0-1-.09-1.92-.09-2.92a45.86,45.86,0,0,1,29.22-42.73v-82h.48c-2.11,0-3.78-2.16-3.78-4.79V73.74c0-2.63,1.67-4.74,3.78-4.74h32.34c2.06,0,3.74,2.11,3.74,4.74v10.6c0,2.63-1.68,4.79-3.74,4.79h.43v82a45.85,45.85,0,0,1,29.22,42.73c0,1,0,2-.07,2.92Z"/><path class="cls-4" d="M230.77,54.76V69H204.62V54.76a4,4,0,0,1,4-4h18.18A4,4,0,0,1,230.77,54.76Z"/><g class="cls-5"><path class="cls-6" d="M195.77,179.38c-10.14,4.41-15.84,17.54-15.43,28.2.22,5.5,17.42,4.52,17.2-1.14-.29-7.72,4.08-17,10.89-21.75,2.17-1.51,1.38-4.35-.73-5.81-3.47-2.4-8.17-1.13-11.93.5Z"/></g><path class="cls-7" d="M260.35,216.78a6.11,6.11,0,0,1,.08,1V370.69c0,4-3.54,7.26-8,7.26H239.39c4.41,0,8-3.26,8-7.26V217.77a6.07,6.07,0,0,0-.09-1v0c0-1,.09-1.92.09-2.92a45.88,45.88,0,0,0-29.22-42.73v-82h-.44c2.07,0,3.74-2.16,3.74-4.79V73.74c0-2.63-1.67-4.74-3.74-4.74h13.07c2.07,0,3.75,2.11,3.75,4.74v10.6c0,2.63-1.68,4.79-3.75,4.79h.44v82a45.86,45.86,0,0,1,29.22,42.73c0,1,0,2-.08,2.92Z"/><rect class="cls-6" x="171.85" y="236.75" width="91.69" height="88.2"/><polygon class="cls-8" points="209.53 276.35 212.43 278.74 217.7 263.26 212.41 247.78 209.52 250.17 192.09 246.52 194.85 255.37 194.85 255.69 179.39 263.28 194.87 270.86 194.86 271.17 192.11 280.03 209.53 276.35"/><polygon class="cls-8" points="225.86 276.39 222.96 278.78 217.69 263.3 222.99 247.82 225.87 250.22 243.31 246.57 240.55 255.42 240.55 255.73 256 263.33 240.52 270.9 240.52 271.21 243.29 280.07 225.86 276.39"/><polygon class="cls-7" points="256 263.34 240.56 270.89 240.55 271.22 243.29 280.07 225.89 276.39 222.98 278.8 217.7 263.28 256 263.34"/><polygon class="cls-7" points="179.39 263.33 194.84 270.88 194.85 271.21 192.1 280.06 209.51 276.38 212.43 278.78 217.7 263.28 179.39 263.33"/><path class="cls-9" d="M209.42,273.27a8.58,8.58,0,1,1-8.58-8.57A8.57,8.57,0,0,1,209.42,273.27Z"/><path class="cls-9" d="M227.71,273.27a8.58,8.58,0,1,1-8.58-8.57A8.57,8.57,0,0,1,227.71,273.27Z"/><path class="cls-9" d="M218.56,289.27A8.58,8.58,0,1,1,210,280.7,8.58,8.58,0,0,1,218.56,289.27Z"/><path class="cls-9" d="M227.71,305.28a8.58,8.58,0,1,1-8.58-8.57A8.57,8.57,0,0,1,227.71,305.28Z"/><path class="cls-9" d="M236.85,289.27a8.58,8.58,0,1,1-8.57-8.57A8.58,8.58,0,0,1,236.85,289.27Z"/><path class="cls-9" d="M246,273.27a8.58,8.58,0,1,1-8.57-8.57A8.57,8.57,0,0,1,246,273.27Z"/><path class="cls-10" d="M261.2,375.82l-56.94,56.92c-101-6.22-183.16-82-199.15-180L205.32,52.55a3.9,3.9,0,0,0-.68,2.2V69h-3.07c-2.1,0-3.77,2.1-3.77,4.74V84.35c0,2.63,1.67,4.79,3.77,4.79h-.47v81.92a45.85,45.85,0,0,0-29.21,42.76c0,1,0,2,.05,2.92a6.9,6.9,0,0,0-.05,1V370.69c0,4,3.55,7.23,8,7.23h75.75A8.38,8.38,0,0,0,261.2,375.82Z"/></g></g></svg>