<svg xmlns="http://www.w3.org/2000/svg" viewBox="0 0 435.4 435.4"><defs><style>.cls-1{isolation:isolate;}.cls-2{fill:#2daba4;}.cls-3{fill:#c24753;}.cls-4{fill:#ffffdb;}.cls-5{fill:#f2f2dc;}.cls-6,.cls-8{fill:#999;mix-blend-mode:multiply;}.cls-6{opacity:0.36;}.cls-7{fill:#fcc0b7;}.cls-8{opacity:0.46;}</style></defs><g class="cls-1"><g id="Capa_1" data-name="Capa 1"><circle class="cls-2" cx="217.7" cy="217.7" r="215.48"/><path class="cls-3" d="M330.75,201.79c.11,1.13.23,2.27.33,3.56,0,.06,0,.06,0,.15,1.3,12.72,3.27,32.71,1.34,51.19-7.29,9.16-18.18,17.85-30.22,16-24-1.3-42.9-24.71-66.42-29-19.47-3.52-42,7.53-61.52,9.61-18.5,1.67-71.11-5.54-78.52-30.1l0-.09c1.31-49.72,68.15-105.94,105.06-116.64,31-9,69.93,2.54,95.55,20.43C320.45,143.72,327.63,174.37,330.75,201.79Z"/><path class="cls-4" d="M291.77,108.76c-30.69-17.56-71.12-19.25-103.52-6.67C137.12,122,65.65,199.64,92.52,258c11.59,25.2,37.76,34.46,63.65,31.11,18.29-2.39,36.18-6.67,54.75-6.52,20.65.26,37,14.06,54.07,23.58,24.48,13.59,47.56,1.17,64.29-18,21.45-24.6,15.24-64.08,12.43-93.58C337.44,157.55,325.28,127.86,291.77,108.76Zm39,93c.11,1.13.23,2.27.33,3.56,0,.06,0,.06,0,.15,1.3,12.72,3.27,32.71,1.34,51.19-7.29,9.16-18.18,17.85-30.22,16-24-1.3-42.9-24.71-66.42-29-19.47-3.52-42,7.53-61.52,9.61-18.5,1.67-71.11-5.54-78.52-30.1l0-.09c1.31-49.72,68.15-105.94,105.06-116.64,31-9,69.93,2.54,95.55,20.43C320.45,143.72,327.63,174.37,330.75,201.79Z"/><path class="cls-5" d="M250.82,153.47c6.25,26.78-50.3,40.75-66.42,25.67-13.88-13.12.14-27.6,13.54-35.87C214.05,133.82,245.7,132.94,250.82,153.47Z"/><path class="cls-6" d="M327.3,290.42c-16.53,17.87-38.76,28.82-62.32,15.75-17.13-9.52-33.42-23.32-54.06-23.58-18.58-.15-36.47,4.13-54.77,6.52-25.88,3.35-52.05-5.91-63.64-31.11a61,61,0,0,1-5.24-18.48c8.91,18.69,30.93,30.73,52.16,31.45,22.71.67,44.48-4.4,66.16-4.42,8.52-.44,18.76-1.13,26.76-.05,8.22,1.57,15.89,7.14,23.09,11.66,11.41,8.07,29.53,23.44,44,21.34C306.48,298.45,317.17,295.16,327.3,290.42Z"/><path class="cls-7" d="M233.19,161c-2.39,5.29-13.39,7.53-18.94,8.39-4,.68-17,2.28-20.22-3.53-1-1.89.63-7.4,2.62-9,2.51-2.5,8.76-5.56,12-6.56,5.66-3.07,15.69-3,21.26.78A8.56,8.56,0,0,1,233.19,161Z"/><path class="cls-8" d="M322.29,295.42,186.78,431C98.34,418.24,27.28,351.82,7.6,265.82L125,148.46c-24.18,26.82-41.66,60.34-37.69,91a40.19,40.19,0,0,0,.67,4.12,8.25,8.25,0,0,0,.29,1.43c.24,1.15.53,2.3.81,3.45a22.16,22.16,0,0,0,.91,2.87,33,33,0,0,0,1.2,3.36c.38,1.1.86,2.2,1.34,3.25,11.64,25.24,37.78,34.48,63.69,31.13,18.29-2.4,36.2-6.66,54.73-6.52a49.77,49.77,0,0,1,7.56.72,51.91,51.91,0,0,1,7.23,1.77,77.42,77.42,0,0,1,13.6,5.84c2.16,1.15,4.31,2.4,6.47,3.64,0,0,0,.05,0,.05,2.16,1.29,4.27,2.59,6.37,3.88,4.31,2.63,8.53,5.27,12.79,7.66,1.82,1,3.64,1.87,5.41,2.64a40.49,40.49,0,0,0,24,2.24c1-.23,2-.47,3-.76a21.13,21.13,0,0,0,2.78-.86,46.85,46.85,0,0,0,5.36-2.25c.72-.33,1.44-.72,2.16-1.1A70.11,70.11,0,0,0,322.29,295.42Z"/></g></g></svg>