<svg xmlns="http://www.w3.org/2000/svg" viewBox="0 0 435.4 435.4"><defs><style>.cls-1{isolation:isolate;}.cls-2{fill:#80c41c;}.cls-3{fill:#ff4000;}.cls-4,.cls-7{fill:#999;mix-blend-mode:multiply;}.cls-4{opacity:0.36;}.cls-5{fill:#a0642f;}.cls-6{fill:#f2f2f2;opacity:0.85;}.cls-7{opacity:0.46;}</style></defs><g class="cls-1"><g id="Capa_1" data-name="Capa 1"><circle class="cls-2" cx="217.7" cy="217.7" r="215.48"/><path class="cls-3" d="M204,141.66c-37.14-4.66-77.38-16-97.09,27-9.45,23.52-9.14,52.17-1.8,76.5,17.09,71.08,64.69,88.11,117.6,88.11,71.83,0,112.74-57.89,112.92-121.59.82-37.62-17.4-68.51-54.38-74.47-29.29-5-46.61,5.06-77.25,4.41Z"/><path class="cls-4" d="M212.55,165.26c-34.67,0-59.66-13.73-57.08-19.4,3-6.62,28.59,1.33,33.34,2.27,8.06,1.23,15.07,2.58,23.13,2.37,8.68-.31,7.24-.31,15.9-1.55,6.51-1,14.34-6.72,20-2.17C253.85,151.64,239.3,165.26,212.55,165.26Z"/><path class="cls-5" d="M213.55,115.24c-1.92,8-4,15.21-4.42,23.38-.28,7.37.45,15.34,1.17,23.1a13.73,13.73,0,0,1-5.6-.92c-2.62-17.73-.34-37.91-1.61-53.72.72-4.65,3.82-5.79,7.49-4.49C216.18,104.39,214.74,111.3,213.55,115.24Z"/><path class="cls-6" d="M312.81,175c0,9.08-11.56,7.43-16.32,5.26-7.22-2.89-31-6.5-35.61-12.59-6.91-8.67,5.78-11.56,11.87-20.24,6.81-9.08,27.67,4.34,33.66,13.64C311.16,168.46,312.92,170.22,312.81,175Z"/><path class="cls-4" d="M315.47,283.74c-18.78,29.53-50.38,49.57-92.61,49.57-53,0-100.45-17-117.59-88.17-7.33-24.27-7.65-53,1.76-76.51,5.77-12.5,13.21-20.45,21.88-25.19-1.45,5.05-2.89,10-3.3,15.07a152.87,152.87,0,0,0,1.75,43.88c4.34,26.64,20.65,53.38,41.3,70.52C206.65,304.5,267.76,305.42,315.47,283.74Z"/><path class="cls-7" d="M295.24,307.39,173.9,428.72A215.84,215.84,0,0,1,7,263l110-110A61.22,61.22,0,0,0,107,168.67c-9.48,23.56-9.15,52.19-1.82,76.52,12.31,51.09,40.32,74.26,74.79,83.22h.1c3,.81,6,1.49,9.14,2.06a185,185,0,0,0,33.72,2.82c2.2,0,4.36,0,6.51-.19s4.36-.24,6.46-.48,4.08-.43,6-.77a.43.43,0,0,0,.25-.05,57.07,57.07,0,0,0,6.07-1.15c2-.38,4-.86,5.9-1.38a58.57,58.57,0,0,0,5.69-1.72,54.82,54.82,0,0,0,5.56-2,96.4,96.4,0,0,0,15.37-7.61,42.55,42.55,0,0,0,4.74-3A93.37,93.37,0,0,0,295.24,307.39Z"/></g></g></svg>