<svg xmlns="http://www.w3.org/2000/svg" viewBox="0 0 435.4 435.4"><defs><style>.cls-1{isolation:isolate;}.cls-2{fill:#2daba4;}.cls-3{fill:#e5e5e5;}.cls-4{fill:#fff;}.cls-5{fill:#ccc;}.cls-6{fill:#f2f2f2;}.cls-7{fill:#83d0e3;}.cls-8{fill:#b0e2ed;}.cls-9{fill:#d9f1f6;}.cls-10{fill:#a2cfda;}.cls-11{fill:#6a878e;}.cls-12{fill:#999;opacity:0.46;mix-blend-mode:multiply;}</style></defs><g class="cls-1"><g id="Capa_1" data-name="Capa 1"><circle class="cls-2" cx="217.7" cy="217.7" r="215.48"/><path class="cls-3" d="M297.15,163.68V358.14H145.7V163.68L168.16,100V83.1a5.87,5.87,0,0,1,5.89-5.84h94.76a5.87,5.87,0,0,1,5.89,5.84V100Z"/><rect class="cls-4" x="145.55" y="163.7" width="106.46" height="194.45"/><rect class="cls-3" x="252.01" y="163.7" width="44.97" height="194.45"/><polygon class="cls-3" points="296.98 163.7 274.52 157.84 274.52 99.93 296.98 163.7"/><polygon class="cls-5" points="274.52 99.93 274.52 157.84 252.01 163.7 270.37 111.77 274.52 99.93"/><polygon class="cls-6" points="296.98 163.7 252.01 163.7 274.52 157.84 296.98 163.7"/><polygon class="cls-6" points="274.52 98.11 274.52 99.93 270.37 111.77 252.01 163.7 145.55 163.7 168 99.93 168 98.11 274.52 98.11"/><path class="cls-4" d="M274.52,83.1V99.93H168V83.1a5.87,5.87,0,0,1,5.85-5.86h94.8A5.88,5.88,0,0,1,274.52,83.1Z"/><path class="cls-7" d="M252,292.38v65.77H145.55V340.4c15.07,8.27,33.48,9.73,46.85-3.64,9.31-9.33,13.71-20.05,24.91-28.37A83.85,83.85,0,0,1,252,292.38Z"/><path class="cls-8" d="M252,283.47v8.91a83.85,83.85,0,0,0-34.7,16c-11.2,8.32-15.6,19-24.91,28.37-13.37,13.37-31.78,11.91-46.85,3.64V311.26c2.64,1.87,5.16,2.64,9.26,2.05,11.73-2.46,26.38-10.79,37.59-15.18,9.78-3.87,19.57-8.79,29.31-11.73C231,283.41,241.64,283.18,252,283.47Z"/><path class="cls-9" d="M252,275.62v7.85c-10.37-.29-21-.06-30.3,2.93-9.74,2.94-19.53,7.86-29.31,11.73-11.21,4.39-25.86,12.72-37.59,15.18-4.1.59-6.62-.18-9.26-2.05v-36.4a59.39,59.39,0,0,0,12.2,8.61c8.26,3.93,14.13.53,22.45-.93A278.69,278.69,0,0,1,252,275.62Z"/><rect class="cls-10" x="260.84" y="172.5" width="30.29" height="95.75"/><rect class="cls-11" x="261.73" y="315.05" width="2.86" height="32.73"/><rect class="cls-11" x="266.02" y="315.05" width="3.93" height="29.09"/><rect class="cls-11" x="271.74" y="315.05" width="1.92" height="29.09"/><rect class="cls-11" x="275.36" y="315.05" width="2.85" height="29.09"/><rect class="cls-11" x="279.64" y="315.05" width="1.45" height="29.09"/><rect class="cls-11" x="282.19" y="315.05" width="1.44" height="29.09"/><rect class="cls-11" x="284.51" y="315.05" width="2.06" height="29.09"/><rect class="cls-11" x="287.19" y="315.05" width="2.85" height="32.73"/><path class="cls-7" d="M190.63,234.63a.63.63,0,0,1-.15.43,1,1,0,0,1-.49.3,3.58,3.58,0,0,1-.93.19c-.39,0-.9.06-1.5.06s-1.13,0-1.52-.06a3.86,3.86,0,0,1-.95-.19.94.94,0,0,1-.49-.3.66.66,0,0,1-.13-.43v-13a9,9,0,0,0-.21-2,4.76,4.76,0,0,0-.65-1.57,3,3,0,0,0-1.08-1,3.27,3.27,0,0,0-1.56-.35,3.67,3.67,0,0,0-2.23.85,15.49,15.49,0,0,0-2.46,2.51v14.58a.74.74,0,0,1-.14.43,1.25,1.25,0,0,1-.5.3,4.05,4.05,0,0,1-1,.19c-.39,0-.89.06-1.48.06s-1.09,0-1.5-.06a3.86,3.86,0,0,1-.94-.19,1.17,1.17,0,0,1-.51-.3.67.67,0,0,1-.14-.43v-13a9,9,0,0,0-.21-2,5,5,0,0,0-.62-1.57,3.12,3.12,0,0,0-1.08-1,3.41,3.41,0,0,0-1.56-.35,3.73,3.73,0,0,0-2.26.85,14.68,14.68,0,0,0-2.43,2.51v14.58a.68.68,0,0,1-.15.43,1.06,1.06,0,0,1-.51.3,3.76,3.76,0,0,1-.94.19q-.6.06-1.5.06c-.61,0-1.1,0-1.49-.06a4,4,0,0,1-1-.19,1.07,1.07,0,0,1-.5-.3.68.68,0,0,1-.15-.43V212.7a.83.83,0,0,1,.12-.42.89.89,0,0,1,.44-.31,4.47,4.47,0,0,1,.83-.19,11,11,0,0,1,1.27-.06,11.71,11.71,0,0,1,1.3.06,3.36,3.36,0,0,1,.8.19.89.89,0,0,1,.41.31.74.74,0,0,1,.12.42v2.54a14.25,14.25,0,0,1,3.62-3,7.89,7.89,0,0,1,3.78-1,9.52,9.52,0,0,1,2.43.29,6.34,6.34,0,0,1,1.93.81,6.15,6.15,0,0,1,1.46,1.26,7.32,7.32,0,0,1,1,1.65,18.79,18.79,0,0,1,1.92-1.82,11,11,0,0,1,1.87-1.24,8.2,8.2,0,0,1,1.84-.71,7.46,7.46,0,0,1,1.88-.24,8.28,8.28,0,0,1,3.69.73,6.63,6.63,0,0,1,2.42,2,7.89,7.89,0,0,1,1.32,3,15.93,15.93,0,0,1,.39,3.59Z"/><path class="cls-7" d="M203.37,205.28a3.46,3.46,0,0,1-.77,2.58,6.07,6.07,0,0,1-5.64,0,3.34,3.34,0,0,1-.73-2.49,3.57,3.57,0,0,1,.75-2.59,5.9,5.9,0,0,1,5.65,0A3.37,3.37,0,0,1,203.37,205.28Zm-.47,29.35a.68.68,0,0,1-.15.43,1.06,1.06,0,0,1-.51.3,3.67,3.67,0,0,1-.94.19c-.39,0-.9.06-1.5.06s-1.11,0-1.5-.06a3.86,3.86,0,0,1-1-.19,1.07,1.07,0,0,1-.5-.3.68.68,0,0,1-.15-.43V212.76a.67.67,0,0,1,.15-.44,1.17,1.17,0,0,1,.5-.32,4.89,4.89,0,0,1,1-.21,16.11,16.11,0,0,1,3,0,4.6,4.6,0,0,1,.94.21,1.15,1.15,0,0,1,.51.32.67.67,0,0,1,.15.44Z"/><path class="cls-7" d="M215.26,234.63a.68.68,0,0,1-.15.43,1.06,1.06,0,0,1-.51.3,3.67,3.67,0,0,1-.94.19c-.39,0-.89.06-1.49.06s-1.11,0-1.51-.06a3.67,3.67,0,0,1-.93-.19,1,1,0,0,1-.51-.3.68.68,0,0,1-.15-.43V202.3a.73.73,0,0,1,.15-.44,1.1,1.1,0,0,1,.51-.33,4,4,0,0,1,.93-.21,12.64,12.64,0,0,1,1.51-.07,12.28,12.28,0,0,1,1.49.07,4,4,0,0,1,.94.21,1.15,1.15,0,0,1,.51.33.73.73,0,0,1,.15.44Z"/><path class="cls-7" d="M241.8,234.66a.75.75,0,0,1-.13.43,1,1,0,0,1-.49.28,4.54,4.54,0,0,1-1,.18c-.4,0-.93.06-1.6.06s-1.2,0-1.62-.05a5.19,5.19,0,0,1-1-.16,1.5,1.5,0,0,1-.62-.31,1.7,1.7,0,0,1-.4-.52L227.63,223v11.61a.68.68,0,0,1-.15.43,1.12,1.12,0,0,1-.5.3,4,4,0,0,1-.95.19q-.6.06-1.5.06c-.61,0-1.11,0-1.51-.06a3.86,3.86,0,0,1-.94-.19,1.17,1.17,0,0,1-.51-.3.74.74,0,0,1-.14-.43V202.3a.79.79,0,0,1,.14-.44,1.29,1.29,0,0,1,.51-.33,4.27,4.27,0,0,1,.94-.21,16.21,16.21,0,0,1,3,0,4.38,4.38,0,0,1,.95.21,1.24,1.24,0,0,1,.5.33.73.73,0,0,1,.15.44v19.25l6.49-8.73a2.16,2.16,0,0,1,.44-.51,1.54,1.54,0,0,1,.65-.34,6.1,6.1,0,0,1,1-.19q.6-.06,1.53-.06c.6,0,1.12,0,1.53.06a5.85,5.85,0,0,1,1,.19,1.11,1.11,0,0,1,.53.31.71.71,0,0,1,.14.45,2.24,2.24,0,0,1-.18.79,4.18,4.18,0,0,1-.55.88l-6.43,7.28,7.43,11.47a6.76,6.76,0,0,1,.43.84A1.93,1.93,0,0,1,241.8,234.66Z"/><path class="cls-12" d="M297.15,358.14l-75,75c-1.49,0-3,0-4.45,0C107.92,433.17,17.28,351,3.92,244.8L169.45,79.27A5.66,5.66,0,0,0,168,83.1V99.91l-22.46,63.78V358.14Z"/></g></g></svg>