<svg xmlns="http://www.w3.org/2000/svg" viewBox="0 0 435.4 435.4"><defs><style>.cls-1{isolation:isolate;}.cls-2{fill:#a6deeb;}.cls-3{fill:#999;opacity:0.46;mix-blend-mode:multiply;}.cls-4{fill:#004bd7;}.cls-5{fill:#ababab;}.cls-6{fill:#b5b5b5;}.cls-7{fill:#70a2ff;}.cls-8{fill:#ff4040;}.cls-9{fill:#8cffed;}.cls-10{fill:#d4c94a;}.cls-11{fill:#c49c45;}</style></defs><g class="cls-1"><g id="Capa_1" data-name="Capa 1"><circle class="cls-2" cx="217.7" cy="217.7" r="215.48"/><path class="cls-3" d="M298.74,348.56l-84.57,84.57C96.81,431.27,2.24,335.5,2.24,217.7c0-3.06,0-6.13.19-9.2L128.62,87.3c-1.1,1.83,55.79,3.17,56.8,4.94l28.85,219.7a4.9,4.9,0,0,0,.81,1.05,5.29,5.29,0,0,0,2.21,1.29,4.74,4.74,0,0,0,3.68-.48l24.14-13.64h0v0l8.77-5v-.05l1.05-.58,28.11,49.76a11.39,11.39,0,0,0,15.51,4.31C298.64,348.61,298.69,348.61,298.74,348.56Z"/><path class="cls-4" d="M110.35,186.38l-2.84-2.52c44-32.15,38.42-83.19,38.4-83.66L160,99.94C160.11,102.07,159.15,157,110.35,186.38Z"/><polygon class="cls-5" points="239.99 108.65 135.78 108.65 135.78 64.04 239.99 74.38 239.99 108.65"/><rect class="cls-4" x="121.47" y="70.67" width="14.31" height="33.27"/><polygon class="cls-6" points="110.35 93.56 121.47 100.22 121.47 74.38 110.35 81.04 110.35 93.56"/><path class="cls-4" d="M232.69,381.15H138.15a16.55,16.55,0,0,1-16.52-16.9c3.63-175.45,63.53-131.94,55.63-255.6H221c0,154.74,26.93,38,28.22,255.86A16.53,16.53,0,0,1,232.69,381.15Z"/><path class="cls-7" d="M218.86,348H152a9.09,9.09,0,0,1-9.08-9.08V294.75a55.65,55.65,0,0,1,55.65-55.65h20.31a9.07,9.07,0,0,1,9.07,9.07v90.76A9.08,9.08,0,0,1,218.86,348Z"/><rect class="cls-8" x="154.62" y="322.39" width="62.27" height="12.81"/><path class="cls-9" d="M219.45,291.18a24.73,24.73,0,1,1-24.73-24.73A24.74,24.74,0,0,1,219.45,291.18Z"/><path class="cls-10" d="M284.12,355.69l-35.05-6.44c-27.36-5-40.13-29.38-31.65-55.31a539,539,0,0,0,21.93-119.38c1.29-27.25,21.88-45.48,49.25-40.45l35,6.43c27.37,5,40.13,29.39,31.65,55.32a539.57,539.57,0,0,0-21.93,119.38C332.08,342.49,311.49,360.72,284.12,355.69Z"/><path class="cls-11" d="M282.35,190.84c-.79,4.32-3.42,7.46-5.87,7s-3.78-4.32-3-8.64,3.42-7.47,5.87-7S283.15,186.51,282.35,190.84Z"/><ellipse class="cls-11" cx="325.86" cy="182.8" rx="10.66" ry="6.04" transform="translate(87.2 470.27) rotate(-79.59)"/><path class="cls-11" d="M308,220.36c-.74,4-3.19,7-5.48,6.55s-3.54-4-2.8-8.07,3.2-7,5.49-6.55S308.71,216.32,308,220.36Z"/><path class="cls-11" d="M298.65,294.39c-.74,4-3.2,7-5.48,6.55s-3.54-4-2.8-8.07,3.2-7,5.49-6.55S299.39,290.35,298.65,294.39Z"/><path class="cls-11" d="M240.2,315c-1,5.62-4.45,9.7-7.63,9.12s-4.93-5.62-3.89-11.24,4.44-9.7,7.63-9.12S241.23,309.33,240.2,315Z"/><path class="cls-11" d="M258.77,294.28c-.71,3.85-3,6.65-5.23,6.25s-3.38-3.85-2.67-7.7,3-6.66,5.23-6.26S259.48,290.42,258.77,294.28Z"/><path class="cls-11" d="M260.87,249c-1.09,6-4.72,10.29-8.09,9.67s-5.23-6-4.13-11.92,4.72-10.29,8.09-9.67S262,243,260.87,249Z"/><path class="cls-11" d="M321,262.43c-.86,4.69-3.72,8.11-6.38,7.62s-4.11-4.7-3.25-9.39,3.72-8.11,6.38-7.62S321.87,257.73,321,262.43Z"/><path class="cls-11" d="M280.81,329.26c-.86,4.7-3.71,8.11-6.37,7.62s-4.12-4.69-3.25-9.39,3.71-8.11,6.37-7.62S281.68,324.56,280.81,329.26Z"/><path class="cls-11" d="M310.1,321.81c-.66,3.61-2.85,6.22-4.89,5.85s-3.16-3.6-2.5-7.2,2.86-6.22,4.89-5.85S310.76,318.21,310.1,321.81Z"/><path class="cls-11" d="M272.1,162.08c-.66,3.6-2.85,6.22-4.89,5.84s-3.16-3.6-2.5-7.2,2.86-6.22,4.89-5.85S272.76,158.47,272.1,162.08Z"/></g></g></svg>