<svg xmlns="http://www.w3.org/2000/svg" viewBox="0 0 435.4 435.4"><defs><style>.cls-1{isolation:isolate;}.cls-2{fill:#00a0c6;}.cls-3{fill:#fecf48;}.cls-4{fill:#efdde6;opacity:0.48;}.cls-4,.cls-6{mix-blend-mode:multiply;}.cls-5{fill:#ffffb5;opacity:0.54;}.cls-6{fill:#999;opacity:0.46;}</style></defs><g class="cls-1"><g id="Capa_1" data-name="Capa 1"><circle class="cls-2" cx="217.7" cy="217.7" r="215.48"/><path class="cls-3" d="M276.14,174.82c55.59,75.77,74.49,156.39,42.22,180.06s-103.5-18.53-159.1-94.3S84.77,104.19,117,80.51,220.55,99.05,276.14,174.82Z"/><path class="cls-4" d="M263.28,184.29c-1.68,14.82-14.51,33.55-34.64,48.32s-41.92,21.45-56.49,18.54Z"/><path class="cls-5" d="M263.28,184.29l-91.13,66.86c1.6-14.76,14.48-33.6,34.61-48.37S248.71,181.38,263.28,184.29Z"/><path class="cls-4" d="M228.53,149.56c-1.44,12.89-12.6,29.18-30,42s-36.35,18.57-49.05,16.05Z"/><path class="cls-4" d="M286.92,229.13c-1.45,12.89-12.6,29.18-30,42s-36.36,18.57-49,16.06Z"/><path class="cls-5" d="M228.53,149.56l-79.08,58c1.4-12.79,12.6-29.17,30-42S215.87,147.09,228.53,149.56Z"/><path class="cls-5" d="M286.93,229.16l-79.08,58c1.41-12.79,12.6-29.18,30-42S274.27,226.68,286.93,229.16Z"/><path class="cls-4" d="M195.05,120.62c-1.16,10.3-10,23.28-24,33.51S142,169,131.9,167Z"/><path class="cls-4" d="M305.52,271.17c-1.16,10.3-10,23.28-24,33.51s-29,14.84-39.16,12.83Z"/><path class="cls-5" d="M195.05,120.62,131.9,167c1.1-10.21,10-23.28,24-33.51S184.94,118.65,195.05,120.62Z"/><path class="cls-5" d="M305.52,271.17l-63.16,46.34c1.12-10.2,10-23.27,24-33.51S295.41,269.2,305.52,271.17Z"/><path class="cls-6" d="M318.37,354.89l-77,77a214.65,214.65,0,0,1-23.65,1.29c-119,0-215.48-96.48-215.48-215.47a225.21,225.21,0,0,1,1.2-22.94L108.78,89.47c-19.73,31.07.58,103,50.52,171.09C214.89,336.36,286.09,378.54,318.37,354.89Z"/></g></g></svg>