<svg xmlns="http://www.w3.org/2000/svg" viewBox="0 0 435.4 435.4"><defs><style>.cls-1{isolation:isolate;}.cls-2{fill:#ffeb4f;}.cls-3{fill:#999;opacity:0.46;}.cls-11,.cls-12,.cls-15,.cls-16,.cls-19,.cls-3,.cls-6,.cls-7,.cls-8{mix-blend-mode:multiply;}.cls-4{fill:#c7c7c7;}.cls-5{fill:#87e0da;}.cls-6,.cls-8{fill:#69cdd1;}.cls-19,.cls-6,.cls-7{opacity:0.32;}.cls-7{fill:#2fbabf;}.cls-8{opacity:0.12;}.cls-16,.cls-9{fill:#b0b0ad;}.cls-10{fill:#85c9f0;}.cls-11{fill:#52a6c6;}.cls-11,.cls-16{opacity:0.65;}.cls-12,.cls-13{fill:#69bee0;opacity:0.55;}.cls-13,.cls-21{mix-blend-mode:screen;}.cls-14{fill:#d2d2d0;}.cls-15{fill:#b8b8b5;opacity:0.85;}.cls-17{fill:#e6e6e5;}.cls-18,.cls-21{fill:#5a5a5a;}.cls-19{fill:#7e7e7e;}.cls-20{fill:#464646;}.cls-21{opacity:0.45;}</style></defs><g class="cls-1"><g id="Capa_1" data-name="Capa 1"><circle class="cls-2" cx="219.92" cy="217.7" r="215.48"/><path class="cls-3" d="M319.88,331.41l-47.7,38.53-76.57,61.85C96.06,420.63,17,341.58,5.8,242l228.94-65.28"/><path class="cls-3" d="M227.17,375.24c.63-.05,1.15-.1,1.77-.19"/><path class="cls-4" d="M141.21,217.4l-2.56-5.64c-1.3-2.87-31.84-70.68-20-99.13,2.32-5.58,6.12-9.39,11.3-11.32,10.43-3.89,18.39-2.31,23.34,4.43,14,19-.38,74.43-10.19,105.75Zm-1.05-113.46a25.08,25.08,0,0,0-8.58,1.8c-4,1.48-6.77,4.32-8.59,8.71-9.12,22,10.27,72.3,17.45,89.48,14.65-48.63,17.95-83.22,9-95.39A10.81,10.81,0,0,0,140.16,103.94Z"/><path class="cls-5" d="M159.08,243.1c-3.64-.37-7.33-.89-10.75-3.39-5.55-4.06-5.75-10.22-6.64-16.57-1.59-11.38-3.26-24.4-14.19-31-15.57-9.38-34.67-2.94-49.12,5C61.79,206.32,56.66,235.31,75,245.5a87.23,87.23,0,0,0,29.11,9.29c8.35,1.13,16.68-1.86,24.44-4.44,6-2,11.74-4.82,17.8-6.44,4-1.06,9-1.26,12.43-2.8Z"/><path class="cls-6" d="M127.26,249.27c0-.35.07-1,.07-1.1,0-.41,0-.81,0-1.22-8.6-9.66-20.09-16.48-27.72-27.77-4.4-6.51-4.17-14.73-5.21-22.13a38,38,0,0,0-1.55-6.37c-2.33.8-4.61,1.72-6.83,2.71.47,2.56.76,5.24,1.06,7.68,2.52,20.66,12.38,37,23.68,53.83,5.49-.49,10.89-2.24,16.08-4A14.17,14.17,0,0,0,127.26,249.27Z"/><path class="cls-7" d="M158.81,241.11a21.18,21.18,0,0,1-4.39,1.28,39.47,39.47,0,0,0,4.66.71Z"/><path class="cls-6" d="M148.33,239.71c-5.55-4.06-5.75-10.22-6.64-16.57-1.42-10.12-2.91-21.53-10.91-28.56a43.36,43.36,0,0,0-9.27,12.57c-4.52,8.9-9.3,16.2-19.14,19.66-12.65,4.46-25.63,2.93-38.64,1.91A22.39,22.39,0,0,0,75,245.5a87.23,87.23,0,0,0,29.11,9.29c8.35,1.13,16.68-1.86,24.44-4.44,6-2,11.74-4.82,17.8-6.44,2.47-.66,5.38-1,8-1.52A16.23,16.23,0,0,1,148.33,239.71Z"/><path class="cls-5" d="M199.79,197.48c-1.92-18-27.28-24.21-41.58-18.91-7.2,2.67-9.41,7-11.41,14-2.19,7.74-5.51,10.07-11.68,14.77-12.3,9.37-3.72,31.6,8.41,37.6,8.6,4.26,16,1,21.91-4.6,2.19-.1,8.15.25,10.31-.83,6.78-3.35,5.59-8.55,5.22-14.8C180,208.83,201.63,214.69,199.79,197.48Z"/><path class="cls-6" d="M199.33,195a51.4,51.4,0,0,0-28.88,10.71c-5.9,4.45-14.44,10.76-22.26,7.08-4-1.9-6.52-5.27-8.09-9.3-1.42,1.24-3.06,2.47-5,3.93-12.3,9.37-3.72,31.6,8.41,37.6,8.6,4.26,16,1,21.91-4.6,2.19-.1,8.15.25,10.31-.83,6.78-3.35,5.59-8.55,5.22-14.8-.94-15.91,20.66-10.05,18.82-27.26A18.83,18.83,0,0,0,199.33,195Z"/><path class="cls-5" d="M131.09,235.47c-1.67,0-3.61,1.59-5.29,2.44A28.69,28.69,0,0,1,115,240.8a113.35,113.35,0,0,1-23.65-.24c-12.33-1.37-29.42-3.7-39.26,6-4.61,4.54-5.82,14.58-3.11,20.35,3.4,7.25,10.8,11.1,17.7,14.43,16,7.71,32.69,2.65,48.79-1.77,11.5-3.16,25-7.68,27.39-20.95,1.29-7.13-.63-16.64-4.89-22.42-.2-2.95-7.49-2-9.14-.06C129.15,236.15,130.73,235.45,131.09,235.47Z"/><path class="cls-6" d="M68.1,276.19c4.28-6.11,9.94-9.43,16.16-13.35,6.38-4,13.6-13.72,10.81-21.95-1.25-.1-2.51-.19-3.76-.33-2.78-.31-5.8-.66-8.93-.92-3.43,9.93-7,19.06-15.62,26.46A66.78,66.78,0,0,1,55,274.4a53.28,53.28,0,0,0,10.46,6.35A34.59,34.59,0,0,1,68.1,276.19Z"/><path class="cls-8" d="M137.93,236.2c-.2-2.95-7.49-2-9.14-.06l.11,0c-1.05.54-2.12,1.3-3.1,1.79A28.69,28.69,0,0,1,115,240.8a108.46,108.46,0,0,1-12.76.46c2.27,8.09,5.93,16.13,3,24.83A82.8,82.8,0,0,1,96,284.29c6.53-1.11,13-3,19.45-4.72,11.5-3.16,25-7.68,27.39-20.95C144.11,251.49,142.19,242,137.93,236.2Z"/><path class="cls-5" d="M120.84,268.56c-3-.27-6,1.49-8.9,2.22-6.33,1.62-12.42,2.89-18.37,5.71-8.39,4-18.19,6.25-26,11.25-5.32,3.42-8.67,10.67-6.65,16.79,1.53,4.6,5.78,7,9.32,9.86s5.6,6.77,8.41,10.49c7.22,9.54,21,13,32.6,11.89,5.52-.52,11.07-1.41,14.13-6.38a29.26,29.26,0,0,0,4-13.39c.28-8.53-8.24-15.51-5.68-24.17,2.08-7,9.14-8.86,5.84-17.32C128.29,272.34,124.31,264.25,120.84,268.56Z"/><path class="cls-6" d="M79.9,326.23c7-7.84,11.09-20.42,22.26-23.33,7-1.82,14.18-2.85,21.33-4.07a12.26,12.26,0,0,1,.19-6c.87-2.93,2.6-5,4.09-6.94a51,51,0,0,1-7.56,4.68A75.13,75.13,0,0,1,104.06,297c-6.73,1.67-13.74.13-18.73,6.23a86.8,86.8,0,0,1-13.1,13c2.46,2.61,4.19,5.62,6.44,8.6C79,325.36,79.5,325.77,79.9,326.23Z"/><path class="cls-6" d="M103.42,293.9c-2.44,10.71-3,20,4.41,29.14a48,48,0,0,0,13.48,11.26,11.05,11.05,0,0,0,4.09-3.91,29.26,29.26,0,0,0,4-13.39c.28-8.53-8.24-15.51-5.68-24.17,2.08-7,9.14-8.86,5.84-17.32-1.23-3.17-5.21-11.26-8.68-6.95-3-.27-6,1.49-8.9,2.22-5.25,1.35-10.34,2.46-15.31,4.41C102.07,279.45,105.43,285.07,103.42,293.9Z"/><path class="cls-5" d="M192.56,315.14c-1.69-3.43-3.48-5.28-4.2-9.22-.6-3.27-.89-6.58-1.76-9.78-2-7.58-6.22-9.87-12.21-14.2-.86-.62-1.65-1.3-2.45-1.94l1,.37c-8.55-12-34.38-5.87-46.09-2.5-5.91,1.71-14.47,2.92-17.09,9.32s.11,19.28,3.93,24.78c4.81,6.92,15.23,8.47,19.54,15.47,3.76,6.1,3,12.35,11,15.13,6.48,2.25,15.6,3.36,22.43,3.42a25.86,25.86,0,0,0,21-10.16C191.77,330.27,195.9,322,192.56,315.14Z"/><path class="cls-6" d="M111.94,290.35c5.22,3,8.53,6.93,13,10.74,9.89,8.34,22.13-2.75,33.14.79,10.58,3.41,11.17,13.5,18.21,20.6,3.93,3.95,8.53,7.48,12.66,11.4,3.59-5.45,6.53-12.68,3.56-18.74-1.69-3.43-3.48-5.28-4.2-9.22-.6-3.27-.89-6.58-1.76-9.78-2-7.58-6.22-9.87-12.21-14.2-.86-.62-1.65-1.3-2.45-1.94l1,.37c-8.55-12-34.38-5.87-46.09-2.5-5.91,1.71-14.47,2.92-17.09,9.32a11.19,11.19,0,0,0-.53,1.75C110.13,289.39,111.05,289.85,111.94,290.35Z"/><path class="cls-5" d="M244.92,229c-2.56-13.39-13.58-30.82-28.32-26.92-5,1.32-9.4,3.37-14.57,4.45a131.51,131.51,0,0,0-21.36,6.31c-7.52,3-7.21,7.87-6.45,15.12.69,6.51,4.33,9,9.2,13,8.17,6.81,10.76,20.26,23.18,20.07C217.15,260.86,253.6,274.44,244.92,229Z"/><path class="cls-6" d="M219.13,235.61c-1.14-14.43-12.5-20.35-22.8-27.8a124.54,124.54,0,0,0-15.66,5c-7.52,3-7.21,7.87-6.45,15.12.69,6.51,4.33,9,9.2,13,8.17,6.81,10.76,20.26,23.18,20.07,2.58,0,6.72.75,11.36,1.29C218,253.44,219.81,244.24,219.13,235.61Z"/><path class="cls-5" d="M206.62,255.5c-18.31-1-29.43,13.45-32.31,30.44-2,11.9,2.75,21,11.26,29.45s16.89,15.16,29.06,16.49c11.61,1.26,22.79-2.55,20.65-16.56-.9-5.93-4.08-10-.53-15.73s10.17-6.91,14.93-11.13,8.39-11.68,3.32-17.25c-2.29-2.5-6.12-3.36-9.22-4.36a26.11,26.11,0,0,1-10.61-6.08c-6.46-5.76-10.65-7.94-19-5.5-1.69.49-3.81,1.34-5.6,1.14C206.39,256.18,209.1,255.63,206.62,255.5Z"/><path class="cls-6" d="M233.17,260.77c-6.46-5.76-10.65-7.94-19-5.5-1.69.49-3.81,1.34-5.6,1.14-2.15-.23.56-.78-1.92-.91-11.38-.63-20,4.72-25.57,13A34.86,34.86,0,0,0,179,272c-.15.27-.28.54-.42.82-.61,1.22-1.18,2.46-1.71,3.83s-.93,2.67-1.32,4.05l-.27,1c-.35,1.38-.68,2.79-.92,4.22a31,31,0,0,0-.41,4.09l0,.58A27.18,27.18,0,0,0,174,294c0,.37.07.73.12,1.09.14.94.33,1.87.56,2.78.13.52.27,1,.43,1.55.22.69.47,1.38.74,2.06a4.62,4.62,0,0,0,.41,1c.18.41.36.82.56,1.23,3.91-.16,7.86-.34,11.73-.76,7.17-.79,14.37-1,21-4.33,3-1.49,7.25-8.27,5-17.84-2.72-15.93,14.06-12.54,18.86-19.7C233.4,261,233.29,260.88,233.17,260.77Z"/><path class="cls-5" d="M154,220.64a62.42,62.42,0,0,0-22.66,3.78c-5,1.86-11.09,5.84-10.53,12,.72,7.88,7.78,13.18,4.93,21.72-2.07,6.17-6.93,10.51-7.78,17.32-1.08,8.6,5.72,13.67,13.21,16.45,10.26,3.81,14.93-1.89,24.3-4.39,8.39-2.23,16.5-1.11,24.85.64,6,1.25,13.45,2.84,18.85-1.11,5.07-3.71,3.27-10.27,1.93-15.33-1.49-5.62-1.57-9.47,1.37-14.83,2.83-5.17,7.39-8.95,8.45-15A14.5,14.5,0,0,0,206.58,229c-3.78-3.43-9.31-2.33-13.53-5.15C174.49,211.45,162.86,220.77,154,220.64Z"/><path class="cls-6" d="M164.19,269.26c1-9.12,7.74-15.18,10.38-23.68,1.67-5.35,3.2-11.71,1.18-17.21-1.56-4.21-4.23-7.29-7.08-10.56-5.77.89-10.51,2.89-14.64,2.83-1,0-2,0-2.94,0a39.62,39.62,0,0,1,5.86,6.21c4.1,5.71,6.36,13.32,4.8,20.35-1.86,8.43-10.2,16.53-9.32,25.28.54,5.36,2.72,10.05,5.38,14.53a40.27,40.27,0,0,1,9.19-.68C165.26,280.75,163.56,275.14,164.19,269.26Z"/><rect class="cls-9" x="224.5" y="117.99" width="36.44" height="47.89"/><path class="cls-10" d="M269.79,156H215.66s-63.54,23.66-64.16,88.13,32.08,97.6,32.08,97.6S207.65,351,242.72,351s59.15-9.23,59.15-9.23,32.7-33.13,32.08-97.6S269.79,156,269.79,156Z"/><path class="cls-11" d="M301.86,284.85c-26.12,7.84-52.29,4.64-77.71-4.5-29.08-10.45-48.58-28.9-62.26-55.39a82.14,82.14,0,0,0-3.26,22.42c-.58,59.38,29.54,89.88,29.54,89.88s22.17,8.51,54.47,8.51,54.47-8.51,54.47-8.51,20.95-21.25,27.56-62.77A90.52,90.52,0,0,1,301.86,284.85Z"/><path class="cls-12" d="M194.27,248.53a185.06,185.06,0,0,1,10.42-57.83c2.32-6.67,4.61-13.4,7.52-19.79-1.87-.52-3.77-1.1-5.67-1.81-18.2,13.14-40.48,37-40.85,75-.42,43.89,14.6,73.24,24.23,87.51a136.77,136.77,0,0,0,20.7,4.88C196.21,295.48,193.86,266.43,194.27,248.53Z"/><path class="cls-13" d="M277.35,169.1a72.9,72.9,0,0,1-9.14,2.7c.14.24.3.47.44.72,3.29,6.13,6,12.55,8.89,18.88,7.38,16.24,10.85,35.73,10.46,53.55a277.73,277.73,0,0,1-18.09,92.11c8.79-1.39,17.79-3.21,24.06-5.43,9.64-14.27,24.66-43.62,24.23-87.51C317.83,206.06,295.55,182.24,277.35,169.1Z"/><rect class="cls-14" x="215.76" y="147.74" width="53.61" height="8.25"/><rect class="cls-14" x="215.76" y="113.13" width="53.61" height="30.12"/><rect class="cls-9" x="217.84" y="115.25" width="3.88" height="25.89"/><rect class="cls-9" x="224.35" y="115.25" width="3.88" height="25.89"/><rect class="cls-9" x="230.86" y="115.25" width="3.88" height="25.89"/><rect class="cls-9" x="237.38" y="115.25" width="3.88" height="25.89"/><rect class="cls-9" x="243.89" y="115.25" width="3.88" height="25.89"/><rect class="cls-9" x="250.4" y="115.25" width="3.88" height="25.89"/><rect class="cls-9" x="256.91" y="115.25" width="3.88" height="25.89"/><rect class="cls-9" x="263.43" y="115.25" width="3.88" height="25.89"/><path class="cls-15" d="M217.23,119.12v22.81H267.9v-6.55C249.88,139.12,227.21,133.38,217.23,119.12Z"/><rect class="cls-9" x="231.52" y="76.87" width="22.11" height="26.89"/><path class="cls-16" d="M253.06,89.14l.56-.18V76.87h-22.1V89C238.45,90.38,245.5,91.48,253.06,89.14Z"/><path class="cls-14" d="M267,107.15c-2.91-3.86-24-5.35-24.42-5.38h0c-.46,0-21.51,1.52-24.42,5.38s-2.38,6-2.38,6h53.64S270,111.05,267,107.15Z"/><path class="cls-9" d="M216.26,110.35a5.06,5.06,0,0,0-.51,2.78h53.64a5.09,5.09,0,0,0-.5-2.78Z"/><path class="cls-14" d="M265.6,66.35a.62.62,0,0,0-.79-.34c-3.07,1.12-18.2,6.34-28.78,4.09-11-2.32-47.95,1.51-53.32,2.08a.63.63,0,0,0-.55.73l1.23,7.66a.62.62,0,0,0,.74.52c4.06-.79,26.6-4.94,38.81-1.84,13.22,3.35,36,1.67,45.95-3.85a.63.63,0,0,0,.26-.8Z"/><path class="cls-17" d="M247.83,70.24A36.35,36.35,0,0,1,236,70.1c-3.86-.82-10.94-.87-18.72-.58-1.41,2.87-2.81,5.74-4.17,8.62a44.42,44.42,0,0,1,9.8,1.11A69.74,69.74,0,0,0,239.76,81C242.46,77.41,245.22,73.85,247.83,70.24Z"/><path class="cls-13" d="M271.44,190.08a7.28,7.28,0,1,1-7.26-6.85A7.07,7.07,0,0,1,271.44,190.08Z"/><path class="cls-18" d="M340.92,227.64a2.68,2.68,0,0,1-2.69-2.69v0a2.69,2.69,0,0,1,2.69-2.7h42.33v-3.95H340.92a2.69,2.69,0,0,1-2.69-2.69v-.06a2.69,2.69,0,0,1,2.69-2.69h42.33v-3.95H340.92a2.69,2.69,0,0,1-2.69-2.69v-.06a2.69,2.69,0,0,1,2.69-2.69h42.33v-3.95H340.92a2.69,2.69,0,0,1-2.69-2.69v-.06a2.68,2.68,0,0,1,2.69-2.69h42.33v-3.95H340.92a2.69,2.69,0,0,1-2.69-2.7v0a2.68,2.68,0,0,1,2.69-2.69h42.33v-4H340.92a2.68,2.68,0,0,1-2.69-2.69v-.05a2.68,2.68,0,0,1,2.69-2.69h42.33v-4H340.92a2.68,2.68,0,0,1-2.69-2.69v0a2.69,2.69,0,0,1,2.69-2.7h42.33V161.9H340.92a2.68,2.68,0,0,1-2.69-2.69v-.06a2.69,2.69,0,0,1,2.69-2.69h42.33v-4H340.92a2.69,2.69,0,0,1-2.69-2.69v-.06a2.69,2.69,0,0,1,2.69-2.69h42.33v-3.95H340.92a2.69,2.69,0,0,1-2.69-2.69v-.06a2.68,2.68,0,0,1,2.69-2.69h42.33v-4H340.92a2.69,2.69,0,0,1-2.69-2.7V131a2.68,2.68,0,0,1,2.69-2.69h42.33v-4H340.92a2.68,2.68,0,0,1-2.69-2.69v0a2.68,2.68,0,0,1,2.69-2.69h42.33v-4H340.92a2.68,2.68,0,0,1-2.69-2.69v0a2.68,2.68,0,0,1,2.69-2.69h42.33v-4.45S321,89.24,309.6,99.12s-4.45,69.7-6.43,119.62-25.2,121.6,6.92,130.5,35-14.34,28.14-37.07S312.57,236,359.52,235.55c0,0,19.78-.49,23.73-4v-4Z"/><path class="cls-19" d="M328.15,282.73A32.36,32.36,0,0,1,311,272.11a63.76,63.76,0,0,1-8.92-13.31c-5.11,38.78-12.57,79.34,9,85.57,27.59,8,30.07-12.84,24.16-33.21C333.19,304,329.85,293.43,328.15,282.73Z"/><path class="cls-20" d="M315.56,349.24c-32.13-8.9-8.9-80.57-6.92-130.5S303.69,109,315.06,99.12c2.36-2.05,6.94-3,12.67-3.19-8.26-.26-15.06.53-18.13,3.19-11.37,9.89-4.45,69.7-6.43,119.62s-25.2,121.6,6.92,130.5c6.1,1.68,11.13,2.21,15.25,1.81A52.57,52.57,0,0,1,315.56,349.24Z"/><path class="cls-21" d="M324.08,229.13H324c-2.28,0-4.12-2.59-4.12-5.79V113.17c0-3.2,1.84-5.79,4.12-5.79h.08c2.28,0,4.12,2.59,4.12,5.79V223.34C328.2,226.54,326.36,229.13,324.08,229.13Z"/></g></g></svg>