<svg xmlns="http://www.w3.org/2000/svg" viewBox="0 0 435.4 435.4"><defs><style>.cls-1{isolation:isolate;}.cls-2{fill:#a6deeb;}.cls-3{fill:#999;opacity:0.46;mix-blend-mode:multiply;}.cls-4{fill:#35c9bc;}.cls-5{fill:none;}.cls-6{fill:#fff;}</style></defs><g class="cls-1"><g id="Capa_1" data-name="Capa 1"><circle class="cls-2" cx="218.62" cy="217.87" r="215.48"/><path class="cls-3" d="M294.77,319.15,183.44,430.48A215.7,215.7,0,0,1,10.92,275.24L118,168.13a64.14,64.14,0,0,0-10.54,14.65v-.1c-.29.58-.62,1.15-.86,1.72s-.48.92-.72,1.39c-.57,1.25-1.15,2.54-1.67,3.88a42,42,0,0,0-1.63,4.41.16.16,0,0,0,0,.14,37.15,37.15,0,0,0-1.44,4.74c-.48,1.49-.81,3-1.15,4.6a2.35,2.35,0,0,0-.09.53c-.39,1.67-.72,3.4-1,5.17a104,104,0,0,0-1.25,11.44,107.4,107.4,0,0,0,2.21,28.87c0,.05,0,.05,0,.1.67,3.07,1.43,6,2.39,9a105.91,105.91,0,0,0,18.63,34.48c1.19,1.53,2.49,3.06,3.83,4.55,20.64,23.27,50.56,38.59,80.92,43.91q2.86.5,5.75.86a132.25,132.25,0,0,0,26.76.86,79.31,79.31,0,0,0,8.38-1.15c1.92-.33,3.83-.77,5.7-1.15,1.44-.33,2.83-.72,4.21-1.15a28.45,28.45,0,0,0,3.4-1.05,12.12,12.12,0,0,0,1.54-.53,26,26,0,0,0,3.2-1.15l.77-.28q4.1-1.59,8-3.59a34.31,34.31,0,0,0,3.84-2,104.24,104.24,0,0,0,11.68-7.48C290.94,322.31,292.9,320.78,294.77,319.15Z"/><path class="cls-4" d="M375.55,221a147.86,147.86,0,0,1-10.66,21.88c-1.53,2.63-3.23,5.47-5.13,8.46-13.53,21.23-37.13,51.21-77.44,86.26l-55.19,48-55.17-48c-36.79-32-59.65-59.73-73.62-80.47-2-3-3.84-5.81-5.5-8.48C84.6,235.33,80.5,225.79,78.72,221a84.1,84.1,0,0,1,148.41-76.57A84.11,84.11,0,0,1,375.55,221Z"/><path class="cls-5" d="M367.61,218.07a141.49,141.49,0,0,1-10.05,20.59c-1.8,3.08-3.37,5.66-5,8.17-12,18.89-35,48.87-75.85,84.41l-49.61,43.15-49.62-43.15c-30.51-26.51-54.79-53-72.16-78.82-1.9-2.82-3.69-5.57-5.3-8.18-7.93-12.85-11.81-21.93-13.4-26.17A75.62,75.62,0,0,1,220.1,149.23l7,10.36,7-10.36a75.62,75.62,0,0,1,133.45,68.84Z"/><path class="cls-6" d="M326.12,112.88a84.17,84.17,0,0,0-99,31.6A84.1,84.1,0,0,0,78.73,221c1.78,4.75,5.88,14.29,14.12,27.65h0c1.66,2.67,3.48,5.49,5.5,8.48h0c14,20.74,36.83,48.5,73.61,80.47l55.18,48,55.19-48c40.31-35.05,63.91-65,77.44-86.25,1.9-3,3.6-5.84,5.13-8.47A147.86,147.86,0,0,0,375.56,221,84.09,84.09,0,0,0,326.12,112.88ZM276.75,331.24l-49.61,43.15-49.62-43.15c-28.64-24.88-51.79-49.78-68.88-74.07H233.32L248,200.9l19.76,122.62,24.15-98.68,11.62,57.4,12.09-31,34.06.09C336.94,270.34,314.52,298.41,276.75,331.24Zm90.86-113.17a141.49,141.49,0,0,1-10.05,20.59c-.89,1.52-1.72,2.91-2.52,4.23l-45.24-.14-3.73,9.52L292.63,186l-23.2,94.85L249.88,159.66l-23.11,89H102.89c-1-1.52-1.94-3-2.83-4.45-7.93-12.85-11.81-21.93-13.4-26.17A75.62,75.62,0,0,1,220.1,149.23l7,10.36,7-10.36a75.62,75.62,0,0,1,133.45,68.84Z"/></g></g></svg>