<svg id="Layer_1" data-name="Layer 1" xmlns="http://www.w3.org/2000/svg" viewBox="0 0 2540 3486"><defs><style>.cls-1{opacity:0.2;}.cls-2{fill:#000072;}.cls-3{fill:#398ab9;}.cls-4{opacity:0.6;}.cls-5{fill:#fff;}.cls-6{fill:#fd6ccb;}.cls-7{fill:#d8d2cb;}.cls-8{fill:#102770;}.cls-9{fill:#e555b9;}.cls-10{fill:#f2b6c2;}.cls-11{fill:#c9e9ff;}.cls-12{fill:#fffefb;}.cls-13{fill:#f883a0;}.cls-14{fill:#fdd800;}</style></defs><g class="cls-1"><ellipse class="cls-2" cx="1190.5" cy="3313.85" rx="702.5" ry="95.09"/></g><path class="cls-3" d="M2129,3240.1h0C2019.8,3201.24,1987,3122,1986.71,3039.9c-.35-91.31,39.35-186.26,58.85-233.54,24.15-58.65,81.45-349.68-96.65-339.25-101.69,6-201.75,117-246.46,173.68-4.17-19.63-9.12-39.09-14.71-58.24-2-6.78-4-13.52-6.16-20.23,27.14-66.14,82.48-161.89,184.3-202.49,163-65,337.58,4.73,323.38,278.61-2.73,53.06-12.82,102.69-23.77,150.19C2151,2852,2135,2911.52,2133,2970.33c-2.12,63.63,12.14,126.39,62.31,192.14C2225.55,3202.08,2189.26,3231.37,2129,3240.1Z"/><path class="cls-2" d="M2129,3242.61h0a2.4,2.4,0,0,1-.84-.15c-95.11-33.86-143.52-102-143.92-202.55-.35-90.55,37.75-182.9,58.21-232.51l.83-2c15.54-37.76,55.83-214.34-2.36-296-20.54-28.81-51.44-42.17-91.84-39.84-102.6,6-205.26,122.8-244.64,172.72a2.53,2.53,0,0,1-2.52.89,2.5,2.5,0,0,1-1.88-1.91c-4.07-19.13-9-38.66-14.67-58.06-2-6.76-4-13.49-6.15-20.18a2.54,2.54,0,0,1,.07-1.7c29.06-70.81,84.86-163.65,185.69-203.86,87-34.69,171.62-29.7,232.18,13.69,47.72,34.17,102.87,108.3,94.62,267.37-2.75,53.47-13.07,104-23.82,150.62-2.1,9.17-4.24,18.26-6.35,27.28-12.53,53.43-24.37,103.9-26.06,153.94-2.39,71.62,17.25,132.17,61.8,190.54,11,14.37,14.06,28.59,8.95,41.1-8.1,19.84-36.13,34.61-76.9,40.53A2.31,2.31,0,0,1,2129,3242.61Zm0-2.5h0Zm-170.94-775.77c37.71,0,66.91,14.17,86.9,42.21,59.38,83.28,18.67,262.48,2.91,300.76l-.82,2c-20.34,49.29-58.19,141-57.84,230.58.39,98,47.49,164.51,140,197.66,38.1-5.63,65.15-19.59,72.41-37.39,4.46-10.94,1.67-23.11-8.3-36.17-45.28-59.35-65.24-120.91-62.82-193.74,1.71-50.55,13.6-101.25,26.19-154.92q3.16-13.51,6.34-27.25c10.71-46.42,21-96.69,23.71-149.77,8.13-156.81-45.83-229.6-92.54-263-59.16-42.38-142.06-47.15-227.41-13.1-98.82,39.4-153.79,130.47-182.58,200.27,2,6.45,4,12.92,5.92,19.43,5.18,17.76,9.76,35.64,13.63,53.23,50.4-63.08,146.31-164.67,245-170.47C1951.91,2464.43,1955,2464.34,1958.06,2464.34Z"/><g class="cls-4"><path class="cls-5" d="M2189.26,2633.44c-2.73,53.06-12.82,102.69-23.77,150.19-62.79-82.83,4-197.82-36.52-297.75-24-59.29-106.42-113.87-221.31-96.17-94.88,14.58-190.4,148.62-219.92,187.84-2-6.78-4-13.52-6.16-20.23,27.14-66.14,82.48-161.89,184.3-202.49C2028.89,2289.82,2203.46,2359.56,2189.26,2633.44Z"/></g><path class="cls-2" d="M2129,3255.11a15,15,0,0,1-1.77-29.91c32.77-4.8,57.4-16.46,62.83-29.75,2.67-6.54.43-14.58-6.67-23.87-94.18-123.38-67.28-237.93-38.8-359.21,13-55.47,26.49-112.83,29.69-174.7,6.19-119.66-24-206.89-87.36-252.26-55.63-39.83-134.17-44.08-215.5-11.63-92.78,37-145.58,122.26-173.91,189.25,7.81,25.07,14.4,50.15,19.59,74.63a15,15,0,0,1-29.34,6.24c-5.36-25.24-12.25-51.15-20.49-77a15,15,0,0,1,.41-10.25c30-73,87.77-168.91,192.62-210.71,91-36.3,180-30.8,244.09,15.11,50.26,36,108.37,113.48,99.85,278.21-3.34,64.55-17.12,123.24-30.45,180-28,119.15-52.13,222,33.45,334.15,17.44,22.85,15.39,41.66,10.59,53.42-10,24.41-40.74,41.51-86.68,48.16A15.56,15.56,0,0,1,2129,3255.11Z"/><path class="cls-6" d="M2129,3240.1c-58.65,8.52-140-2.47-204.83-42.39l0,0c-53.25-63.75-53-144-35.36-224.22,32.7-149.36,125.39-298.46,43.84-340.15-73.71-37.64-167.34,36.26-216.2,84.44q-3.32-21.39-7.48-42a.54.54,0,0,0,0-.25c-1.87-11.63,18.85-48.11,16.44-59.6,44.71-56.7,121.9-142.82,223.59-148.8,178.1-10.43,120.8,280.6,96.65,339.25-19.5,47.28-59.2,142.23-58.85,233.54C1987,3122,2019.8,3201.24,2129,3240.1Z"/><path class="cls-2" d="M2090.68,3245.18c-49.57,0-113-11.58-167.85-45.34a2.61,2.61,0,0,1-.59-.51c-46.27-55.4-57.68-127.32-35.94-226.42,10-45.53,25.21-90.19,40-133.37,32.21-94.43,60-176,5.2-204-76.2-38.91-174.55,45.78-213.3,84a2.49,2.49,0,0,1-2.54.59,2.52,2.52,0,0,1-1.69-2c-2.17-14-4.68-28.05-7.46-41.87a2.06,2.06,0,0,1,0-.26.44.44,0,0,1,0-.1c-1-6.37,3.51-18.07,8.3-30.46,4.33-11.2,9.24-23.89,8.16-29a2.51,2.51,0,0,1,.49-2.06c48.45-61.45,124.54-143.81,225.4-149.74,42.27-2.48,74.6,11.63,96.2,41.93,59.38,83.28,18.67,262.48,2.91,300.76l-.82,2c-20.34,49.29-58.19,141-57.84,230.58.39,98.21,47.69,164.78,140.6,197.86a2.5,2.5,0,0,1-.48,4.83A272.31,272.31,0,0,1,2090.68,3245.18Zm-164.88-49.39c64.87,39.8,141.89,48.14,192.72,43.07-88.76-35-133.93-101.85-134.31-199-.35-90.55,37.75-182.9,58.21-232.51l.83-2c15.54-37.76,55.83-214.34-2.36-296-20.54-28.81-51.44-42.17-91.84-39.84-98.39,5.78-173.21,86.41-221.11,147,.64,6.8-3.84,18.39-8.57,30.62-4.14,10.7-8.83,22.84-8,27.87h0a4.25,4.25,0,0,1,.07.66c2.44,11.87,4.69,24.35,6.7,36.8,41.68-40.32,138.73-120.74,215.62-81.5,58.69,30,30.22,113.46-2.75,210.08-14.7,43-29.89,87.57-39.79,132.83C1869.84,3071.27,1880.84,3141.77,1925.8,3195.79Z"/><path class="cls-2" d="M2090.63,3255.24c-51.18,0-116.63-12.15-173.05-46.88a12.46,12.46,0,0,1-2.86-2.41c-88.09-105.48-38.11-251.92,2-369.57,35.52-104.07,55-169,10.14-192-70.41-35.94-164.53,45.52-201.73,82.22a12.5,12.5,0,0,1-21.13-7c-2.1-13.45-4.59-27.4-7.39-41.45-.05-.25-.1-.5-.13-.75h0c-1.26-7.93,1.12-19.06,3.88-31.94,1.64-7.67,4.4-20.53,3.75-24.11a13.18,13.18,0,0,1,2.42-10.29c26.23-33.24,163.72-197.11,295.23-158.19,35.53,10.54,61.65,32.81,77.62,66.2,43.16,90.26-1.48,241.38-22.32,292l-.87,2.11c-25.64,62.18-85.66,207.78-40.81,313,19.07,44.72,55.75,78,109,98.87h0a14.89,14.89,0,0,1-3.87,28.67A287.7,287.7,0,0,1,2090.63,3255.24Zm24.64-6.92,0,0Zm-182.84-60.18c46.86,28.32,100.3,39.94,144.71,41.84-39.49-23.09-67.9-54.58-84.71-94-49-114.82,13.86-267.22,40.69-332.3l.87-2.1c18.34-44.55,61.92-190.06,22.89-271.7-13-27.11-33.31-44.45-62.17-53-112.73-33.45-240.43,115-265.49,145.93,0,7-1.78,15.85-4.37,27.92-1.55,7.26-4.15,19.41-3.63,22.79h0q1.9,9.55,3.61,19c53.8-48.86,140-107.87,213.45-70.38,66.43,34,36.64,121.24,2.15,222.29C1900.52,2961.37,1855.31,3093.8,1932.43,3188.14Z"/><path class="cls-3" d="M1924.11,3197.67c-72.11-44.32-123.88-124.46-101.43-253.32,27.07-155.43,2-194.68-32.35-192.3a43,43,0,0,0-5.33.64c-20.39,3.66-43.2,20-60.09,34.56q-2.17-25.68-6.08-53.25c-.77-5.46-1.57-10.89-2.44-16.26,48.86-48.18,142.49-122.08,216.2-84.44,81.55,41.69-11.14,190.79-43.84,340.15C1871.15,3053.65,1870.86,3133.92,1924.11,3197.67Z"/><path class="cls-3" d="M1924.11,3200.17a2.5,2.5,0,0,1-1.31-.37c-60.64-37.27-127.67-111.93-102.58-255.88,16.87-96.84,15.12-157.36-5.19-179.9-6.39-7.07-14.37-10.17-24.53-9.48a42.6,42.6,0,0,0-5.06.61c-20.29,3.64-43.23,20.5-58.9,34a2.5,2.5,0,0,1-4.12-1.68c-1.44-17-3.48-34.86-6.06-53.11q-1.15-8.17-2.43-16.21a2.46,2.46,0,0,1,.71-2.18c39.52-39,140-125.27,219.09-84.89,58.69,30,30.22,113.46-2.75,210.08-14.7,43-29.89,87.57-39.79,132.83-21.38,97.46-10.32,168,34.84,222.09a2.5,2.5,0,0,1,0,3.24A2.47,2.47,0,0,1,1924.11,3200.17Zm-130.9-450.72a33,33,0,0,1,25.53,11.23c21.4,23.73,23.55,85.67,6.4,184.1-22.89,131.37,32.27,203.8,87.85,242.62-38.46-53.68-46.91-122.34-26.69-214.49,10-45.53,25.21-90.19,40-133.37,32.21-94.43,60-176,5.2-204-75.62-38.62-173,44.46-212.39,83.09.8,5,1.54,10,2.25,15,2.35,16.62,4.26,32.94,5.67,48.57,15.94-13.27,37.76-28.43,57.58-32a46.88,46.88,0,0,1,5.64-.68C1791.22,2749.48,1792.22,2749.45,1793.21,2749.45Z"/><path class="cls-2" d="M1932.16,3216.81a14.26,14.26,0,0,1-7.91-2.4c-59.36-39.62-124.81-117.32-99.51-262.51,24.29-139.45,3.38-167.87-6.74-173.61-12.48-7.09-37.77,4.05-67.68,29.78a14.28,14.28,0,0,1-23.54-9.64c-1.37-16.55-3.38-34.19-6-52.44-.78-5.33-1.55-10.68-2.4-16a14.28,14.28,0,1,1,28.19-4.53c.88,5.45,1.68,10.94,2.48,16.47q2,14.31,3.58,28.06c32.25-22.62,58.92-28.2,79.43-16.54,34.88,19.81,41.48,84.42,20.78,203.35-22.66,130,34.92,198.94,87.22,233.85a14.28,14.28,0,0,1-7.94,26.15Z"/><path class="cls-2" d="M1917,3203a10.2,10.2,0,0,1-10.18-9.76,9.74,9.74,0,0,1,0-1.21c-73.82-103.19-26.23-242.59,12.11-354.92,35.92-105.23,55.57-170.94,9-194.74-71.5-36.54-166.4,45.25-203.88,82.11a10.2,10.2,0,1,1-14.3-14.54c50.46-49.62,147.12-126.78,227.47-85.74,64.65,33.06,35.16,119.46,1,219.5-39.27,115-83.78,245.43-11.93,340.4a11.79,11.79,0,0,1-8.88,18.89Z"/><g class="cls-1"><path class="cls-2" d="M2129,3240.1h0c-58.65,8.52-140-2.47-204.83-42.39l0,0c-72.11-44.32-123.88-124.46-101.43-253.32,16.7-95.87,13.57-147.54.65-172.5-5.52-10.67,3.44-23,15.33-21.29,21,2.93,40.51,12.53,42.31,38.1,2.77,39.13-10.92,126.14,7.78,184.79,8,25,21.77,44.87,45.25,53.67a219.56,219.56,0,0,0,52.71,12.78c54.54,6,111.1-10.69,146.31-69.57-2.12,63.63,12.14,126.39,62.31,192.14C2225.55,3202.08,2189.26,3231.37,2129,3240.1Z"/></g><path class="cls-5" d="M1820.44,2728.36c-10.07,64.57-43.56,140.37-83.87,213.14-63.47,114.75-143.79,222-175.73,266.09-64.17,88.64-173.7,75.26-223.95,49.73-120.83-61.44-88.15-199-76.45-310,1.68-16.11,2.9-31.65,3.18-46.3,0,0-43.48,16.81-80.19,16.81s-83.34-16.4-83.34-16.4c.28,14.81,1.55,30.47,3.26,46.75,11.71,111,44.14,248.26-76.53,309.57C976.57,3283.26,867,3296.64,802.87,3208c-32-44.22-112.62-151.87-176.18-266.91-40.1-72.53-73.34-148-83.42-212.36-42.18-270,37.94-546.95,112.38-731.49,53.65-132.94,104.35-218,104.35-218h746.71l-649.7-.4h746.66s51,85.5,104.8,219C1782.83,2182.52,1862.54,2458.89,1820.44,2728.36Z"/><path class="cls-2" d="M941.29,3279.46c-48.76,0-102.55-17.63-140.44-70-3-4.13-6.41-8.82-10.2-14-37.91-52-108.46-148.73-166.15-253.15-46.59-84.27-74.75-156-83.7-213.19-42.24-270.4,37.88-547.75,112.54-732.81,53.1-131.6,104-217.44,104.51-218.29a2.51,2.51,0,0,1,2.15-1.22h95.64a2.46,2.46,0,0,1,1.37-.42h746.66a2.51,2.51,0,0,1,2.15,1.23c.51.85,51.71,87.19,105,219.4,74.44,184.73,154.31,461.63,112.12,731.7h0c-8.93,57.3-37.25,129.29-84.15,214-57.55,104-127.84,200.42-165.6,252.2-3.83,5.25-7.28,10-10.29,14.15-64,88.35-173.25,77.86-227.11,50.48-109.18-55.5-94.83-172.29-82.16-275.32,1.55-12.62,3.08-25.07,4.36-37.19,1.73-16.69,2.72-30.3,3.08-42.42-11.13,4-46.45,15.69-77.61,15.69-31.41,0-69.25-11.6-80.75-15.39.35,12.2,1.37,26,3.16,43,1.27,12,2.78,24.36,4.31,36.87,12.63,103,26.95,219.75-82.19,275.2C1006,3271.11,974.83,3279.46,941.29,3279.46ZM761.43,1781.83c-6.37,10.89-53.94,93.67-103.46,216.39-74.41,184.46-154.29,460.88-112.23,730.16,8.86,56.61,36.83,127.78,83.14,211.54,57.53,104.14,128,200.73,165.81,252.62l10.21,14c62.13,85.8,168.4,75.54,220.79,48.93,106-53.87,91.93-168.77,79.5-270.14-1.54-12.54-3.06-24.9-4.33-37-2-18.82-3-33.74-3.27-47a2.49,2.49,0,0,1,3.33-2.41c.46.16,46.65,16.26,82.51,16.26s78.86-16.47,79.29-16.64a2.5,2.5,0,0,1,3.4,2.38c-.25,13.18-1.27,28-3.19,46.51-1.28,12.16-2.81,24.63-4.37,37.28-12.47,101.4-26.59,216.34,79.46,270.26,52.41,26.61,158.67,36.86,220.79-49,3-4.17,6.48-8.91,10.31-14.16,37.7-51.7,107.87-147.91,165.27-251.68,46.61-84.17,74.73-155.6,83.58-212.32h0c42-268.95-37.62-544.91-111.82-729.06-49.67-123.31-97.52-206.56-103.91-217.5h-94.16a2.46,2.46,0,0,1-1.37.42Z"/><path class="cls-7" d="M1026.82,3257.72C976.57,3283.26,867,3296.64,802.87,3208c-32-44.22-112.62-151.87-176.18-266.91,73.67-16,312.23-59.35,476.66,7C1115.06,3059.11,1147.49,3196.41,1026.82,3257.72Z"/><path class="cls-7" d="M1736.57,2941.5c-63.47,114.75-143.79,222-175.73,266.09-64.17,88.64-173.7,75.26-223.95,49.73-120.83-61.44-88.15-199-76.45-310C1426.06,2881.66,1665.23,2925.92,1736.57,2941.5Z"/><path class="cls-2" d="M941.19,3294.38c-52.87,0-111.29-19.17-152.5-76.09-3-4.19-6.52-9-10.38-14.27-62.15-85.24-227.23-311.65-252.34-472.53-38-243.54,23.6-491.94,82-657.43,63.11-178.88,136.31-302.46,137-303.69a17.51,17.51,0,0,1,15-8.54h93.1a17.59,17.59,0,0,1,3.87-.42h746.7a17.51,17.51,0,0,1,15,8.53c.73,1.23,73.94,124.81,137,303.69,58.38,165.49,120,413.89,82,657.43-25.12,160.88-190.2,387.29-252.34,472.53-3.87,5.3-7.35,10.08-10.39,14.28-69.43,95.89-187.77,84.65-246,55-118.52-60.22-102.87-187.85-90.29-290.4,2.44-19.89,4.79-39,6.19-57.05-16.93,4.76-40,9.84-61.44,9.84-22,0-46.8-5.26-64.64-10,1.4,18.19,3.77,37.53,6.24,57.63,12.57,102.55,28.22,230.18-90.3,290.4C1011,3285.38,977.42,3294.38,941.19,3294.38Zm-171-1497.55c-37.49,66.59-275.08,509.78-209.6,929.26,23.81,152.51,185.26,373.95,246,457.31,3.89,5.33,7.39,10.14,10.45,14.37,56.66,78.25,153.87,68.74,201.84,44.37,96.65-49.11,83.81-153.75,71.4-254.93-3.71-30.24-7.21-58.81-7.71-85.47a17.5,17.5,0,0,1,23.29-16.84c.44.15,44.35,15.4,77.57,15.4,32.91,0,73.49-15.49,73.9-15.65a17.51,17.51,0,0,1,23.8,16.66c-.5,26.66-4,55.23-7.71,85.47-12.41,101.18-25.25,205.82,71.4,254.93,48,24.36,145.19,33.88,201.84-44.37,3.06-4.23,6.57-9,10.45-14.37,60.79-83.36,222.24-304.81,246.05-457.31,65.52-419.77-172.11-862.71-209.6-929.25h-83a17.74,17.74,0,0,1-3.88.42Z"/><path class="cls-6" d="M1511.21,1901.47s114.35,47.34,239.35,28,247.7-67,251.34-91.19c0,0-160,13.61-265.8-70.45,0,0-55.25-50.8-59.46-37.51S1564,1885,1511.21,1901.47Z"/><path class="cls-2" d="M1688.91,1936.57c-98.1,0-177.7-32.39-178.66-32.79a2.5,2.5,0,0,1,.21-4.69c52.29-16.38,160.29-158.44,163.8-169.52a5.42,5.42,0,0,1,3.85-3.73c11.66-3.2,51.78,32.9,59.68,40.16,103.68,82.37,262.3,69.92,263.9,69.8a2.55,2.55,0,0,1,2,.78,2.48,2.48,0,0,1,.64,2.08c-4.13,27.44-132,74.52-253.43,93.29A406.77,406.77,0,0,1,1688.91,1936.57Zm-170.72-35.11c25.14,9.2,125.23,42,232,25.55,126.92-19.63,235.35-64.13,248.07-86-25.18,1.37-167.49,5.23-263.71-71.22-18.93-17.39-48.37-41-55.14-39.12-.18,0-.27.07-.38.4C1674.26,1746.13,1573,1876.83,1518.19,1901.46Z"/><g class="cls-1"><path class="cls-8" d="M1511.21,1901.47s114.35,47.34,239.35,28,247.7-67,251.34-91.19c0,0-160,13.61-265.8-70.45,0,0-55.25-50.8-59.46-37.51S1564,1885,1511.21,1901.47Z"/><path class="cls-2" d="M1688.91,1936.57c-98.1,0-177.7-32.39-178.66-32.79a2.5,2.5,0,0,1,.21-4.69c52.29-16.38,160.29-158.44,163.8-169.52a5.42,5.42,0,0,1,3.85-3.73c11.66-3.2,51.78,32.9,59.68,40.16,103.68,82.37,262.3,69.92,263.9,69.8a2.55,2.55,0,0,1,2,.78,2.48,2.48,0,0,1,.64,2.08c-4.13,27.44-132,74.52-253.43,93.29A406.77,406.77,0,0,1,1688.91,1936.57Zm-170.72-35.11c25.14,9.2,125.23,42,232,25.55,126.92-19.63,235.35-64.13,248.07-86-25.18,1.37-167.49,5.23-263.71-71.22-18.93-17.39-48.37-41-55.14-39.12-.18,0-.27.07-.38.4C1674.26,1746.13,1573,1876.83,1518.19,1901.46Z"/></g><path class="cls-3" d="M2139.83,1705.36c-53.71,83.29-101.63,129.89-169.59,128.47s-219,3.05-280.34-120.65c0,0,15.72-47.55,32.54-101.7,19.52-62.94,40.44-134.79,39.83-151.32,0,0,23,47.2,70.4,92a312.17,312.17,0,0,0,51.9,40,435.24,435.24,0,0,0,82.46,39.35,337.05,337.05,0,0,0,37,10.68c49.61,11.23,100.45,9.84,143.14-15.28a146.42,146.42,0,0,0,20.95-14.79,7.43,7.43,0,0,1,2.62,2.22C2175.53,1620.15,2181.57,1640.61,2139.83,1705.36Z"/><path class="cls-3" d="M1973.24,1836.36c-1,0-2,0-3,0-3.53-.08-7.29-.13-11.24-.19-74.25-1.12-212.45-3.21-271.29-121.85a2.46,2.46,0,0,1-.13-1.9c.15-.47,15.9-48.15,32.52-101.66,26.09-84.11,40.2-137.55,39.72-150.48a2.5,2.5,0,0,1,4.75-1.19c.23.47,23.4,47.35,69.87,91.24a308.85,308.85,0,0,0,51.48,39.66,435.06,435.06,0,0,0,82,39.13,334.41,334.41,0,0,0,36.77,10.6c55.48,12.56,103.05,7.53,141.32-15a145.06,145.06,0,0,0,20.61-14.55,2.47,2.47,0,0,1,2.55-.4,9.64,9.64,0,0,1,3.63,3c6.19,7.66,10.43,30-30.8,94h0C2091.78,1784.49,2043.76,1836.36,1973.24,1836.36ZM1692.59,1713C1750.35,1828,1886,1830,1959,1831.14c4,.06,7.73.11,11.27.19,70.08,1.36,117.48-49.85,167.44-127.33,42.14-65.37,34.46-84,31.1-88.15a7.51,7.51,0,0,0-.55-.63,149.61,149.61,0,0,1-19.82,13.79c-39.39,23.18-88.16,28.42-144.94,15.55a337,337,0,0,1-37.31-10.75,439.4,439.4,0,0,1-82.94-39.58,314,314,0,0,1-52.32-40.3,375.08,375.08,0,0,1-66.9-85.18c-3.92,26.53-22.9,90.84-39.22,143.47C1709.51,1661.54,1694.93,1705.9,1692.59,1713Zm447.24-7.62h0Z"/><path class="cls-9" d="M2170.78,1614.28a135.09,135.09,0,0,1-23.57,12.57c-35.68,15-84.73,20.69-136.61,13.55a335.64,335.64,0,0,1-88.29-24.75,272.76,272.76,0,0,1-89.64-63.53c-55.6-59-72.48-125.93-72.48-125.93l-10.43-330.84s130.3,192.83,166.1,236,131.43,55.31,212.12,71.83c57.74,11.85,74.17,51.9,77,100.39,1.13,19.32.09,39.93-1.36,60.67C2202.22,1584.09,2190.16,1601.13,2170.78,1614.28Z"/><path class="cls-2" d="M2054.6,1645.94a324.81,324.81,0,0,1-44.34-3.07,337.85,337.85,0,0,1-89-24.93,275.27,275.27,0,0,1-90.46-64.11c-55.41-58.75-72.91-126.36-73.08-127a3.35,3.35,0,0,1-.08-.54l-10.43-330.83a2.5,2.5,0,0,1,4.57-1.48c1.31,1.93,130.64,193.22,166,235.75,30,36.16,103.72,50.3,175,64,12.08,2.32,24.07,4.62,35.74,7,66.25,13.6,76.79,65.12,79,102.7,1.16,19.95,0,41.1-1.37,61s-13.09,37.87-33.9,52h0a136.76,136.76,0,0,1-24,12.8C2122,1640.19,2089.27,1645.94,2054.6,1645.94Zm-291.92-220.12c1.21,4.54,19,68.61,71.81,124.58a270.09,270.09,0,0,0,88.83,63,333,333,0,0,0,87.62,24.56c49.59,6.83,98.9,2,135.3-13.38a131.59,131.59,0,0,0,23.14-12.33c19.49-13.23,30.46-29.89,31.71-48.19,1.39-19.72,2.51-40.69,1.37-60.35-3.35-57.88-26.47-88.13-75-98.09-11.66-2.39-23.63-4.68-35.68-7-72.11-13.83-146.67-28.14-177.87-65.69-31.54-38-137.43-193.65-161.4-229Zm408.1,188.46h0Z"/><path class="cls-3" d="M1749.8,789.73s69.51,89.07,94.65,198.25,52.64,302.65,162,360.39,139.35,62.23,139.35,62.23-150.49-8.57-235.08-83.26S1770.88,1172.19,1747.08,1054s-56.31-239.59-47.66-245.5S1749.8,789.73,1749.8,789.73Z"/><path class="cls-3" d="M2145.85,1413.1h-.15c-1.51-.08-152.33-9.47-236.59-83.88-93.06-82.18-142.25-164.33-164.49-274.69-8.18-40.63-17.44-81.86-25.61-118.25-21.22-94.44-27.52-125.34-21-129.8,8.86-6.06,49.35-18.6,51.07-19.13a2.49,2.49,0,0,1,2.71.85c.7.9,70.13,90.76,95.11,199.23,3.1,13.46,6.23,28.19,9.55,43.79,23.77,111.78,56.32,264.86,151.23,315,107.29,56.62,138.25,61.92,138.56,62a2.5,2.5,0,0,1-.38,5Zm-397-620.46c-14.77,4.61-41.7,13.62-48,18-3.67,5.62,9.92,66.1,23.06,124.58,8.17,36.41,17.44,77.67,25.64,118.35,22,109.2,70.71,190.53,162.89,271.93,62.82,55.47,163.51,74.27,209.39,80.16-20.53-7.75-56.61-23.45-116.48-55-97-51.18-129.81-205.59-153.79-318.33-3.31-15.58-6.44-30.28-9.53-43.71C1819,888.41,1757.63,804.29,1748.87,792.64Z"/><path class="cls-2" d="M1692.58,1949.28c-92.08,0-191.4-18.51-309.61-48.26-22-5.54-38.81-19.44-49.92-41.32-59.06-116.36,65.57-463.17,145.12-659.55,63.92-157.78,123.87-349.33,126.29-389.65a17.51,17.51,0,0,1,35,2.1c-3,49-66.75,247.53-128.79,400.69-129.63,320-184.34,555.73-146.36,630.57,6.5,12.8,15.16,20.18,27.26,23.22,255.94,64.4,411.44,74.81,602.88-40.2C2106.74,1759.38,2206,1590,2191,1491.28c-5.53-36.49-25.5-58.46-61-67.16-153.22-37.52-249.23-149.6-277.63-324.14-36-221.12-145.62-345.27-146.72-346.49a17.5,17.5,0,1,1,26-23.39c4.79,5.32,117.6,133.11,155.23,364.26,26.35,161.85,110.93,261.36,251.41,295.76,49.45,12.11,79.64,45.27,87.32,95.92,17.34,114.37-86.26,294.59-213.17,370.84C1902.93,1922.66,1803,1949.28,1692.58,1949.28Z"/><path class="cls-2" d="M2112.94,1413.83l-.62,0c-140.28-6.86-252.6-83.08-324.83-220.4-54-102.65-66.47-201.72-67-205.89a12.5,12.5,0,1,1,24.81-3c.12,1,12.58,99.26,64.62,197.89,68.85,130.5,171,199.95,303.6,206.44a12.5,12.5,0,0,1-.61,25Z"/><path class="cls-2" d="M2037.09,1656.85a253.67,253.67,0,0,1-80.31-13c-138.77-46-207.49-196.77-210.34-203.17a12.5,12.5,0,0,1,22.82-10.2c.65,1.47,67.27,147.26,195.53,189.69,68.89,22.78,143.77,12,222.55-32.15a12.5,12.5,0,0,1,12.22,21.82C2143.67,1641.15,2089.29,1656.85,2037.09,1656.85Z"/><path class="cls-2" d="M1944.48,1847c-208.26,0-266.32-128.53-269-134.64a12.5,12.5,0,0,1,22.94-9.93c2.75,6.26,68.84,149.27,323.18,114a12.5,12.5,0,0,1,3.44,24.77A587.49,587.49,0,0,1,1944.48,1847Z"/><g class="cls-1"><path class="cls-8" d="M2139.83,1705.36c-53.71,83.29-101.63,129.89-169.59,128.47s-219,3.05-280.34-120.65c0,0,15.72-47.55,32.54-101.7,53.18,22.55,96.25,31.36,156.87,36.75,45.69,4,89.74,2.87,124.76-6.1,2.21-.54,4.39-1.13,6.53-1.73,107.62-29.42,165.84-93.22,194.35-136.88,1.13,19.32.09,39.93-1.36,60.67-1.37,19.9-13.43,36.94-32.81,50.09C2175.53,1620.15,2181.57,1640.61,2139.83,1705.36Z"/><path class="cls-2" d="M1973.24,1836.36c-1,0-2,0-3,0-3.53-.08-7.29-.13-11.24-.19-74.25-1.12-212.45-3.21-271.29-121.85a2.46,2.46,0,0,1-.13-1.9c.15-.47,15.9-48.15,32.52-101.66a2.52,2.52,0,0,1,3.37-1.56c49.34,20.93,91.65,30.84,156.11,36.57,48.77,4.32,91.62,2.24,123.92-6,2.21-.55,4.36-1.13,6.48-1.72,104.86-28.66,162.79-89.69,192.93-135.83a2.5,2.5,0,0,1,4.59,1.22c1.16,19.95,0,41.1-1.37,61-1.32,19.24-12.32,36.68-31.88,50.58,5.11,9.44,5.52,33.15-32.27,91.77h0C2091.78,1784.49,2043.76,1836.36,1973.24,1836.36ZM1692.59,1713C1750.35,1828,1886,1830,1959,1831.14c4,.06,7.73.11,11.27.19,70.08,1.36,117.48-49.85,167.44-127.33h0c42.14-65.37,34.46-84,31.1-88.15a2.51,2.51,0,0,1,.55-3.64c19.49-13.23,30.46-29.89,31.71-48.19,1.21-17.21,2.23-35.37,1.7-52.79-31.69,46-89.9,103.8-191.53,131.58-2.15.6-4.35,1.2-6.59,1.74-32.82,8.42-76.26,10.55-125.58,6.17-63.92-5.68-106.29-15.45-155.08-35.87C1709,1663.1,1694.89,1706,1692.59,1713Zm447.24-7.62h0Z"/></g><path class="cls-6" d="M674.15,1219c-47.32-82.86-46.31-194.16-43.42-240.28,17.33-77.07,50.34-166.26,55.65-176.89,0,0,36.28,14.78,42.34,35S677.47,1121.5,674.15,1219Z"/><path class="cls-2" d="M674.15,1221.51a2.52,2.52,0,0,1-2.18-1.26c-47.89-83.88-46.54-197-43.74-241.68,17.92-79.78,51-168.06,55.91-177.85a2.49,2.49,0,0,1,3.18-1.19c1.53.62,37.46,15.47,43.79,36.56,2.8,9.29-5.8,60.1-20.05,142.22-14.53,83.73-32.62,187.92-34.41,240.78a2.54,2.54,0,0,1-2.5,2.42Zm13.48-416.39c-7.19,16.67-38,100.74-54.46,174.16-2.64,42.52-4,148.93,38.9,230.73,3.31-55.34,20.28-153.14,34.06-232.56,11.72-67.51,22.79-131.28,20.2-139.93C721.51,821.49,695.43,808.64,687.63,805.12Z"/><path class="cls-10" d="M851.12,1888.37s-33.19,5.33-78.65-22.55a225.18,225.18,0,0,1-34.83-26.5c-.21-.22-.48-.44-.7-.66a454.33,454.33,0,0,1-41.73-43.29c-.39-.44-.79-.94-1.18-1.43-50.38-60.87-99.39-158.07-112.76-346.27-4.06-57-2.14-119.31,3.37-181.7-2.51,33.94-4,68.49-4.22,103.15v.1c.61,4.74,22.25,167.85,116,243.13C719.9,1733,765.24,1844.35,851.12,1888.37Z"/><path class="cls-2" d="M843.69,1890.85c-12.51,0-39.08-2.92-72.29-23.29a227.53,227.53,0,0,1-35.13-26.74l-.79-.73a448.32,448.32,0,0,1-41.84-43.41c-.38-.44-.79-1-1.2-1.46-66.06-79.81-102-190.21-113.21-347.4-3.76-52.83-2.62-114.07,3.38-182a2,2,0,0,1,2.2-1.85,2.06,2.06,0,0,1,1.87,2.19c-2.62,35.35-4,70-4.22,103,.87,6.62,22.47,167.13,115.21,241.63a2,2,0,0,1,.72,1.2c28.14,144.37,79.84,236.75,153.66,274.6a2,2,0,0,1-.61,3.82A50.79,50.79,0,0,1,843.69,1890.85ZM581.15,1386.49c.07,21.41.78,41.79,2.16,61,11.09,156.31,46.78,266,112.3,345.13.39.49.77,1,1.13,1.38a447.36,447.36,0,0,0,41.59,43.14l.77.72a223,223,0,0,0,34.43,26.19c32.15,19.72,58.24,22.56,70.2,22.63-71.43-40.34-121.6-132.2-149.2-273.23C617.67,1551.24,589.3,1431.11,581.15,1386.49Z"/><path class="cls-11" d="M696.39,1612.35c-93.71-75.28-115.35-238.39-116-243.13v-.1c.2-34.66,1.71-69.21,4.22-103.15a7,7,0,0,0,.08-1c9.21-103.3,26.32-211.49,44.16-291.09-2.89,46.12-2,162.29,45.27,245.15C672.29,1274.73,665,1451.71,696.39,1612.35Z"/><path class="cls-2" d="M696.39,1614.39a2,2,0,0,1-1.28-.45c-94-75.51-115.82-237.6-116.7-244.47.16-33.45,1.58-68.2,4.19-103.65a5.31,5.31,0,0,0,.08-.93c8.73-98,25.25-206.89,44.21-291.47a2.07,2.07,0,0,1,2.28-1.58,2,2,0,0,1,1.74,2.15c-1.55,24.86-6.71,153.44,45,244a2,2,0,0,1,.26,1.08l-.2,6.05c-2.16,63.4-7.91,231.83,22.41,386.83a2,2,0,0,1-2,2.43ZM626,996.84c-16.86,80.7-31.3,179.1-39.25,268.29a8.13,8.13,0,0,1-.1,1.19c-2.59,35.16-4,69.81-4.19,102.81.85,6.51,21.79,162.08,110.86,238-29.2-153.89-23.56-319.4-21.42-382.18l.19-5.46C629.55,1144.6,625.28,1044.47,626,996.84Z"/><path class="cls-2" d="M696.39,1626.63a14.29,14.29,0,0,1-8.94-3.14c-97.81-78.57-120.27-245.4-121.18-252.46a16.49,16.49,0,0,1-.13-2c.19-33.37,1.62-68.4,4.26-104.11l.06-.65c0-.21,0-.45,0-.6,8.89-99.72,24.76-205,43.55-288.88a14.28,14.28,0,0,1,28.18,4c-1.47,23.4-6.22,144.61,44.31,233.12a14.15,14.15,0,0,1,1.87,7.55l-.2,6.06c-2.15,63-7.86,230.45,22.2,384.07a14.28,14.28,0,0,1-14,17ZM594.7,1368.26c1.28,9.07,18.76,126,79.89,201.9-21.82-143.18-16.89-287.74-14.92-345.59l.07-2.06c-21.68-39.35-33.56-83.93-39.93-124.43-8.66,54.42-15.85,112-20.83,167.77,0,.54-.07,1.06-.13,1.6C596.3,1302,594.91,1336,594.7,1368.26Zm-24.15-104.62h0Zm0,0h0Zm0,0v0Z"/><path class="cls-2" d="M891.9,1931.58a14.5,14.5,0,0,1-3.43-.42c-46-11.32-87.65-29.31-123.92-53.46a363,363,0,0,1-36.25-27.59l-.54-.49-.41-.37a360.91,360.91,0,0,1-43.23-44.89c-.2-.21-.72-.86-1.23-1.49-78.46-97.36-117.75-243.31-116.74-433.73a14.28,14.28,0,0,1,14.28-14.2h.08a14.28,14.28,0,0,1,14.2,14.35c-1,183.69,36.18,323.55,110.44,415.69.3.38.57.72.84,1a333.77,333.77,0,0,0,40.31,41.87c.23.21.46.42.68.64h0a335.87,335.87,0,0,0,33.4,25.41c33.51,22.32,72.17,39,114.92,49.51a14.28,14.28,0,0,1-3.4,28.14Z"/><path class="cls-2" d="M584.74,1279.22c-.36,0-.72,0-1.08,0a14.28,14.28,0,0,1-13.18-15.3c9.14-121.9,31.15-235.24,48-309,0-.25.09-.5.15-.73,17.84-78,52.78-159.49,54.26-162.92a14.27,14.27,0,1,1,26.22,11.29c-.35.82-35.23,82.24-52.53,157.46l-.06.34C629.79,1033.5,608,1145.58,599,1266A14.27,14.27,0,0,1,584.74,1279.22Z"/><path class="cls-5" d="M1731.59,1895.77c-141.25,138.18-417.9,163-699.75,147.87-361.21-19.38-511.28-251.38-533.48-321.14-48.3-151.45,65.93-486,102.55-529.1,24.15-28.39,61.93-125.48,84.88-188.39,11.91-32.57,19.81-56,19.81-56,72.3,73.36,311.13,109.17,426,97.62,564.64-56.86,451.57-271.35,449.79-334.42-.78-28.21-12.51-46.6-16.54-65.8-5.08-23.74,1.56-48.73,54.89-95,35.1-30.49,70-44.4,101-44,54.15.74,96.32,45.23,106.51,121.4,16,119.69-106,206.81-106,206.81s0,0,0,0c2.28,4.89,149.19,317,158.68,624.56C1887.3,1696.65,1789.33,1839.31,1731.59,1895.77Z"/><path class="cls-2" d="M1171.19,2049.61q-66.27,0-139.46-3.93c-194.22-10.42-322-83-395-142.13-88.09-71.28-129.62-147-140.28-180.43-48.81-153.07,67.57-489.4,103-531,24.41-28.7,63.42-130,84.51-187.77,11.77-32.17,19.71-55.68,19.79-55.92a2.05,2.05,0,0,1,1.48-1.33,2,2,0,0,1,1.91.56c71.48,72.51,306.73,108.84,424.39,97,224.85-22.64,368.49-73.44,426.93-151,42.47-56.35,31.87-115.06,24.85-153.91-1.94-10.77-3.62-20.08-3.83-27.45-.49-17.85-5.56-32-10-44.51-2.58-7.18-5-14-6.47-20.93-5.28-24.68,2.14-50.62,55.55-97,33.53-29.13,68.42-44.49,101-44.49h1.4c56.86.78,98.44,48,108.5,123.17,15.07,112.6-92,197.53-105.46,207.72,12.31,26.63,149.1,329.08,158.2,623.9,8.08,262.41-112,400.85-149,437C1628.57,1999.4,1444,2049.61,1171.19,2049.61ZM706.48,952.78c-2.53,7.4-9.46,27.46-18.78,52.93-25.87,70.92-61.66,161.29-85.24,189-35.12,41.32-150.62,375.19-102.16,527.15,10.52,33,51.62,107.83,139,178.5,72.55,58.71,199.57,130.86,392.69,141.23,349.34,18.76,577.73-29.42,698.22-147.3h0c36.71-35.89,155.85-173.25,147.81-434-9.28-301.25-152.31-610.57-158.4-623.59h0a1.51,1.51,0,0,1-.2-.45,2,2,0,0,1,.75-2.28c1.21-.86,120.82-87.81,105.16-204.88-9.78-73-49.83-118.88-104.52-119.63h-1.34c-31.57,0-65.52,15-98.3,43.49-51.91,45.06-59.22,69.79-54.24,93.06,1.41,6.7,3.79,13.36,6.31,20.41,4.58,12.78,9.77,27.27,10.28,45.77.19,7.06,1.85,16.23,3.77,26.84,7.14,39.54,17.93,99.31-25.61,157.09-59.15,78.47-203.75,129.81-429.78,152.57C1014.65,1060.46,781.37,1024.55,706.48,952.78Z"/><g class="cls-1"><path class="cls-2" d="M1708.47,2008c-110.06,89.91-284.94,124.58-478,130.29-64.74,1.88-131.51.57-198.58-3-127-6.85-227.91-39.93-306.31-83a599.4,599.4,0,0,1-69.88-45c53.65-132.94,104.35-218,104.35-218h746.71l-649.7-.4h746.66S1654.66,1874.42,1708.47,2008Z"/></g><path class="cls-5" d="M1855.4,1673.74a601.24,601.24,0,0,1-19.45,57.71c-2.39,6.07-4.85,12-7.36,17.75-22.28,51.29-48.59,91-72.22,119.47l0,.07a353.53,353.53,0,0,1-24.75,27c-107.65,105.32-293.88,144.77-501.17,150.89-64.73,1.91-131.51.59-198.59-3-127-6.84-227.87-39.93-306.29-83C603.28,1893.46,535.64,1802,509,1748a184.5,184.5,0,0,1-10.66-25.52c-11.74-36.85-13.86-84.53-9.82-136.22,12.53-160.8,84.67-360.29,112.37-392.9,24.16-28.38,61.92-125.45,84.9-188.36,11.9-32.6,19.78-56,19.78-56,72.33,73.36,311.13,109.17,426.07,97.64,564.61-56.89,451.57-271.35,449.77-334.43-.77-28.22-12.5-46.6-16.54-65.82-5.07-23.74,1.59-48.72,54.9-95,35.08-30.48,70-44.37,101-44,54.16.76,96.34,45.23,106.52,121.39,16,119.7-106,206.82-106,206.82s0,0,0,0c2.28,4.89,149.18,317,158.67,624.55C1882.57,1542.7,1872.31,1613.8,1855.4,1673.74Z"/><path class="cls-2" d="M1170,2050c-43.89,0-90.19-1.3-138.32-3.89-114.56-6.17-218-34.19-307.36-83.31-142.77-78.45-202.62-183.4-217.57-213.7A188.33,188.33,0,0,1,496,1723.27c-11-34.54-14.34-80.69-9.93-137.17C499,1419.87,572,1223.56,599,1191.77c24.28-28.53,63.33-129.78,84.45-187.6,11.75-32.19,19.69-55.68,19.76-55.92a2.5,2.5,0,0,1,1.81-1.63,2.46,2.46,0,0,1,2.34.68c71.39,72.4,306.44,108.68,424,96.9,224.72-22.64,368.26-73.39,426.61-150.82,42.35-56.19,31.76-114.77,24.76-153.54-2-10.79-3.63-20.1-3.85-27.51-.48-17.79-5.33-31.31-10-44.38-2.58-7.2-5-14-6.48-21-5.3-24.82,2.14-50.89,55.71-97.42,34.08-29.61,69.8-45,102.68-44.59,57.12.8,98.88,48.14,109,123.56,15,112-90.6,196.72-105.34,207.93,13.27,28.7,149,329.28,158.08,623.73,2.34,75.76-6,147.84-24.72,214.25h0a606.87,606.87,0,0,1-19.53,58c-2.46,6.25-4.94,12.25-7.39,17.83-19.41,44.7-44.52,86.21-72.58,120.06a351.24,351.24,0,0,1-25,27.29c-95.64,93.58-264.82,144.58-502.85,151.61Q1201.13,2050,1170,2050ZM706.67,953.61c-2.7,7.9-9.49,27.53-18.52,52.28-25.94,71-61.8,161.45-85.34,189.12-25.95,30.55-99.15,229.19-111.79,391.48-4.36,55.83-1.09,101.34,9.71,135.27a184.56,184.56,0,0,0,10.52,25.16c14.78,30,74,133.78,215.49,211.53,88.73,48.75,191.42,76.57,305.22,82.7,70.7,3.8,137.45,4.82,198.38,3,236.73-7,404.78-57.52,499.49-150.18a350.1,350.1,0,0,0,24.58-26.84c19.4-23.43,47.59-63,71.88-118.93,2.43-5.54,4.89-11.48,7.33-17.67a600.57,600.57,0,0,0,19.37-57.48h0c18.6-65.93,26.85-137.5,24.53-212.74-9.3-301.32-151.72-609.2-158.35-623.38a2.51,2.51,0,0,1,.68-3.33c1.22-.86,120.59-87.65,105-204.45-9.73-72.77-49.6-118.46-104.07-119.22-31.86-.43-66.2,14.59-99.33,43.36-51.72,44.93-59,69.52-54.1,92.62,1.4,6.67,3.78,13.31,6.3,20.34,4.59,12.82,9.79,27.35,10.3,45.93.2,7,1.85,16.17,3.77,26.76,7.16,39.62,18,99.5-25.69,157.45-59.22,78.58-203.93,130-430.1,152.77C1014.91,1060.94,782.22,1025.13,706.67,953.61Z"/><path class="cls-5" d="M1828.59,1749.2c-22.28,51.29-48.59,91-72.22,119.47Z"/><path class="cls-2" d="M1756.37,1870.71a2.07,2.07,0,0,1-1.18-.38,2,2,0,0,1-.56-2.72l72.22-119.46a2,2,0,0,1,3.61,1.86c-19.4,44.66-44.48,86.14-72.52,120A2,2,0,0,1,1756.37,1870.71Zm51.65-83.54-29,48A506,506,0,0,0,1808,1787.17Z"/><g class="cls-1"><path class="cls-2" d="M1642.4,877c-11,144-229.3,249.55-539.65,247-245.62-2-392.62-103.1-408.59-142.19,11.91-32.56,11.44-32.77,11.44-32.77,72.3,73.36,311.13,109.17,426,97.62,564.64-56.86,451.57-271.35,449.79-334.42-.78-28.21-12.51-46.6-16.54-65.8C1594.82,684.69,1650.48,771.08,1642.4,877Z"/></g><path class="cls-12" d="M759.13,865.08s-161.33-55-125.34-241.16,271.73,41.32,275.36,61.93S759.13,865.08,759.13,865.08Z"/><path class="cls-2" d="M759.14,867.12a2.12,2.12,0,0,1-.66-.11c-1.63-.56-162.6-57.75-126.69-243.48,9.54-49.35,33.78-74.38,72-74.38h.73c84.33.7,204.05,121.69,206.63,136.34,3.7,21-134.76,164.7-150.56,181A2,2,0,0,1,759.14,867.12ZM703.82,553.23c-36,0-58.9,23.91-68,71.08C602.19,798.11,744,857.12,758.59,862.71,820,799.2,909.66,700.49,907.15,686.2c-2-11.09-120.18-132.29-202.65-133Z"/><path class="cls-2" d="M758.73,886.33a14.18,14.18,0,0,1-5.35-1,226.84,226.84,0,0,1-52.52-29.95c-67.27-51.26-103.69-142.29-86.58-216.45,11.22-48.68,44.1-81.89,90.19-91.13,110.6-22.19,176,80.57,199,125.78a14.28,14.28,0,0,1-25.45,13c-24.91-49-79.86-128.46-167.94-110.73-35.13,7-59.27,31.73-68,69.54-12.61,54.68,9.47,136.58,76.07,187.33a198.05,198.05,0,0,0,45.91,26.18,14.28,14.28,0,0,1-5.35,27.52Z"/><path class="cls-13" d="M832.12,744.84c-9.19,11-24.38,30.23-36.65,51.08a24.84,24.84,0,0,1-35.85,7.85c-27.22-19.53-68-56.55-68.76-103.73-1.15-67.29,55.58-89.74,100.1-48.86a168.06,168.06,0,0,1,45.67,70.07A24.68,24.68,0,0,1,832.12,744.84Z"/><g class="cls-1"><path class="cls-2" d="M819,801.35c-31.83,34.77-59.89,63.73-59.89,63.73S597.8,810,633.79,623.92c10.66-55.25,39-74.06,73.54-72.64-1.16,4.14-2.2,8.61-3.1,13.28C673.88,721.46,783.79,785.21,819,801.35Z"/></g><path class="cls-7" d="M1838.13,1733.41l-81.8,135.33c-122.95,184.75-559.5,236.08-936.44,135.13-160.49-43-277.27-131.43-311.89-259.32a457.23,457.23,0,0,1,55.63-52.5c2.1-1.67,4.2-3.34,6.33-5,6.41-5,13-9.84,19.75-14.58,2.24-1.58,4.52-3.16,6.8-4.7s4.59-3.11,6.94-4.65c2.07-1.37,4.14-2.74,6.24-4.06q21.63-13.87,45.37-26.37c2.6-1.36,5.21-2.72,7.8-4s5.28-2.67,7.95-4q13.05-6.45,26.71-12.49c4.81-2.11,9.65-4.21,14.52-6.23,2.77-1.15,5.51-2.31,8.32-3.42a3.38,3.38,0,0,0,.39-.19c2.81-1.11,5.66-2.25,8.54-3.36s5.85-2.27,8.77-3.37l8.87-3.29c3-1.06,6-2.15,9-3.21q9.51-3.35,19.35-6.54c5.77-1.86,11.65-3.72,17.57-5.49,3.17-1,6.31-1.89,9.51-2.81,2.71-.82,5.48-1.59,8.22-2.4,3.64-1,7.31-2,11-3,3.25-.88,6.49-1.72,9.76-2.56,9.84-2.55,19.77-5,29.88-7.24,3.39-.79,6.77-1.55,10.19-2.26,3.11-.7,6.26-1.36,9.41-2,2.64-.55,5.27-1.07,7.95-1.62,3.84-.75,7.64-1.5,11.52-2.24q24.38-4.65,49.83-8.36c3.86-.6,7.76-1.15,11.65-1.67,4.32-.58,8.64-1.17,13-1.72,3-.41,5.93-.74,8.9-1.12,5.58-.66,11.2-1.32,16.9-1.93,4.31-.48,8.69-.91,13-1.34,5.27-.54,10.61-1,15.94-1.49,2.81-.24,5.61-.51,8.45-.7q8.05-.69,16.22-1.24c2.69-.21,5.37-.38,8-.55,2.42-.19,4.87-.35,7.32-.46q20.39-1.24,41.31-2l10.12-.31c.8,0,1.6,0,2.44-.08,4.2-.1,8.4-.21,12.64-.27,7.85-.15,15.75-.26,23.67-.28,2.21,0,4.42,0,6.63,0,4.15,0,8.3,0,12.45,0a1405.85,1405.85,0,0,1,142.83,8c3.28.35,6.6.73,9.88,1.11,8.52.94,17,2,25.37,3.16,2.3.29,4.59.61,6.88.94,8.77,1.2,17.48,2.54,26.11,3.91,3.19.52,6.38,1,9.53,1.57,2.13.35,4.23.7,6.33,1.08,3.23.53,6.41,1.13,9.63,1.7q10.27,1.86,20.43,3.87l9.42,1.91q10.15,2.08,20.13,4.3c5.89,1.35,11.79,2.7,17.6,4.07.59.17,1.15.3,1.75.43l9.57,2.38c3.09.74,6.14,1.52,9.19,2.33,2.12.54,4.2,1.08,6.28,1.65s4.24,1.12,6.32,1.69,4.38,1.17,6.53,1.79c9.36,2.58,18.56,5.27,27.66,8,3,.93,6.08,1.86,9.11,2.83s6,1.89,9,2.89c2,.64,4,1.29,6,2q10.42,3.42,20.6,7c2.87,1,5.75,2.06,8.62,3.12,5.27,1.94,10.46,3.87,15.6,5.87,2.65,1,5.3,2.05,7.94,3.1q16.43,6.49,32.19,13.46c2.12.92,4.21,1.84,6.29,2.79,2.52,1.11,5,2.26,7.49,3.4,1.68.77,3.33,1.53,5,2.33,2.38,1.09,4.71,2.19,7,3.32q30.56,14.71,58.16,31c2.2,1.31,4.37,2.61,6.53,3.92q15.15,9.16,29.26,18.78c1.72,1.15,3.4,2.34,5,3.48q4.58,3.16,9,6.4c2,1.4,3.89,2.83,5.81,4.27,5.77,4.27,11.42,8.64,16.88,13C1823.51,1720.59,1831,1727,1838.13,1733.41Z"/><g class="cls-1"><path class="cls-2" d="M1855.4,1673.74c-10.85,14.27-19.22,25.85-35,44.4l0,0c-26.76,35.54-72.63,72.2-121.83,101.86-269.48,162.44-682.14,167.79-957.34,51.09-94.39-40-168.54-117.13-195.75-163.74l-.09.08c-35.31-47.85-46.68-93.79-56.84-121.12-4,51.69-1.92,99.37,9.82,136.22A184.5,184.5,0,0,0,509,1748c28.13,99,104.47,173.55,214.17,218.92,29.78,12.32,63.17,23.21,97.13,32.3,134.55,36,277.56,47.52,410.1,47.41,238.76-.11,446.88-59.13,525.92-177.92l0-.07,72.22-119.47,9.54-15.79c-.7-.64-1.44-1.32-2.18-2A601.24,601.24,0,0,0,1855.4,1673.74ZM508,1744.55c8.31-9.31,12.73-14.24,17.64-18.89C520.78,1730.41,516.43,1735.11,508,1744.55Z"/></g><path class="cls-2" d="M1180.8,2064.07l-8.42,0a14.28,14.28,0,0,1,0-28.56h.09q6.36,0,12.68,0c4.29,0,8.46,0,12.61,0,3.08,0,5.9,0,8.7,0l3.77-.05c11.72-.1,24-.33,39.7-.74l8.48-.31c3.36-.12,6.72-.24,10-.38l3.69-.15c2.36-.09,4.72-.19,7-.31,8.68-.39,17.1-.81,25.36-1.36,3.94-.18,7.54-.4,11.1-.69l3.77-.25c2.48-.17,4.94-.33,7.41-.53,7.72-.59,15.29-1.2,22.76-1.87a14.28,14.28,0,1,1,2.54,28.44q-11.39,1-23.07,1.9c-2.52.2-5.12.38-7.73.55l-3.54.24c-3.73.3-7.64.53-11.62.72-8.19.55-16.82,1-25.57,1.37-2.33.12-4.83.22-7.33.32l-3.59.14c-3.41.15-6.83.27-10.27.39l-8.53.32c-16.12.42-28.52.66-40.4.75l-3.63.05c-3,0-6.07.07-9.14.05-4,0-8.26,0-12.53,0Z"/><path class="cls-2" d="M1865.15,1329.22a17.51,17.51,0,0,1-17.25-14.67c-1.07-6.47-2.14-13-3.24-19.52-29.71-174.25-60.34-269.13-137.28-465.73a17.5,17.5,0,0,1,7.21-21.34c81.75-49.67,107.54-145.76,90.31-210.94-11.82-44.69-41.54-71-81.54-72.14-43.76-1.28-80.43,19.27-109.07,61.08-12,17.4-22.32,38.31-30.78,62.15a17.5,17.5,0,0,1-33-11.71c9.49-26.72,21.23-50.35,34.9-70.24,35.29-51.51,83.26-77.95,139-76.27s98.52,38.32,114.35,98.18c20.07,75.91-6.17,181-93.59,241.74,74.14,190.21,104.46,286,134,459.39,1.11,6.64,2.19,13.15,3.26,19.67a17.54,17.54,0,0,1-17.28,20.35Z"/><path class="cls-2" d="M1861.92,1306.41a14.27,14.27,0,0,1-14.06-11.88c-29.73-174.46-60.4-269.47-137.47-466.41A14.28,14.28,0,0,1,1737,817.71c77.87,199,108.88,295.1,139,472a14.26,14.26,0,0,1-11.68,16.46A13.16,13.16,0,0,1,1861.92,1306.41Z"/><path class="cls-13" d="M1627.79,715.73a418.74,418.74,0,0,1,32.44,40.09,33.5,33.5,0,0,0,49.39,6.29c25.9-22.37,58.1-59.11,56.59-102.59-2.36-68.52-61.26-88.37-104.4-44.44a171.62,171.62,0,0,0-41.14,68.17A33.3,33.3,0,0,0,1627.79,715.73Z"/><g class="cls-1"><path class="cls-2" d="M1721.31,835.65c-21.52-23.47-50.91-65-52-89.64-1.63-34.13,55.7-61,88.47-131.82,25.2-54.41-16.35-92.17-36.94-106.75,54.15.74,96.32,45.23,106.51,121.4C1843.32,748.53,1721.31,835.65,1721.31,835.65Z"/></g><path class="cls-2" d="M1205,2067.58c-10.87,0-21.82-.11-32.93-.33a17.48,17.48,0,0,1-17.16-17.83,17.3,17.3,0,0,1,17.83-17.16c275.46,5.26,470.38-56.18,579.28-182.72,105.12-122.15,135.44-303.52,92.67-554.47a17.5,17.5,0,0,1,34.51-5.88c44.62,261.87,11.7,452.63-100.65,583.18C1667,2002,1474.13,2067.57,1205,2067.58Z"/><path class="cls-2" d="M1172.39,2067.26h-.09c-80.94-.46-155.41-5-221.37-13.55-199-23-338.68-91-414.94-202.13-88.5-128.93-72.86-288.66-44.15-399.95,27.7-107.36,67.13-196.91,105.26-283.52,47.35-107.53,92.08-209.11,100.17-322a17.5,17.5,0,1,1,34.91,2.5c-8.52,118.94-54.44,223.22-103,333.61-37.57,85.32-76.42,173.55-103.41,278.15-26.9,104.26-41.94,253.32,39.12,371.41,70.28,102.38,201.61,165.36,390.34,187.2,64.77,8.37,137.8,12.83,217.3,13.28a17.5,17.5,0,0,1-.1,35Z"/><ellipse class="cls-13" cx="1601.79" cy="1623.77" rx="73.9" ry="126.44" transform="translate(-255.36 2947.91) rotate(-80.88)"/><g class="cls-4"><ellipse class="cls-5" cx="1608.21" cy="1600.84" rx="26.65" ry="45.59" transform="translate(-227.32 2934.96) rotate(-80.88)"/></g><ellipse class="cls-13" cx="751.92" cy="1610.65" rx="125.28" ry="73.22" transform="translate(-269.37 155.82) rotate(-10.04)"/><g class="cls-4"><ellipse class="cls-5" cx="747.71" cy="1581.97" rx="44.29" ry="25.89" transform="translate(-264.43 154.64) rotate(-10.04)"/></g><path class="cls-9" d="M995.5,627.35c-.79,6.39-24.69,67.73-26,75.76-7.42,46.39-32.69,91-54.84,122.24-14.94,21.14-28.53,36.09-34.2,41.33-4.43,4.07-17.68,17.88-35.39,33.66-25.36,22.51-59.85,49-91,56.64-16.39,4-31.83,2.85-44.49-6.82C664,915.25,728.82,884.87,789,813.48c1.31-1.55,2.59-3.11,3.9-4.7a369.77,369.77,0,0,0,26.43-36.52c64.52-102.21,165.8-160,165.8-160C969.91,628.39,1002.36,571.9,995.5,627.35Z"/><path class="cls-2" d="M737.39,961.66c-11.21,0-21-3.18-29.32-9.51-10.46-8-15.79-16.2-16.3-25.06-1.06-18.24,18.13-36.79,44.68-62.47,15.57-15.06,33.21-32.12,50.6-52.75,1-1.13,1.89-2.27,2.84-3.41l1.05-1.28a364.83,364.83,0,0,0,26.23-36.26c55.9-88.54,140.26-144.51,161.63-157.78a11.63,11.63,0,0,1,.6-1.48c1.28-2.74,7.81-13.46,14.16-11.6,5.23,1.51,6.6,10,4.42,27.6-.4,3.2-5.05,16.16-12.68,37.12-5.95,16.36-12.69,34.89-13.31,38.72-7.76,48.5-34.34,93.82-55.28,123.29-15.79,22.36-29.49,37.07-34.53,41.72-1.31,1.21-3.38,3.25-6.1,5.94-6.7,6.62-16.82,16.62-29.34,27.76-35.71,31.7-66.69,50.95-92.06,57.2A72.3,72.3,0,0,1,737.39,961.66ZM980.85,617.75C959,631.41,876.29,686.63,821.4,773.59a372.92,372.92,0,0,1-26.59,36.77l-1.06,1.28c-1,1.16-1.91,2.31-2.88,3.46-17.54,20.82-35.29,38-50.94,53.11-25.6,24.76-44.09,42.64-43.17,58.59.42,7.32,5.12,14.31,14.34,21.37,11.07,8.45,25.33,10.59,42.38,6.38,24.58-6,54.84-24.92,89.94-56.08,12.42-11.05,22.48-21,29.15-27.58,2.78-2.75,4.89-4.83,6.22-6,4.9-4.53,18.29-18.92,33.85-40.93,20.63-29,46.81-73.65,54.41-121.2.7-4.3,6.94-21.47,13.56-39.64,5.65-15.54,12.06-33.15,12.41-36h0c2.52-20.41-.85-22.18-.88-22.19-1.29-.11-3.94,2.45-5.95,5.17a2.51,2.51,0,0,1,.72,4C985.22,615.78,983,618.18,980.85,617.75Z"/><path class="cls-3" d="M1354.89,556.68s-12.14,9.09-30.9,23.4c-7.17,5.49-15.31,11.75-24.13,18.57C1234,649.56,1131.26,731.34,1122.7,753c-3.36,8.46-13.7,27.57-30,51.39-7.47,10.88-16.18,22.74-26,35a2.24,2.24,0,0,1-.3.32c-24.28,30.25-55.5,62.94-92.18,89.47-33.26,24.07-71,43-112.05,50.39a204.34,204.34,0,0,1-21.11,2.76c-155.75,12.24-92.9-22-92.9-22s2.1-1.17,5.92-3.35a730.26,730.26,0,0,0,86.11-59.31c25.43-20.4,52.19-44.93,74.49-72.32,21.73-26.63,39.25-55.91,47.37-86.69,6.26-23.74,12.4-44.14,18.43-61.58,25.14-72.73,48.63-95.22,72.5-100.06C1082.61,571,1291.32,541.58,1354.89,556.68Z"/><path class="cls-3" d="M784.1,987.48c-41.22,0-49.06-6.33-50.68-11.79C731,967.35,744.27,959.6,747,958.13h0s2.09-1.16,5.89-3.32a732.87,732.87,0,0,0,85.78-59.09c29.71-23.84,54.65-48.05,74.11-72,23.8-29.17,39.58-58,46.89-85.75,6.11-23.17,12.33-43.95,18.48-61.76,22.28-64.42,45.21-95.78,74.37-101.69,28.78-5.81,238-35.77,303-20.32a2.51,2.51,0,0,1,.92,4.44s-12.15,9.07-30.88,23.38c-7.16,5.49-15.3,11.75-24.12,18.56C1193.89,683.7,1131.26,738.12,1125,753.87c-3.59,9-14.34,28.59-30.25,51.89-8.19,11.9-17,23.74-26.13,35.19-.1.12-.51.56-.64.67-28.76,35.9-59.94,66.15-92.33,89.58-37.2,26.93-75.24,44-113.07,50.83a207.53,207.53,0,0,1-21.36,2.78C817.27,986.7,798.61,987.48,784.1,987.48ZM1302.32,555c-84.78,0-220.69,18.81-248.85,24.49-18.32,3.72-42.92,18.26-70.63,98.42-6.11,17.69-12.29,38.35-18.37,61.41-7.5,28.42-23.6,57.91-47.85,87.63-19.69,24.17-44.88,48.63-74.87,72.68a735,735,0,0,1-86.41,59.53c-3.86,2.2-6,3.37-6,3.37-5.1,2.78-12.15,8.44-11.16,11.76.92,3.13,11.08,12.75,102.64,5.56a200.37,200.37,0,0,0,20.86-2.73c37.08-6.66,74.44-23.46,111-50,32-23.16,62.88-53.1,91.7-89q14.05-17.5,26.2-35.21c15.7-23,26.25-42.12,29.73-50.9,8.4-21.24,101.41-96.21,177.95-155.35,8.82-6.83,17-13.09,24.15-18.58,12-9.19,21.34-16.22,26.48-20.09C1337,555.88,1320.86,555,1302.32,555Z"/><path class="cls-9" d="M1522.75,667.13a213.34,213.34,0,0,0-35.2,2.15c-20.65,3.27-42.64,11-61.53,28.86-33,31.23-102,122.92-199.07,201.45-7,5.66-14.06,11.2-21.31,16.69-36.85,27.83-77.4,53.22-121.25,72.57a4.69,4.69,0,0,0-.44.2c-36.21,15.93-74.68,27.75-115.16,33.42,0,0-129.13-9.06-127-34.12,0,0,7.6-3,20.34-8.79a834.9,834.9,0,0,0,96-51.42c37.74-23.66,77.74-53.58,108.26-88.44a2.24,2.24,0,0,0,.3-.32,257.75,257.75,0,0,0,26-35,180.11,180.11,0,0,0,18.82-41s52.16-68.62,64.74-82.77c24-27,90.87-63.59,115-81.57,4.27-3.19,7.2-5.81,8.31-7.69,2.08-3.51,11.34-7.56,24.42-11.22,32.66-9.17,89.11-16.08,116.7-7.21C1475.12,584,1533,624.27,1553.1,650a46.4,46.4,0,0,1,5.48,8.58C1563.91,670,1547.55,667.4,1522.75,667.13Z"/><path class="cls-9" d="M968.79,1025h-.17c-4.43-.31-108.54-7.85-126.36-28.71a10.82,10.82,0,0,1-2.92-8.12A2.51,2.51,0,0,1,840.9,986c.08,0,7.71-3.08,20.24-8.75A827.64,827.64,0,0,0,956.81,926c45.13-28.29,81.37-57.89,107.71-88a257.28,257.28,0,0,0,26.06-35,177.74,177.74,0,0,0,18.56-40.44,2.31,2.31,0,0,1,.4-.78c2.13-2.8,52.36-68.86,64.86-82.92,16.46-18.52,52.49-41.29,81.44-59.59,14-8.88,26.17-16.55,33.92-22.33,5.25-3.91,7.06-5.94,7.66-7,2.41-4.07,11.13-8.22,25.9-12.36,30.25-8.48,88.71-16.64,118.14-7.18,34.3,11.11,92.7,51.2,113.61,78a48.86,48.86,0,0,1,5.78,9.07c1.55,3.33,1.64,6.1.24,8.22-3.12,4.77-12.16,4.52-27.18,4.09-3.47-.1-7.22-.2-11.19-.24h0a210.51,210.51,0,0,0-34.79,2.12c-24.53,3.88-44.22,13.1-60.19,28.2-10,9.5-23.32,24.49-40.12,43.48-38.67,43.68-91.63,103.51-159.1,158.1-6.62,5.4-13.62,10.88-21.38,16.74-40.43,30.55-81.39,55.06-121.73,72.87-38.93,17.12-77.9,28.43-116.27,33.81ZM844.41,990a7,7,0,0,0,1.65,3c13.15,15.39,85.82,24.35,122.65,27,37.83-5.33,76.26-16.5,114.23-33.2l.5-.22c39.94-17.63,80.56-41.95,120.69-72.26,7.71-5.83,14.65-11.27,21.24-16.63,67.15-54.34,120-114,158.5-157.54,16.89-19.08,30.23-34.14,40.43-43.79,16.73-15.81,37.29-25.47,62.86-29.51a217.24,217.24,0,0,1,35.62-2.18c4,0,7.77.15,11.27.25,10.47.28,21.27.59,22.86-1.84.37-.56.15-1.78-.6-3.37a43.78,43.78,0,0,0-5.19-8.11c-20-25.7-78.25-65.65-111.2-76.31-25.74-8.28-79.87-2.69-115.25,7.24-15,4.19-21.74,8.06-23,10.08s-4.09,4.77-9,8.42c-7.91,5.9-20.11,13.61-34.24,22.54-28.69,18.13-64.38,40.7-80.37,58.69-11.91,13.4-60.3,76.94-64.36,82.28a183,183,0,0,1-18.93,41.15A262.08,262.08,0,0,1,1068.58,841c-.08.09-.47.5-.57.59-26.39,30.18-63,60.09-108.54,88.64a833.83,833.83,0,0,1-96.27,51.58C854,986,847.33,988.8,844.41,990Z"/><path class="cls-3" d="M1578.63,860.37c-38.89,69.15-248.88,165.29-407.69,188.24s-216.08-27.16-216.08-27.16a87.86,87.86,0,0,0,13.93,1c32.05.33,72.56-12.9,115.16-33.42a4.69,4.69,0,0,1,.44-.2c40.4-19.51,82.64-45.49,121.25-72.57,8.29-5.78,16.4-11.66,24.27-17.51,55.57-41.14,100.23-82.21,115.29-104.66,39.31-58.55,90.57-97.76,131.4-120.2a60.71,60.71,0,0,1,11-4.63c11.52-3.61,23.73-3.76,35.2-2.15a145.81,145.81,0,0,1,36.25,10.5,133.27,133.27,0,0,1,14.49,7.15C1586.21,693,1617.55,791.22,1578.63,860.37Z"/><path class="cls-2" d="M1091.81,1057.18c-98.54,0-136.68-32.16-138.6-33.85a2.48,2.48,0,0,1-.62-2.93,2.54,2.54,0,0,1,2.65-1.42,97.86,97.86,0,0,0,13.54,1h1.15c29.24,0,67.21-11.16,112.93-33.18l.58-.26c37.15-17.95,79-43,120.76-72.31,7.79-5.43,15.71-11.14,24.21-17.47,53.37-39.51,99.47-81.32,114.72-104,44.7-66.6,102-104.39,132.26-121a64.31,64.31,0,0,1,11.41-4.83c10.75-3.36,23-4.1,36.3-2.24A145.91,145.91,0,0,1,1560,675.33a136.49,136.49,0,0,1,14.79,7.3c14.92,9.66,44.93,109.86,6,179h0c-38.76,68.94-249.26,166.34-409.51,189.49A557.77,557.77,0,0,1,1091.81,1057.18Zm-127.4-32.29c20.47,12.07,82.44,39.1,206.18,21.24,159.06-23,367.68-119.09,405.86-187h0c38.29-68,6.84-165-4.32-172.26h0a133.44,133.44,0,0,0-14.12-7,141.26,141.26,0,0,0-35.61-10.33c-12.6-1.76-24.07-1.08-34.1,2.06a58.42,58.42,0,0,0-10.5,4.45c-29.81,16.38-86.41,53.68-130.52,119.39C1331.5,819,1286,860.35,1231.4,900.78c-8.55,6.35-16.51,12.09-24.33,17.55-42,29.48-84.07,54.64-121.59,72.77C1038,1014,998.93,1025.5,968.77,1025,967.3,1025,965.86,1025,964.41,1024.89Z"/><path class="cls-2" d="M905.79,1033.59c-8,0-12.93-.3-14.09-.39a10.2,10.2,0,0,1,1.43-20.34c1.9.13,191.51,11.25,359-141.85,42.88-39.19,74.82-77.31,103-110.93,68.25-81.45,113.35-135.24,223-87.45a10.2,10.2,0,1,1-8.15,18.7c-95.71-41.71-132.5,2.17-199.27,81.85-28.58,34.11-61,72.78-104.87,112.89C1116.54,1022.59,954.17,1033.59,905.79,1033.59Z"/><path class="cls-5" d="M1058.18,692.27c1.84.77,3.73,1.53,5.67,2.25-1.94-.68-3.83-1.44-5.67-2.2-1.65-.68-3.2-1.44-4.75-2.23C1055,690.88,1056.53,691.6,1058.18,692.27Z"/><path class="cls-2" d="M1063.85,696.56a2,2,0,0,1-.68-.12c-2-.69-3.89-1.47-5.77-2.24-1.69-.7-3.29-1.48-4.9-2.29a2,2,0,0,1-1.11-1.82,2,2,0,0,1,3-1.81c1.5.76,3,1.46,4.59,2.1h0c1.82.75,3.69,1.5,5.6,2.22a2,2,0,0,1,1.21,2.61A2.07,2.07,0,0,1,1063.85,696.56Z"/><path class="cls-5" d="M1076.1,698.75q-6.39-1.95-12.2-4.19Q1069.78,696.74,1076.1,698.75Z"/><path class="cls-2" d="M1076.1,700.79a2,2,0,0,1-.59-.09c-4.08-1.24-8.23-2.66-12.34-4.24a2,2,0,0,1,1.43-3.81c3.9,1.43,7.93,2.83,12.11,4.15a2,2,0,0,1-.61,4Z"/><path class="cls-2" d="M1013.1,695.3a192.87,192.87,0,0,0,34.27,23.84,220.72,220.72,0,0,0,38,16.64c26.19,8.78,53.52,12.59,81.44,12.33,14.09.4,28-.91,41.87-2a290.14,290.14,0,0,0,40.75-7.8A202.43,202.43,0,0,0,1288,723.08c12.51-6.28,24.16-14.34,37.13-21.84a4.09,4.09,0,0,1,4.85,6.53l-.12.12c-10.37,9.71-21.29,20-33.71,28.65a177.28,177.28,0,0,1-40.33,21.1,234.36,234.36,0,0,1-44,11.38c-7.46.94-15,2.26-22.46,2.5l-11.25.71-11.22.17c-14.92.52-30.35-1-45.33-3.51a209.07,209.07,0,0,1-43.81-13.1,220,220,0,0,1-20.46-10.17,207.49,207.49,0,0,1-19-12.64c-12-9.35-23-19.63-31.58-32.63a4.08,4.08,0,0,1,6.1-5.32Z"/><g class="cls-1"><path class="cls-2" d="M1578.63,860.37c-38.89,69.15-248.88,165.29-407.69,188.24s-216.08-27.16-216.08-27.16a87.86,87.86,0,0,0,13.93,1s-129.13-9.06-127-34.12c0,0,7.6-3,20.34-8.79a204.34,204.34,0,0,1-21.11,2.76c-155.75,12.24-92.9-22-92.9-22s2.1-1.17,5.92-3.35c-16.39,4-31.83,2.85-44.49-6.82-46.62-35.66-6.4-34.84,54.76-109.6-7.9,35.12,22.25,54.35,79.18,73.65s234.65,59.08,396.67,35.34c298.48-43.73,333.29-264.77,333.29-264.77C1586.21,693,1617.55,791.22,1578.63,860.37Z"/></g><g class="cls-4"><path class="cls-5" d="M1005.5,597.35c-15.18,16.13-26,28.77-32.89,84.22C925.52,709,880.54,745.16,837.42,792.76,816,816.38,800.26,821.5,789,813.48c1.31-1.55,2.59-3.11,3.9-4.7a369.77,369.77,0,0,0,26.43-36.52C883.81,670.05,1005.5,597.35,1005.5,597.35Z"/></g><g class="cls-4"><path class="cls-5" d="M1438.46,609.36c6,6.43,9.2,13.7,8.75,21.18-1.41,23.05-37,39.62-79.47,37s-75.8-23.35-74.39-46.4c.57-9.37,6.75-17.63,16.78-24-6.08.13-12.12.39-18.25.79-2.84.14-5.69.35-8.59.61-1.68.13-3.39.26-5.08.43C1167,609.24,1066.4,631.54,975.15,686.48c22.83-73.49,45.58-96.71,69.29-102.31,29.43-6.92,257-44.89,321.06-31.82,0,0-1.71.09-20,15,32.35-10.2,58.47-7.64,86.32.36,34.77,10,93.9,48.44,114.81,73.54A701.34,701.34,0,0,0,1438.46,609.36Z"/></g><path class="cls-2" d="M1572.3,687.44a14.28,14.28,0,0,1-12.37-7.11c-50.21-86.52-166.12-131.56-317.87-123.5a14.28,14.28,0,1,1-1.5-28.52c162.83-8.63,288.28,41.57,344.07,137.68a14.28,14.28,0,0,1-12.33,21.45Z"/><path class="cls-2" d="M1088.18,1062c-91,0-183.39-16.64-284.54-49.59-78.76-25.67-116.35-51.36-121.91-83.32-6.36-36.63,32.41-66.66,69.91-95.7C774.72,815.53,798.58,797,807.83,780c.18-.33.37-.65.58-1,7-10.75,13.6-21.66,20-32.22,21.1-34.87,42.91-70.92,84.48-111.63,14.52-14.22,56.43-49.66,131.87-71.7a14.28,14.28,0,1,1,8,27.41c-69.23,20.23-106.9,52-119.89,64.69-39,38.18-58.92,71.13-80,106-6.42,10.62-13.05,21.58-20.2,32.57-12.23,22.06-38.29,42.25-63.51,61.78-29.38,22.75-62.67,48.54-59.25,68.23,1.89,10.94,17.75,33.41,102.62,61.06,223.27,72.74,395.18,64.82,613.11-28.23,84-35.87,136.45-81,155.9-134.1,10-27.26,16-71.4-11.8-126.88l-.45-.88c-1.31-2.59-2.29-4.55-2.84-5.73a14.28,14.28,0,0,1,25.86-12.11c.47,1,1.33,2.72,2.47,5l.46.92c32.44,64.63,25,117,13.12,149.54-22.27,60.8-80,111.45-171.51,150.54C1313.4,1036,1201.92,1062,1088.18,1062Z"/><path class="cls-2" d="M734.84,971.13a10.2,10.2,0,0,1-4.25-19.48c1.91-.87,191.29-88.74,217.94-199.85,4.65-19.37,8-35.78,10.92-50.26C972,639.64,977.22,614,1043,568.82a10.2,10.2,0,0,1,11.56,16.81c-59,40.53-63,60.55-75.09,120-3,14.64-6.34,31.23-11.08,51-29,120.77-221.12,209.9-229.28,213.64A10.18,10.18,0,0,1,734.84,971.13Z"/><path class="cls-2" d="M793.59,1004.18a10.2,10.2,0,0,1-1.75-20.25c2.22-.39,223.6-40.95,294.67-186.71,49.76-102.08,162.92-268.54,361.39-236.65a10.19,10.19,0,1,1-3.23,20.13c-185.49-29.77-292.54,128.46-339.83,225.45-75.65,155.19-300,196.2-309.47,197.87A9.82,9.82,0,0,1,793.59,1004.18Z"/><path class="cls-14" d="M1265.92,726.36c-27,34.82-77.32,33.74-98.32,33.71-12.59,0-35.74.16-58-7.27-21-6.95-41.24-20.66-51.13-47.74,62.44-14.2,158.49-43.81,221.12-94.2,2.84,20.43,4.43,39,4.38,54.54C1283.82,693,1276.75,712.51,1265.92,726.36Z"/><path class="cls-2" d="M1172.28,762.58h-5.77c-13.35,0-35.68-.06-57.73-7.4-26.18-8.67-43.92-25.24-52.7-49.25a2.51,2.51,0,0,1,1.8-3.3c53.95-12.26,154.28-40.75,220.11-93.71a2.51,2.51,0,0,1,4,1.61c3,21.39,4.45,39.85,4.4,54.89-.12,25.89-6.36,46.91-18.55,62.49C1242,761.24,1195.05,762.58,1172.28,762.58ZM1061.8,706.85c8.55,21.08,24.87,35.74,48.56,43.58,21.29,7.08,43.12,7.12,56.16,7.14h2.8c22.37,0,69,.2,94.63-32.75h0c11.49-14.68,17.38-34.67,17.49-59.42,0-13.77-1.22-30.53-3.77-49.84C1212.21,666.48,1115.83,694.37,1061.8,706.85Z"/><g class="cls-1"><ellipse class="cls-2" cx="1165.94" cy="721.74" rx="77.74" ry="167.37" transform="translate(339.51 1815.97) rotate(-84.7)"/></g><path class="cls-5" d="M1223.67,515.37a351.33,351.33,0,0,1-37,15.18,331.4,331.4,0,0,1-85,17.71L1120.88,491l28.89-85.87c5.09-15.11,29.38-15.31,34.67-.29l27.16,76.47Z"/><path class="cls-2" d="M1101.65,550.3a2,2,0,0,1-1.93-2.69l48.11-143.12c2.61-7.73,10.15-12.77,19.22-12.83h.17c9,0,16.46,4.91,19.15,12.52l39.22,110.51a2,2,0,0,1-1,2.53,357.23,357.23,0,0,1-37.18,15.27,333.15,333.15,0,0,1-85.58,17.82Zm65.55-154.56h-.12c-5.55,0-12.9,2.69-15.38,10.05L1104.56,546A329.57,329.57,0,0,0,1186,528.62a351.63,351.63,0,0,0,35.1-14.3l-38.61-108.78C1180,398.29,1172.7,395.74,1167.2,395.74Z"/><path class="cls-14" d="M1279.56,610.86c-62.63,50.39-158.68,80-221.12,94.2-4.07-11.14-6.41-24.5-6.36-40.55.1-23.36,3.9-53.22,10.18-86.24v0c3-.63,6.07-1.34,9.22-2,9.7-2.29,20.2-4.87,31.23-7.9,4.55-1.24,9.18-2.55,13.89-3.89s9.5-2.77,14.33-4.3l0,0c3.21-1,6.46-2,9.76-3.1,2.34-.75,4.64-1.5,7-2.29l2.3-.8,4.69-1.58c1-.36,2-.69,3-1.06,1.74-.59,3.53-1.22,5.28-1.89q14.13-5.1,28.27-11c2.91-1.18,5.83-2.4,8.7-3.67.72-.3,1.44-.65,2.16-1,2.83-1.23,5.63-2.5,8.43-3.77,0,0,.08,0,.12-.07,3.28-1.51,6.52-3,9.77-4.61s6.49-3.19,9.7-4.86,6.43-3.34,9.57-5.05a4.29,4.29,0,0,0,.48-.24c1-.57,2-1.09,2.94-1.65,1.64-.91,3.3-1.86,4.95-2.77,3.46-2,6.85-4,10.2-6.07,2.86,11.76,5.61,23.44,8.14,34.94,5,22.9,9.23,45,12.27,65.41C1279,607,1279.29,608.94,1279.56,610.86Z"/><path class="cls-2" d="M1058.43,707.56a2.51,2.51,0,0,1-2.35-1.64c-4.36-12-6.55-25.89-6.5-41.41.09-22.4,3.54-51.57,10.23-86.7,0-1.19.78-1.78,1.94-2q3.16-.67,6.45-1.43l2.75-.61c11.67-2.75,21.57-5.25,31.12-7.87,4.53-1.23,9.15-2.55,13.85-3.88s9.3-2.71,14-4.21a1.62,1.62,0,0,1,.28-.11l1.92-.61c2.58-.8,5.18-1.62,7.81-2.48,2.35-.76,4.64-1.51,7-2.3l9.88-3.41c1.78-.6,3.54-1.22,5.25-1.88,9.21-3.31,18.68-7,28.22-10.93q4.35-1.77,8.65-3.65l2.17-1c2.62-1.12,5.19-2.29,7.78-3.45l.48-.22.24-.13c3.26-1.5,6.48-3,9.71-4.59s6.46-3.16,9.65-4.82,6.4-3.33,9.52-5l1.68,1.95L1239,513l7.9-4.42c3.41-1.94,6.78-4,10.11-6a2.5,2.5,0,0,1,3.73,1.54c3.2,13.16,5.87,24.61,8.15,35,5.26,23.95,9.39,46,12.3,65.57.25,1.55.47,3.11.69,4.67l.17,1.19a2.5,2.5,0,0,1-.91,2.3c-66.61,53.59-167.77,82.33-222.14,94.68A2.2,2.2,0,0,1,1058.43,707.56Zm6-127.23c-6.44,34.12-9.75,62.44-9.84,84.19,0,14,1.8,26.67,5.47,37.6,54.13-12.46,151.87-40.64,216.84-92.32-.21-1.45-.42-2.93-.65-4.4-2.89-19.46-7-41.41-12.24-65.25-2.08-9.47-4.48-19.82-7.32-31.56-2.42,1.46-4.87,2.91-7.35,4.32l-5,2.79c-.64.37-1.33.74-2,1.13l-.91.51a4.21,4.21,0,0,1-.68.34c-3,1.64-6.22,3.36-9.45,5s-6.48,3.27-9.74,4.87-6.44,3.09-9.7,4.58a1.3,1.3,0,0,1-.26.14l-.61.28c-2.61,1.18-5.22,2.36-7.86,3.5l-2.18,1c-2.86,1.26-5.79,2.49-8.72,3.68-9.6,4-19.15,7.67-28.37,11-1.74.66-3.56,1.31-5.33,1.91l-10,3.43c-2.43.8-4.73,1.56-7.08,2.31-2.63.87-5.25,1.69-7.85,2.5l-1.68.53a1.53,1.53,0,0,1-.27.11c-4.86,1.54-9.68,3-14.4,4.32s-9.36,2.66-13.92,3.91c-9.6,2.63-19.56,5.14-31.32,7.91l-2.76.62Z"/><path class="cls-14" d="M1258.3,504.67c-3.35,2.05-6.74,4.1-10.2,6.07-1.65.91-3.31,1.86-4.95,2.77-1,.56-1.94,1.08-2.94,1.65a4.29,4.29,0,0,1-.48.24c-3.14,1.71-6.36,3.42-9.57,5.05s-6.45,3.27-9.7,4.86-6.49,3.1-9.77,4.61c0,0-.08,0-.12.07-2.8,1.27-5.6,2.54-8.43,3.77-.72.3-1.44.65-2.16,1-2.87,1.27-5.79,2.49-8.7,3.67q-14.12,5.85-28.27,11c-1.75.67-3.54,1.3-5.28,1.89-1,.37-2,.7-3,1.06l-4.69,1.58-2.3.8c-2.38.79-4.68,1.54-7,2.29-3.3,1.08-6.55,2.09-9.76,3.1l0,0c-4.83,1.53-9.62,2.95-14.33,4.3s-9.34,2.65-13.89,3.89c-11,3-21.53,5.61-31.23,7.9-3.15.7-6.23,1.41-9.22,2,8-41.89,19.82-88.76,32.81-133.41v0c30.48-7.6,66.63-18.38,102.35-32.92,10.49-4.3,21-8.88,31.24-13.81C1239.1,431.73,1249.5,468.48,1258.3,504.67Z"/><path class="cls-2" d="M1062.27,580.74a2.51,2.51,0,0,1-2.46-3c7.37-38.81,18.73-85,32.86-133.65a2,2,0,0,1,1.8-1.77,756.4,756.4,0,0,0,102-32.81c11.25-4.61,21.43-9.11,31.1-13.75a2.56,2.56,0,0,1,2.08,0,2.48,2.48,0,0,1,1.39,1.55c11.3,36.48,21.56,73.41,29.67,106.77a2.51,2.51,0,0,1-1.12,2.73c-3.37,2.06-6.79,4.12-10.28,6.1l-5,2.79c-.64.37-1.33.74-2,1.13l-.91.51a4.21,4.21,0,0,1-.68.34c-3,1.64-6.22,3.36-9.45,5s-6.48,3.27-9.74,4.87-6.44,3.09-9.7,4.58a1.3,1.3,0,0,1-.26.14l-.61.28c-2.61,1.18-5.22,2.36-7.86,3.5l-2.18,1c-2.86,1.26-5.79,2.49-8.72,3.68-9.6,4-19.15,7.67-28.37,11-1.74.66-3.56,1.31-5.33,1.91l-10,3.43c-2.43.8-4.73,1.56-7.08,2.31-2.63.87-5.25,1.69-7.85,2.5l-1.68.53a1.53,1.53,0,0,1-.27.11c-4.86,1.54-9.68,3-14.4,4.32s-9.36,2.66-13.92,3.91c-9.6,2.63-19.56,5.14-31.32,7.91l-2.76.62c-2.21.5-4.39,1-6.52,1.44A2.22,2.22,0,0,1,1062.27,580.74Zm34.78-133.88c-13.49,46.69-24.35,90.72-31.61,128.12l2.76-.62,2.75-.61c11.67-2.75,21.57-5.25,31.12-7.87,4.53-1.23,9.15-2.55,13.85-3.88s9.3-2.71,14-4.21a1.62,1.62,0,0,1,.28-.11l1.92-.61c2.58-.8,5.18-1.62,7.81-2.48,2.35-.76,4.64-1.51,7-2.3l9.88-3.41c1.78-.6,3.54-1.22,5.25-1.88,9.21-3.31,18.68-7,28.22-10.93q4.35-1.77,8.65-3.65l2.17-1c2.62-1.12,5.19-2.29,7.78-3.45l.48-.22.24-.13c3.26-1.5,6.48-3,9.71-4.59s6.46-3.16,9.65-4.82,6.4-3.33,9.52-5l1.68,1.95L1239,513l7.9-4.42c2.88-1.64,5.73-3.34,8.55-5.06-7.81-32-17.57-67.1-28.31-101.94-9,4.24-18.41,8.38-28.76,12.62A759.56,759.56,0,0,1,1097.05,446.86Z"/><path class="cls-14" d="M1228.67,398.05c-10.29,4.93-20.75,9.51-31.24,13.81-35.72,14.54-71.87,25.32-102.35,32.92,11.26-38.7,23.31-75.76,34.39-106.38,1.82-5,3.59-9.85,5.35-14.49,14.65-38.88,54.69-38.7,69.08.24C1211.7,345.46,1220.23,370.75,1228.67,398.05Z"/><path class="cls-2" d="M1095.08,447.27a2.46,2.46,0,0,1-1.8-.76,2.5,2.5,0,0,1-.6-2.43c11-37.89,22.93-74.73,34.44-106.53,1.83-5,3.6-9.88,5.36-14.53,7.24-19.21,21-30.67,36.86-30.67h.11c15.9,0,29.65,11.61,36.79,30.94,8.12,22.19,16.7,47.78,24.82,74a2.5,2.5,0,0,1-1.31,3c-9.76,4.67-20,9.21-31.38,13.86a760.7,760.7,0,0,1-102.69,33A2.46,2.46,0,0,1,1095.08,447.27Zm74.26-149.92c-13.68,0-25.7,10.25-32.18,27.44q-2.62,6.94-5.34,14.46c-11,30.53-22.47,65.73-33.12,102a749.92,749.92,0,0,0,97.79-31.74c10.5-4.3,20.06-8.51,29.16-12.82-7.91-25.43-16.23-50.19-24.1-71.71-6.38-17.28-18.39-27.62-32.12-27.66Z"/><g class="cls-1"><path class="cls-2" d="M1265.92,726.36,1196,755.1l-86.44-2.3c-21-6.95-41.24-20.66-51.13-47.74-4.07-11.14-6.41-24.5-6.36-40.55.1-23.36,3.9-53.22,10.18-86.24v0c8-41.89,19.82-88.76,32.81-133.41-1.2,27.29-1.87,79.89,7.64,123.47,7.48,34.32,21.28,63,46,69.44,46.92,12.15,98.11-7.4,130-32.71.31,2,.58,3.92.85,5.84,2.84,20.43,4.43,39,4.38,54.54C1283.82,693,1276.75,712.51,1265.92,726.36Z"/></g><g class="cls-4"><path class="cls-5" d="M1266.44,539.61l-8.36,37.92s-9.31-26.55-18.73-51.14c-12.75-33.3-26.88-80.65-41.92-114.53-9.88-22.38-18.61-42.47-24.1-55.75-10.26-24.92-28.29-24.46-43.86-17.71,1.82-5,3.59-9.85,5.35-14.49,14.65-38.88,54.69-38.7,69.08.24,7.8,21.31,16.33,46.6,24.77,73.9,10.43,33.68,20.83,70.43,29.63,106.62C1261.16,516.43,1263.91,528.11,1266.44,539.61Z"/></g><path class="cls-2" d="M1173,770.29h-6.82c-25.94-.08-94.84-.27-117.31-61.71a10.19,10.19,0,0,1,7.32-13.44c53.32-12.14,152.41-40.26,217-92.21a10.2,10.2,0,0,1,16.49,6.54c3,21.74,4.54,40.59,4.48,56-.17,44.92-17.59,75.95-51.77,92.2C1217.47,769.51,1189.8,770.29,1173,770.29Zm-5.33-20.42h1.6c14.59,0,41.65.16,64.34-10.63,26.86-12.79,40-37,40.13-73.88a326.39,326.39,0,0,0-2.12-35.75c-62.15,44-145.91,69.68-198.7,82.51,21.46,37.54,71.1,37.68,93.31,37.74Z"/><path class="cls-2" d="M1058.44,715.26a10.2,10.2,0,0,1-9.58-6.7c-4.67-12.79-7-27.63-7-44.1.09-22.8,3.57-52.41,10.35-88a10.21,10.21,0,0,1,7.85-8.15c43.76-9.57,127-31.67,192.86-72.28a10.2,10.2,0,0,1,15.26,6.25c9.91,40.36,17.12,76.42,21.43,107.18a10.18,10.18,0,0,1-3.71,9.36c-67.76,54.51-170.2,83.67-225.23,96.2A9.83,9.83,0,0,1,1058.44,715.26Zm12.63-128.53c-5.74,31.48-8.7,57.63-8.77,77.81a117.07,117.07,0,0,0,3.11,28.42c53.57-12.83,142.26-39.62,203.2-86.48-3.76-25.3-9.46-54.14-17-86C1188.76,556.28,1114.69,576.82,1071.07,586.73Z"/><path class="cls-2" d="M1062.28,588.45a10.2,10.2,0,0,1-10-12.1c7.39-39,18.81-85.44,33-134.4a10.18,10.18,0,0,1,7.33-7.05c33.88-8.45,84.21-23.28,131.66-46a10.2,10.2,0,0,1,14.15,6.18c11.25,36.29,21.55,73.38,29.8,107.23a10.2,10.2,0,0,1-4.55,11.1c-68.43,42.19-154.19,65-199.21,74.84A10.11,10.11,0,0,1,1062.28,588.45Zm41-135.2c-11.48,40-21,78.14-27.91,111.55,44.4-10.6,113.62-31,171.28-65-7-28-15.25-57.9-24.26-87.59C1179.29,431.74,1135.19,445.05,1103.25,453.25Z"/><path class="cls-2" d="M1095.07,455a10.21,10.21,0,0,1-9.79-13c12.77-43.93,27-87.13,40-121.65,8.29-22,25.17-35.65,44.07-35.65h.13c19,.07,35.81,13.85,44,36s16.7,47.72,25,74.41a10.19,10.19,0,0,1-5.33,12.21c-49,23.5-100.76,38.76-135.55,47.44A10.43,10.43,0,0,1,1095.07,455Zm74.28-149.94c-10.35,0-19.68,8.38-25,22.45C1133.23,357,1121.2,393,1110,430.37c30.32-8.26,68.88-20.61,106.32-37.77-7.34-23.31-14.88-45.6-22-64.92-5.21-14.13-14.52-22.6-24.9-22.63Z"/><path class="cls-2" d="M1173,775.09h-6.89c-26.85-.08-98.19-.27-121.79-64.86-4.88-13.34-7.33-28.74-7.26-45.77.09-23.05,3.58-52.89,10.39-88.7a2.93,2.93,0,0,0,0-.29c7.42-39.11,18.88-85.74,33.13-134.84,12.8-44.05,27-87.38,40.12-122,9-23.92,27.61-38.76,48.56-38.76h.15c21,.07,39.59,15.06,48.46,39.12,8.1,22.08,16.76,47.88,25,74.65,11.27,36.38,21.6,73.57,29.88,107.52,9.94,40.48,17.18,76.7,21.52,107.64,3.07,22,4.58,41.05,4.52,56.7-.22,58.45-29.76,84.75-54.51,96.52C1218.6,774.29,1190.24,775.09,1173,775.09Zm-96-194.3-.06.31c-6.49,34.11-9.83,62.19-9.91,83.45,0,13.47,1.77,25.37,5.43,35.36C1087,739.52,1128,745,1166.24,745.07h3c14.17.06,40.55.15,62.25-10.17,25-11.91,37.27-34.66,37.4-69.55h0c.06-14.23-1.37-31.86-4.23-52.42-4.2-29.93-11.25-65.14-21-104.66-8.14-33.4-18.3-70-29.39-105.78-8.15-26.28-16.63-51.58-24.55-73.16-4.42-12-12.25-19.45-20.41-19.48h-.05c-8.14,0-16,7.4-20.49,19.34-12.8,33.93-26.79,76.47-39.38,119.79C1095.52,497.07,1084.31,542.65,1077.07,580.79Z"/><ellipse class="cls-2" cx="1172.25" cy="1576.7" rx="13.68" ry="10.94" transform="translate(-459.76 2670.63) rotate(-87.2)"/><path class="cls-2" d="M1218.38,1579c-.37,7.55-5.56,13.43-11.59,13.13s-10.64-6.65-10.27-14.2,5.56-13.43,11.6-13.13S1218.75,1571.4,1218.38,1579Z"/><path class="cls-2" d="M744.37,1267l29.06,13.51a14.68,14.68,0,1,1-12.38,26.63,14.86,14.86,0,0,1-5.38-4.27l-19.74-25.24a7,7,0,0,1,8.44-10.63Z"/><path class="cls-2" d="M709.64,1309.5l33.12,5.11a14.48,14.48,0,0,1-4.42,28.63,14.76,14.76,0,0,1-4.64-1.55l-29.53-15.83a8.75,8.75,0,0,1,5.47-16.36Z"/><path class="cls-2" d="M700.61,1372.53l32-6a14.54,14.54,0,0,1,5.4,28.58,14.68,14.68,0,0,1-5.57,0l-31.94-6.42a8.2,8.2,0,0,1,.09-16.09Z"/><circle class="cls-2" cx="852.61" cy="1384" r="126.46" transform="translate(-728.91 1008.25) rotate(-45)"/><path class="cls-2" d="M852.61,1513a129,129,0,1,1,129-129A129.1,129.1,0,0,1,852.61,1513Zm0-252.91a124,124,0,1,0,124,124A124.09,124.09,0,0,0,852.61,1260.05Z"/><circle class="cls-5" cx="829.2" cy="1348.01" r="48.17" transform="translate(-710.32 981.16) rotate(-45)"/><path class="cls-2" d="M829.2,1398.08A50.07,50.07,0,1,1,879.27,1348,50.13,50.13,0,0,1,829.2,1398.08Zm0-96.32A46.26,46.26,0,1,0,875.45,1348,46.3,46.3,0,0,0,829.2,1301.76Z"/><circle class="cls-5" cx="893.24" cy="1438.93" r="24.23"/><path class="cls-2" d="M893.24,1465.08a26.15,26.15,0,1,1,26.15-26.15A26.17,26.17,0,0,1,893.24,1465.08Zm0-48.46a22.31,22.31,0,1,0,22.31,22.31A22.34,22.34,0,0,0,893.24,1416.62Z"/><path class="cls-2" d="M1125.78,1730.73c1.06-2.29,1.73-3.72,2.65-5.41s1.88-3.13,2.86-4.67a78.47,78.47,0,0,1,6.72-8.53,74.23,74.23,0,0,1,17.07-13.78,81.82,81.82,0,0,1,42.46-11.11c14.53.33,29.54,4,42,11.68a78.81,78.81,0,0,1,17,13.43,84,84,0,0,1,6.84,8.24c1,1.48,2,2.94,3,4.51s1.71,3,2.83,5.2a10.68,10.68,0,0,1-15.18,13.92l-3.53-2.23c-.57-.35-1.64-1.43-2.59-2.16s-2-1.65-3-2.45c-2-1.58-4.09-3.14-6.24-4.53a77.23,77.23,0,0,0-13.18-7.16,65.6,65.6,0,0,0-13.84-4.31,68.56,68.56,0,0,0-14.43-1.52c-2.43,0-4.88.09-7.29.22-2.35.39-4.81.45-7.09,1.07-4.77.62-9.16,2.4-13.66,4.08a67.49,67.49,0,0,0-12.83,7.11,75.24,75.24,0,0,0-6,4.56l-5.3,4.65-2.16,1.91a10.88,10.88,0,0,1-17.07-12.72Z"/><path class="cls-2" d="M766.5,1204.62c-12.11-2.9-11-20.41,1.33-21.93,37.19-4.58,82-13.59,104.35-31.28,42.1-33.33,70.38-30.05,77.08-5.38,7,25.91-48.12,85.19-143.94,66.9C790.73,1210.15,777.79,1207.32,766.5,1204.62Z"/><path class="cls-2" d="M1632.42,1204.62c12.12-2.9,11-20.41-1.32-21.93-37.2-4.58-82-13.59-104.36-31.28-42.09-33.33-70.38-30.05-77.07-5.38-7,25.91,48.11,85.19,143.94,66.9C1608.2,1210.15,1621.13,1207.32,1632.42,1204.62Z"/><g class="cls-1"><path class="cls-2" d="M1669.88,2517.3s-120.34,125.89-296.28,70.25c-128.78-40.76-98.23-163.05-98.23-163.05s-55.84-7-92.27-26.88c-36.39,19.9-92.31,26.88-92.31,26.88s30.55,122.29-98.23,163.05c-175.9,55.64-296.28-70.25-296.28-70.25l18-313.37s40.84,119.65,262.34,91.21c79.34-10.19,163.25.7,206.45,23.87,43.24-23.21,127.11-34.06,206.45-23.87,221.5,28.44,262.3-91.21,262.3-91.21Z"/></g><path class="cls-5" d="M1672.59,2161.47s-30.69,136-248.67,87.47c-102.81-22.89-216.81-10.13-237.4,27.83-32,59.08,111.91,90.56,111.91,90.56s-41.6,119,82.93,171.34c170.11,71.47,301.46-42.89,301.46-42.89"/><path class="cls-2" d="M1494.33,2564.47c-35,0-73.45-6.49-113.93-23.5-114.86-48.26-90.34-153.7-85.15-171.8-15.93-3.76-95.73-24.28-112.69-61.32-4.78-10.44-4.18-21.3,1.77-32.27,20.9-38.55,135.36-52.41,240.13-29.08,212.8,47.38,245.39-84.25,245.69-85.58a2.5,2.5,0,0,1,4.88,1.1c-.32,1.38-33.77,137.86-251.66,89.36-102.86-22.91-214.69-10.23-234.65,26.58-5.23,9.65-5.76,18.74-1.61,27.8,17.42,38.07,110.9,58.93,111.85,59.13a2.49,2.49,0,0,1,1.82,3.27c-1.66,4.77-39.31,117.42,81.55,168.2,166.73,70.06,297.54-41.33,298.85-42.47a2.5,2.5,0,0,1,3.28,3.77C1683.45,2498.54,1606,2564.47,1494.33,2564.47Z"/><path class="cls-7" d="M1298.44,2367.35s-41.61,119,82.93,171.33c115.81,48.66,213.67,11.17,264.34-17.71-11.75-128.25-70.94-214.2-116.06-262.17-29.12,2-64-.57-105.73-9.87-102.8-22.89-216.81-10.12-237.41,27.86C1154.48,2335.86,1298.44,2367.35,1298.44,2367.35Z"/><path class="cls-2" d="M1677.9,2162.66c.41,33.68-20.87,63.11-47.53,81.85a151.5,151.5,0,0,1-43.74,21.12,235.13,235.13,0,0,1-46.62,8.7c-31.15,2.93-61.92.8-91.83-4.15-7.54-1.07-14.89-2.74-22.31-4.2l-10.73-2.22c-3.45-.76-6.92-1.4-10.39-2.05-13.9-2.57-27.94-4.54-42-5.83-28.17-2.55-56.66-2.85-84.42.15a243.2,243.2,0,0,0-40.38,7.55c-12.69,3.58-25.21,8.9-32.59,15.61a21.76,21.76,0,0,0-4,4.77,23.55,23.55,0,0,0-2.44,5.79,14.55,14.55,0,0,0,.89,10.38c1.72,3.7,5.15,7.88,9.54,11.75a99.21,99.21,0,0,0,15.37,10.8c11.34,6.65,24.13,12.11,37.22,16.85a363.55,363.55,0,0,0,40.05,11.86,16.51,16.51,0,0,1,12.34,19.83q-.16.72-.39,1.41l0,.09c-.5,1.49-1.25,4.21-1.79,6.44-.57,2.38-1.09,4.79-1.53,7.23a142.4,142.4,0,0,0-1.21,44.3,107.61,107.61,0,0,0,22.11,52.48,121.67,121.67,0,0,0,20.75,20.3,170.57,170.57,0,0,0,25.52,15.6,288.29,288.29,0,0,0,28.84,11.65,274.1,274.1,0,0,0,30.15,8.54,270.79,270.79,0,0,0,62,6.53,277.62,277.62,0,0,0,61.93-8.07,231.5,231.5,0,0,0,29.93-9.46c9.72-4,19.09-8.64,28.55-13.08,19-8.83,37.47-18.25,60.16-23.5l.51-.12a5.9,5.9,0,0,1,6.63,8.32c-5.65,11.61-13.7,20.26-22.63,27.92a151.24,151.24,0,0,1-29.37,18.86c-10.43,5.2-21.43,9.16-32.45,12.86-11.09,3.53-22.17,7.08-33.49,9.88a311,311,0,0,1-69.32,9,304.13,304.13,0,0,1-69.59-7.32,311.16,311.16,0,0,1-33.62-9.52,318.2,318.2,0,0,1-32.61-13.22,202.4,202.4,0,0,1-31-19,153.61,153.61,0,0,1-26.52-26c-15.69-19.57-25.52-43.81-28.85-68.24a169.84,169.84,0,0,1-1-36.65,172.55,172.55,0,0,1,2.39-18.09c.54-3,1.19-6,1.9-9s1.46-5.76,2.7-9.51l11.92,21.32a393.21,393.21,0,0,1-44.14-13c-14.42-5.24-28.72-11.25-42.67-19.4a131,131,0,0,1-20.45-14.49c-6.53-5.83-13-12.86-17.54-22.45a47.65,47.65,0,0,1-2.87-32.43,42.16,42.16,0,0,1,2.57-7.43,49.55,49.55,0,0,1,3.5-6.93,54,54,0,0,1,10-12c7.27-6.6,15-10.89,22.6-14.49a157,157,0,0,1,23-8.37,275.07,275.07,0,0,1,45.85-8.63c30.49-3.28,60.85-2.93,91-.2,15.07,1.37,30.06,3.48,45,6.23,3.72.7,7.44,1.39,11.15,2.2l10.78,2.23c6.94,1.36,13.87,3,20.85,3.92,27.81,4.51,56,6.73,83.15,3.62a179.93,179.93,0,0,0,74.41-25.78c11-6.72,20.65-15.23,30-24.44a260.27,260.27,0,0,0,26.3-31.1l.61-.82a5.54,5.54,0,0,1,7.75-1.18A5.6,5.6,0,0,1,1677.9,2162.66Z"/><g class="cls-1"><path class="cls-2" d="M1298.44,2367.35s-41.61,119,82.93,171.33c115.81,48.66,213.67,11.17,264.34-17.71,23.74-13.58,37.12-25.21,37.12-25.21l-.61-19.54c-50.71,28.84-148.49,66.17-264.14,17.58-124.54-52.33-82.93-171.32-82.93-171.32s-110.14-24.07-116.3-69.68c-15.7,6.2-27.08,14.28-32.34,24C1154.48,2335.86,1298.44,2367.35,1298.44,2367.35Z"/></g><path class="cls-5" d="M693.59,2161.47s30.69,136,248.67,87.47c102.81-22.89,216.81-10.13,237.4,27.83,32,59.08-111.91,90.56-111.91,90.56s41.6,119-82.93,171.34c-170.11,71.47-301.46-42.89-301.46-42.89"/><path class="cls-2" d="M871.85,2564.47c-111.72,0-189.12-65.93-190.13-66.81a2.5,2.5,0,0,1,3.29-3.77c1.3,1.13,132.18,112.5,298.84,42.47,120.86-50.78,83.21-163.43,81.55-168.2a2.53,2.53,0,0,1,.17-2,2.51,2.51,0,0,1,1.65-1.22c.94-.2,94.43-21.06,111.85-59.13,4.15-9.06,3.62-18.15-1.61-27.8-20-36.81-131.8-49.49-234.66-26.58-217.86,48.53-251.33-88-251.65-89.36a2.5,2.5,0,1,1,4.88-1.1c.3,1.33,32.82,133,245.69,85.58,104.77-23.33,219.23-9.47,240.14,29.08,5.94,11,6.54,21.83,1.76,32.27-17,37-96.76,57.56-112.69,61.32,5.19,18.1,29.71,123.54-85.14,171.8C945.31,2558,906.88,2564.47,871.85,2564.47Z"/><path class="cls-7" d="M1067.74,2367.35s41.61,119-82.93,171.33C869,2587.34,771.14,2549.85,720.47,2521c11.75-128.25,70.94-214.2,116.06-262.17,29.12,2,64-.57,105.73-9.87,102.8-22.89,216.81-10.12,237.41,27.86C1211.7,2335.86,1067.74,2367.35,1067.74,2367.35Z"/><path class="cls-2" d="M698.9,2160.27a259.34,259.34,0,0,0,26.3,31.1c9.29,9.21,18.92,17.72,29.95,24.44a179.93,179.93,0,0,0,74.41,25.78c27.19,3.11,55.34.89,83.15-3.62,7-1,13.91-2.56,20.85-3.92l10.78-2.23c3.7-.81,7.43-1.5,11.15-2.2,14.9-2.75,29.89-4.86,45-6.23,30.12-2.73,60.49-3.08,91,.2a275.26,275.26,0,0,1,45.85,8.63,157.39,157.39,0,0,1,23,8.37c7.62,3.6,15.33,7.89,22.6,14.49a54,54,0,0,1,10,12,49.55,49.55,0,0,1,3.5,6.93,42.16,42.16,0,0,1,2.57,7.43,47.65,47.65,0,0,1-2.87,32.43c-4.55,9.59-11,16.62-17.53,22.45a131.57,131.57,0,0,1-20.46,14.49c-14,8.15-28.25,14.16-42.67,19.4a393.21,393.21,0,0,1-44.14,13l11.92-21.32c1.24,3.75,1.91,6.38,2.7,9.51s1.35,6,1.9,9a172.55,172.55,0,0,1,2.39,18.09,169.84,169.84,0,0,1-1,36.65c-3.33,24.43-13.16,48.67-28.85,68.24a153.61,153.61,0,0,1-26.52,26,202.4,202.4,0,0,1-31,19,318.2,318.2,0,0,1-32.61,13.22,311.16,311.16,0,0,1-33.62,9.52,304.18,304.18,0,0,1-69.59,7.32,310.91,310.91,0,0,1-69.32-9c-11.32-2.8-22.4-6.35-33.49-9.88-11-3.7-22-7.66-32.45-12.86a151.24,151.24,0,0,1-29.37-18.86c-8.93-7.66-17-16.31-22.63-27.92a5.89,5.89,0,0,1,6.63-8.32l.52.12c22.68,5.25,41.11,14.67,60.14,23.5,9.47,4.44,18.84,9.13,28.56,13.08a231.5,231.5,0,0,0,29.93,9.46,277.62,277.62,0,0,0,61.93,8.07,270.79,270.79,0,0,0,62-6.53,274.1,274.1,0,0,0,30.15-8.54,288.29,288.29,0,0,0,28.84-11.65,170.57,170.57,0,0,0,25.52-15.6,121.67,121.67,0,0,0,20.75-20.3,107.41,107.41,0,0,0,22.1-52.48,142.09,142.09,0,0,0-1.2-44.3c-.44-2.44-1-4.85-1.52-7.23-.55-2.23-1.3-4.95-1.8-6.44l0-.06a16.51,16.51,0,0,1,10.5-20.86c.47-.16,1-.3,1.44-.41a363.55,363.55,0,0,0,40-11.86c13.09-4.74,25.88-10.2,37.22-16.85a99.21,99.21,0,0,0,15.37-10.8c4.39-3.87,7.82-8.05,9.54-11.75a14.55,14.55,0,0,0,.89-10.38,23.55,23.55,0,0,0-2.44-5.79,21.76,21.76,0,0,0-4-4.77c-7.38-6.71-19.9-12-32.59-15.61a243.4,243.4,0,0,0-40.38-7.55c-27.76-3-56.25-2.7-84.42-.15-14.1,1.29-28.14,3.26-42,5.83-3.48.65-7,1.29-10.4,2.05L940.31,2266c-7.42,1.46-14.77,3.13-22.31,4.2-29.91,5-60.68,7.08-91.83,4.15a234.9,234.9,0,0,1-46.61-8.7,151.43,151.43,0,0,1-43.75-21.12c-26.66-18.74-47.94-48.17-47.52-81.85a5.54,5.54,0,0,1,10-3.24Z"/><g class="cls-1"><path class="cls-2" d="M1067.74,2367.35s41.61,119-82.93,171.33C869,2587.34,771.14,2549.85,720.47,2521c-23.74-13.58-37.12-25.21-37.12-25.21l.61-19.54c50.71,28.84,148.49,66.17,264.14,17.58,124.54-52.33,82.93-171.32,82.93-171.32s110.14-24.07,116.3-69.68c15.7,6.2,27.08,14.28,32.34,24C1211.7,2335.86,1067.74,2367.35,1067.74,2367.35Z"/></g><g class="cls-1"><path class="cls-2" d="M1826.44,2682.22q-2.39,23.07-6,46.14c-10.07,64.57-43.56,140.37-83.87,213.14-63.47,114.75-143.79,222-175.73,266.09-64.17,88.64-173.7,75.26-223.95,49.73-120.83-61.44-88.15-199-76.45-310,1.68-16.11,2.9-31.65,3.18-46.3,0,0-43.48,16.81-80.19,16.81s-83.34-16.4-83.34-16.4c.28,14.81,1.55,30.47,3.26,46.75,11.71,111,44.14,248.26-76.53,309.57C976.57,3283.26,867,3296.64,802.87,3208c-32-44.22-112.62-151.87-176.18-266.91-40.1-72.53-73.34-148-83.42-212.36q-3.62-23-6-46.06c15.47,38.19,34.92,77.43,56.18,115.9,67.39,121.92,152.81,236,186.74,282.89,68,93.9,184.1,79.71,237.38,52.66,127.88-65-62.42-188.5-74.82-306.1-1.83-17.26,81.75,32.63,240.76,32.63s209.75-49.68,208-32.63c-12.4,117.64-173.37,240.55-45.32,305.65,53.27,27.09,169.37,41.25,237.37-52.7,33.86-46.71,119-160.4,186.26-282C1791.23,2760.26,1810.9,2720.69,1826.44,2682.22Z"/></g><path class="cls-2" d="M1098.3,2917.41a124.05,124.05,0,0,1-12.71-2.49c-4-1.05-7.94-2.09-11.78-3.42s-7.7-2.57-11.43-4.11-7.5-3-11.15-4.68c-14.72-6.52-28.54-14.74-42-23.36a395.72,395.72,0,0,1-38.13-28.57c-3.07-2.49-6-5.15-8.9-7.86s-5.82-5.35-8.67-8.09c-5.67-5.5-11-11.33-16.33-17.17a2.36,2.36,0,0,1,2.75-3.73l.1.05c7.14,3.33,14,6.93,20.92,10.4,7.06,3.26,13.73,7,20.76,10.13,13.72,6.78,27.66,12.86,41.44,18.94,13.89,5.87,27.9,11.17,41.68,16.6l40.48,15.5,1.09.42a16.34,16.34,0,0,1-8.17,31.44Z"/><path class="cls-2" d="M1253.31,2885.55l40.49-15.5c13.78-5.43,27.78-10.73,41.67-16.6,13.78-6.08,27.73-12.16,41.45-18.94,7-3.13,13.7-6.87,20.75-10.13,6.91-3.47,13.78-7.07,20.93-10.4l.09-.05a2.37,2.37,0,0,1,2.76,3.73c-5.29,5.84-10.66,11.67-16.34,17.17-2.84,2.74-5.74,5.43-8.66,8.09s-5.84,5.37-8.9,7.86a394.63,394.63,0,0,1-38.14,28.57c-13.4,8.62-27.22,16.84-41.94,23.36-3.65,1.71-7.37,3.25-11.15,4.68s-7.56,2.88-11.44,4.11-7.79,2.37-11.78,3.42a123.52,123.52,0,0,1-12.71,2.49,16.35,16.35,0,0,1-8.18-31.44Z"/><path class="cls-2" d="M1628.33,1269.47l-19.74,25.25a14.69,14.69,0,0,1-23.14-18.1,15.08,15.08,0,0,1,5.38-4.27l29.07-13.51a7,7,0,0,1,8.43,10.63Z"/><path class="cls-2" d="M1664.17,1321.78l-29.53,15.83a14.48,14.48,0,0,1-13.69-25.53,14.85,14.85,0,0,1,4.64-1.55l33.11-5.1a8.75,8.75,0,0,1,5.47,16.35Z"/><path class="cls-2" d="M1680.06,1380.46l-31.94,6.42a14.55,14.55,0,1,1-5.74-28.52,14.71,14.71,0,0,1,5.57,0l32,6.05a8.19,8.19,0,0,1,.09,16.08Z"/><circle class="cls-2" cx="1527.4" cy="1384" r="126.46" transform="translate(-531.27 1485.4) rotate(-45)"/><path class="cls-2" d="M1527.4,1513a129,129,0,1,1,129-129A129.1,129.1,0,0,1,1527.4,1513Zm0-252.91a124,124,0,1,0,124,124A124.09,124.09,0,0,0,1527.4,1260.05Z"/><circle class="cls-5" cx="1499.2" cy="1351.7" r="48.17" transform="translate(-160.78 2500.23) rotate(-76.72)"/><path class="cls-2" d="M1499.2,1401.77a50.08,50.08,0,1,1,50.07-50.08A50.14,50.14,0,0,1,1499.2,1401.77Zm0-96.33a46.26,46.26,0,1,0,46.25,46.25A46.31,46.31,0,0,0,1499.2,1305.44Z"/><circle class="cls-5" cx="1563.24" cy="1442.62" r="24.23" transform="translate(-111.15 2754.59) rotate(-80.78)"/><path class="cls-2" d="M1563.24,1468.76a26.15,26.15,0,1,1,26.15-26.14A26.16,26.16,0,0,1,1563.24,1468.76Zm0-48.46a22.32,22.32,0,1,0,22.31,22.32A22.34,22.34,0,0,0,1563.24,1420.3Z"/></svg>