<svg xmlns="http://www.w3.org/2000/svg" viewBox="0 0 435.4 435.4"><defs><style>.cls-1{isolation:isolate;}.cls-2{fill:#fea621;}.cls-3{fill:#fe9232;}.cls-4{fill:#74b219;}.cls-5{fill:#80c41c;}.cls-6{fill:#72ae19;}.cls-7,.cls-8{fill:#999;mix-blend-mode:multiply;}.cls-7{opacity:0.25;}.cls-8{opacity:0.46;}</style></defs><g class="cls-1"><g id="Capa_1" data-name="Capa 1"><circle class="cls-2" cx="217.7" cy="217.7" r="215.48"/><path class="cls-3" d="M190.66,231.39c.32,2.52.62,5.05.92,7.57a18,18,0,0,0,1.86.3C192.55,236.63,191.61,234,190.66,231.39Z"/><path class="cls-3" d="M229.29,233.68c.43,0,.84-.1,1.2-.16.07-2,.1-4.07.14-6.1C230.16,229.52,229.7,231.58,229.29,233.68Z"/><path class="cls-4" d="M124.67,197.19a11.63,11.63,0,0,0,14,5.05c1.2.77,2.36,1.47,3.46,2a18,18,0,0,0,15.85.92,12.24,12.24,0,0,0,4.74,1.1,1.05,1.05,0,0,1,.37,0,4.48,4.48,0,0,1,.56,0,29.79,29.79,0,0,0,5.76,7.49c.62,3.28.89,7,2.35,9.63a11.48,11.48,0,0,0,7.95,5.51A16,16,0,0,0,191.55,239h0c-.3-2.52-.6-5.05-.92-7.57,1,2.63,1.89,5.24,2.78,7.87A19.83,19.83,0,0,0,206,237.2a15.43,15.43,0,0,0,2.7-2,16.24,16.24,0,0,0,2.42-2.76,19.28,19.28,0,0,0,2-.4,38.53,38.53,0,0,0,3.93-1.15c2,.92,4.22,1.89,4.89,2.09a24.17,24.17,0,0,0,7.4.66c.41-2.1.87-4.16,1.34-6.26,0,2-.07,4.06-.14,6.1a9.59,9.59,0,0,0,1.76-.48c5.09-2,9.64-4.09,13.09-8,.4.1.8.24,1.2.37a14.7,14.7,0,0,0,2.59.47,17.63,17.63,0,0,0,7.58-.9,43.56,43.56,0,0,0,11-5.85,25.3,25.3,0,0,0,4.34-3.75,17,17,0,0,0,7.35,4.79c6.91,2.25,15.32.55,21.5-3.24,1.19-.72,2.45-1.55,3.72-2.46.7.31,1.43.64,2.39,1a16.75,16.75,0,0,0,4.82.9c3.76.27,8.57-1.39,10.92-4.39a15.66,15.66,0,0,0,3.9-9.51,16.76,16.76,0,0,0-.73-5.38,11.74,11.74,0,0,0-3.69-5.71,17.34,17.34,0,0,0,.13-3.89,18.78,18.78,0,0,0-.37-2.56,13.92,13.92,0,0,0,1.67-2.13c3.52-5.61,3.52-11.59.26-16.38l.1-.33a24.35,24.35,0,0,0,.23-11.07c-1.19-5.9-6.48-10.19-12.16-12-.56-6.58-6.08-12.87-14.32-10.55a30,30,0,0,0-5.28,2,18.06,18.06,0,0,0-11.06-3.69c-1.2,0-2.43,0-3.66,0a43.3,43.3,0,0,0-.53-5.52c3.32-5.12,3-11.47,1.62-17.34a10,10,0,0,0-7.17-7.92A22.29,22.29,0,0,0,268,96.36c-2.59-6-8.1-11-15-10.54a19.62,19.62,0,0,0-11.8,4.92,34.84,34.84,0,0,0-6.77,2.09,16.29,16.29,0,0,0-10.77-.49,10.3,10.3,0,0,0-1.46-.14,19.46,19.46,0,0,0-19.11,17.08c-7.38-3.46-15.32-4-22.86,2.56-1.37,1.19-2.62,2.36-3.85,3.49-4.56-.87-9.41-.63-13.29,2.06a22,22,0,0,0-5.86,5.87l-.36,0c-5.42-.44-9.53,3.91-11.23,8.53a19.06,19.06,0,0,0-1.06,5c-1.33,1.06-2.66,2.19-3.95,3.39-4.26,3.89-4.59,11.63-.61,15.81a11.69,11.69,0,0,0-1.35,2.63,17.72,17.72,0,0,0-7.89,9.46c-.56,1.64-1.13,3.39-1.66,5.16a17.16,17.16,0,0,0-3.91,3.93C120.78,183,121.14,191,124.67,197.19Z"/><path class="cls-5" d="M226.37,340.87a8,8,0,0,0,1.85,5.48,8.41,8.41,0,0,0,5.11,2.74c4.8.88,10.42-1.88,10.48-8.22.27-26,8.82-53.83,16.55-78.56a207.54,207.54,0,0,1,19-42.18,17,17,0,0,1-7.35-4.79,25.3,25.3,0,0,1-4.34,3.75,43.56,43.56,0,0,1-11,5.85,184.26,184.26,0,0,0-13.16,32.76c-.6,2.09-1.19,4.18-1.83,6.28v.07c-5,17.07-10.24,34.69-13.12,52.42v.07A158.93,158.93,0,0,0,226.37,340.87Z"/><path class="cls-4" d="M215.84,351.36a7.54,7.54,0,0,0,.17,1.8,6,6,0,0,0,.16.8c2.4,8.6,17,7.71,17.11-2.6,0-.77.05-1.49.05-2.27.45-27.44,4.1-54.57,7.94-81.75.15-1.09.29-2.2.45-3.29V264c1.76-12.66,3.52-25.56,7.28-37.75a2,2,0,0,1,.13-.39,14.7,14.7,0,0,1-2.59-.47c-.4-.13-.8-.27-1.2-.37-3.45,3.95-8,6.05-13.09,8a9.59,9.59,0,0,1-1.76.48c.07-2,.1-4.07.14-6.1-.47,2.1-.93,4.16-1.34,6.26-2.35,11.56-4,23.18-5.68,34.85-2,14-3.89,28-5.31,42C216.93,324.08,216,337.71,215.84,351.36Z"/><path class="cls-5" d="M210.86,345.38a7.87,7.87,0,0,0,4.12,7.28,6.53,6.53,0,0,0,1,.5,8.83,8.83,0,0,0,1.1.36h0c4.79,1.2,10.57-1.19,11.09-7.17a4.53,4.53,0,0,0,.07-1c0-9.6.14-19.24.31-28.84v-.07c.43-27.64,1.33-55.28,1.89-83,.07-2,.1-4.07.14-6.1-.47,2.1-.93,4.16-1.34,6.26a24.17,24.17,0,0,1-7.4-.66c-.67-.2-2.92-1.17-4.89-2.09a38.53,38.53,0,0,1-3.93,1.15c-.22,11.29-.52,22.56-.78,33.82v.1c-.44,16.08-.84,32.17-1.1,48.26v.13Q210.89,329.89,210.86,345.38Z"/><path class="cls-6" d="M190.66,231.39c.32,2.52.62,5.05.92,7.57,1.33,11.27,2.59,22.56,4.09,33.83,3.22,24.48,7.61,48.68,8,73.43.11,6.15,5.36,8.94,10,8.34a9,9,0,0,0,2.46-.6,8.14,8.14,0,0,0,.94-.44h0a7.87,7.87,0,0,0,4-7.3,338.61,338.61,0,0,0-2.83-35.69c-1.83-14.62-4.19-29.21-6-43.89,0-.2-.05-.43-.05-.64v-.1c-1.24-10.23-2.36-20.47-3.62-30.66a15.43,15.43,0,0,1-2.7,2,19.83,19.83,0,0,1-12.53,2.06C192.55,236.63,191.61,234,190.66,231.39Z"/><path class="cls-5" d="M163,206.34C170.42,226.41,178.9,246,183.71,267c6.18,27,12.06,54,14.41,81.61.74,8.57,11.25,10.58,15.59,6a5.92,5.92,0,0,0,1.27-1.9,8.38,8.38,0,0,0,.59-4.06c-1-11.46-2.5-22.89-4.38-34.21v-.13c-2.56-15.46-5.82-30.77-9.31-46.06a287.49,287.49,0,0,0-8.44-28.94c-.89-2.63-1.83-5.24-2.78-7.87.32,2.52.62,5.05.92,7.57h0A16,16,0,0,1,179.66,229a11.48,11.48,0,0,1-7.95-5.51c-1.46-2.63-1.73-6.35-2.35-9.63a29.79,29.79,0,0,1-5.76-7.49A4.48,4.48,0,0,0,163,206.34Z"/><path class="cls-7" d="M124.67,197.19a11.63,11.63,0,0,0,14,5.05c1.2.77,2.36,1.47,3.46,2a18,18,0,0,0,15.85.92,12.25,12.25,0,0,0,4.75,1.1,1,1,0,0,1,.36,0,4.48,4.48,0,0,1,.56,0,29.79,29.79,0,0,0,5.76,7.49c.63,3.28.89,7,2.35,9.63a11.48,11.48,0,0,0,7.95,5.51A16.05,16.05,0,0,0,191.55,239h0c-.29-2.52-.6-5.05-.92-7.57,1,2.63,1.89,5.24,2.78,7.87A19.87,19.87,0,0,0,206,237.2a15,15,0,0,0,2.69-2,16.75,16.75,0,0,0,2.43-2.76c.66-.1,1.31-.23,2-.4a39.12,39.12,0,0,0,3.92-1.15c2,.92,4.22,1.89,4.89,2.09a24.17,24.17,0,0,0,7.4.66c.41-2.1.87-4.16,1.34-6.26,0,2-.07,4.06-.14,6.1a9.59,9.59,0,0,0,1.76-.48c5.09-2,9.64-4.09,13.09-8,.4.1.8.24,1.2.37a14.7,14.7,0,0,0,2.59.47,17.61,17.61,0,0,0,7.58-.9,43.56,43.56,0,0,0,11-5.85,25.75,25.75,0,0,0,4.35-3.75,17,17,0,0,0,7.34,4.79c6.91,2.25,15.32.55,21.5-3.24,1.2-.72,2.46-1.55,3.72-2.46.7.31,1.43.64,2.39,1a16.81,16.81,0,0,0,4.82.9c3.76.27,8.58-1.39,10.93-4.39a15.7,15.7,0,0,0,3.89-9.51,16.76,16.76,0,0,0-.73-5.38,2.44,2.44,0,0,0-.21-.53,72.59,72.59,0,0,1-12.92.8,8.74,8.74,0,0,0-2.59.5.11.11,0,0,1,0-.07,16.76,16.76,0,0,0-6.75-4.15c-5.81-1.62-12.1,1.33-16.71,4.55a22.33,22.33,0,0,0-2.76,2.46,10.88,10.88,0,0,0-5.94,3.42c-.54.57-1,1.13-1.53,1.66a3.36,3.36,0,0,1-1.39-1.43c-2.69-4.72-6.19-8.9-11.54-10.66-7.35-2.46-11.43,1.29-15.91-5.18-2.56-3.76-6.75-8.77-11.5-9.77-3.1-.67-8.91-.17-11.94.16-1-2.46-2.18-4.82-3-6.94a21.3,21.3,0,0,0-19.83-13.12,11.67,11.67,0,0,0-5.26-4.43c.07-.22.1-.47.17-.72,1.09-4,.79-10-1.37-13.66s-4.51-7-8-9.5a28.59,28.59,0,0,0-2.29-8.58c.83-.53,1.76-1.09,2.82-1.73a10.71,10.71,0,0,0,5-6,11,11,0,0,0,6.34-6.49c-6.11-1.75-12.45-1-18.54,4.2-1.37,1.19-2.62,2.36-3.85,3.49-4.55-.87-9.4-.63-13.29,2.06a21.92,21.92,0,0,0-5.85,5.87l-.36,0c-5.43-.44-9.54,3.91-11.24,8.53a19.06,19.06,0,0,0-1.06,5c-1.33,1.06-2.66,2.19-3.95,3.39-4.26,3.89-4.59,11.63-.61,15.81a11.69,11.69,0,0,0-1.35,2.63c-3.83,2.45-6.32,5.12-7.88,9.46-.57,1.64-1.14,3.39-1.66,5.16a17,17,0,0,0-3.92,3.93C120.78,183,121.15,191,124.67,197.19Z"/><path class="cls-8" d="M230.5,357.66l-68.28,68.28A215.7,215.7,0,0,1,8.27,268.46L146.18,130.55a7.34,7.34,0,0,0-.53,1.2,18,18,0,0,0-1.05,5c-1.35,1.05-2.68,2.2-4,3.4-4.27,3.88-4.56,11.63-.58,15.8a11.22,11.22,0,0,0-1.39,2.63,17.45,17.45,0,0,0-7.85,9.48c-.57,1.63-1.15,3.35-1.68,5.13a19.5,19.5,0,0,0-3.93,3.93,18.59,18.59,0,0,0-1.44,2.29c-2.82,5.55-2.19,12.31.92,17.72a11.73,11.73,0,0,0,14,5.08,34.84,34.84,0,0,0,3.44,2,18,18,0,0,0,15.86.95,12.62,12.62,0,0,0,4.74,1.11H163c7.42,20.1,15.9,39.69,20.69,60.66,6.17,27,12.07,54,14.41,81.59.77,8.58,11.25,10.59,15.61,6a10.16,10.16,0,0,0,2.44-.62C217.9,360.2,226.1,361.45,230.5,357.66Z"/></g></g></svg>